<svg width="388" height="320" viewBox="0 0 388 320" fill="none" xmlns="http://www.w3.org/2000/svg">
    <path fill-rule="evenodd" clip-rule="evenodd"
        d="M243.758 159.941C279.072 190.319 289.986 241.082 257.649 279.144C225.312 317.206 171.246 322.564 133.001 292.674C101.203 267.822 34.1374 192.612 12.4305 167.962C10.0022 165.205 8.78798 163.826 8.31142 162.217C7.89547 160.814 7.89547 159.278 8.31142 157.873C8.78798 156.264 10.0022 154.887 12.4305 152.128C34.1374 127.478 101.203 52.2688 133.001 27.4163C171.246 -2.47395 225.652 2.23113 257.649 40.9475C289.646 79.6638 279.072 129.563 243.758 159.941Z"
        fill="black" stroke="white" stroke-width="15" stroke-linecap="round" stroke-linejoin="round" />
    <path fill-rule="evenodd" clip-rule="evenodd"
        d="M272.264 94.6418C294.204 69.146 330.866 61.2667 358.355 84.6132C385.845 107.96 389.715 146.993 368.127 174.606C350.179 197.563 295.86 245.982 278.057 261.654C276.066 263.407 275.07 264.284 273.908 264.628C272.895 264.928 271.785 264.928 270.771 264.628C269.609 264.284 268.614 263.407 266.622 261.654C248.819 245.982 194.501 197.563 176.552 174.606C154.965 146.993 158.363 107.714 186.325 84.6132C214.286 61.5123 250.325 69.146 272.264 94.6418Z"
        fill="white" stroke="black" stroke-width="12" stroke-linecap="round" stroke-linejoin="round" />
</svg>
