<svg width="30" height="24" viewBox="0 0 30 24" fill="none" xmlns="http://www.w3.org/2000/svg">
<path d="M15 5.00005C15.0015 4.60008 14.903 4.20391 14.7103 3.83485C14.5176 3.46579 14.2345 3.13128 13.8779 2.851C13.5212 2.57072 13.0981 2.35032 12.6334 2.20278C12.1686 2.05524 11.6718 1.98353 11.1719 1.99186C10.672 2.0002 10.1793 2.08841 9.7227 2.25132C9.26609 2.41422 8.8548 2.64853 8.51303 2.94045C8.17127 3.23238 7.90592 3.57604 7.7326 3.9512C7.55927 4.32637 7.48148 4.72548 7.50378 5.12505C6.76903 5.27619 6.08691 5.5591 5.50907 5.95236C4.93123 6.34562 4.47283 6.83892 4.16859 7.3949C3.86434 7.95087 3.72223 8.55494 3.75302 9.16136C3.7838 9.76778 3.98668 10.3606 4.34628 10.8951C3.71401 11.306 3.21681 11.8343 2.89796 12.434C2.5791 13.0337 2.44823 13.6866 2.51674 14.336C2.58524 14.9854 2.85105 15.6116 3.29104 16.1601C3.73102 16.7085 4.33186 17.1627 5.04128 17.4831C4.95368 18.0253 5.00596 18.5761 5.19489 19.1016C5.38382 19.627 5.7054 20.1159 6.13976 20.538C6.57412 20.9601 7.11205 21.3065 7.72031 21.5558C8.32857 21.8051 8.99425 21.952 9.67625 21.9874C10.3583 22.0228 11.0421 21.946 11.6855 21.7617C12.3289 21.5774 12.9183 21.2895 13.4172 20.9158C13.9161 20.5421 14.314 20.0906 14.5862 19.5891C14.8585 19.0876 14.9993 18.5468 15 18V5.00005Z" stroke="white" stroke-width="2" stroke-linecap="round" stroke-linejoin="round"/>
<path d="M15 5.00005C14.9985 4.60008 15.0971 4.20391 15.2898 3.83485C15.4825 3.46579 15.7655 3.13128 16.1222 2.851C16.4789 2.57072 16.902 2.35032 17.3667 2.20278C17.8314 2.05524 18.3283 1.98353 18.8281 1.99186C19.328 2.0002 19.8207 2.08841 20.2773 2.25132C20.734 2.41422 21.1452 2.64853 21.487 2.94045C21.8288 3.23238 22.0941 3.57604 22.2675 3.9512C22.4408 4.32637 22.5186 4.72548 22.4963 5.12505C23.231 5.27619 23.9131 5.5591 24.491 5.95236C25.0688 6.34562 25.5272 6.83892 25.8315 7.3949C26.1357 7.95087 26.2778 8.55494 26.247 9.16136C26.2162 9.76778 26.0134 10.3606 25.6538 10.8951C26.286 11.306 26.7832 11.8343 27.1021 12.434C27.421 13.0337 27.5518 13.6866 27.4833 14.336C27.4148 14.9854 27.149 15.6116 26.709 16.1601C26.269 16.7085 25.6682 17.1627 24.9588 17.4831C25.0464 18.0253 24.9941 18.5761 24.8052 19.1016C24.6162 19.627 24.2946 20.1159 23.8603 20.538C23.4259 20.9601 22.888 21.3065 22.2797 21.5558C21.6715 21.8051 21.0058 21.952 20.3238 21.9874C19.6418 22.0228 18.958 21.946 18.3145 21.7617C17.6711 21.5774 17.0817 21.2895 16.5828 20.9158C16.0839 20.5421 15.686 20.0906 15.4138 19.5891C15.1416 19.0876 15.0007 18.5468 15 18V5.00005Z" stroke="white" stroke-width="2" stroke-linecap="round" stroke-linejoin="round"/>
<path d="M18.75 13C17.7006 12.7047 16.7841 12.167 16.1167 11.455C15.4492 10.743 15.0606 9.88867 15 9C14.9394 9.88867 14.5508 10.743 13.8833 11.455C13.2159 12.167 12.2994 12.7047 11.25 13" stroke="white" stroke-width="2" stroke-linecap="round" stroke-linejoin="round"/>
<path d="M21.9988 6.5C22.3013 6.08059 22.4724 5.60882 22.4975 5.125" stroke="white" stroke-width="2" stroke-linecap="round" stroke-linejoin="round"/>
<path d="M7.50366 5.125C7.52838 5.60873 7.69907 6.0805 8.00116 6.5" stroke="white" stroke-width="2" stroke-linecap="round" stroke-linejoin="round"/>
<path d="M4.34619 10.896C4.57487 10.747 4.81957 10.6145 5.07744 10.5" stroke="white" stroke-width="2" stroke-linecap="round" stroke-linejoin="round"/>
<path d="M24.9226 10.5C25.1805 10.6145 25.4252 10.747 25.6539 10.896" stroke="white" stroke-width="2" stroke-linecap="round" stroke-linejoin="round"/>
<path d="M7.50001 17.9999C6.63855 18.0002 5.79159 17.8225 5.04126 17.4839" stroke="white" stroke-width="2" stroke-linecap="round" stroke-linejoin="round"/>
<path d="M24.9587 17.4839C24.2084 17.8225 23.3615 18.0002 22.5 17.9999" stroke="white" stroke-width="2" stroke-linecap="round" stroke-linejoin="round"/>
</svg>
