<svg width="1001" height="290" viewBox="0 0 1001 290" fill="none" xmlns="http://www.w3.org/2000/svg">
<path d="M388.216 232V57.4545H453.67C467.08 57.4545 478.33 59.9545 487.42 64.9545C496.568 69.9545 503.472 76.8295 508.131 85.5795C512.847 94.2727 515.205 104.159 515.205 115.239C515.205 126.432 512.847 136.375 508.131 145.068C503.415 153.761 496.455 160.608 487.25 165.608C478.045 170.551 466.71 173.023 453.244 173.023H409.864V147.028H448.983C456.824 147.028 463.244 145.665 468.244 142.938C473.244 140.21 476.938 136.46 479.324 131.688C481.767 126.915 482.989 121.432 482.989 115.239C482.989 109.045 481.767 103.591 479.324 98.875C476.938 94.1591 473.216 90.4943 468.159 87.8807C463.159 85.2102 456.71 83.875 448.812 83.875H419.835V232H388.216ZM622.943 176.943V101.091H653.795V232H623.88V208.733H622.517C619.562 216.062 614.704 222.057 607.943 226.716C601.238 231.375 592.971 233.705 583.142 233.705C574.562 233.705 566.977 231.801 560.386 227.994C553.852 224.131 548.738 218.534 545.045 211.205C541.352 203.818 539.505 194.898 539.505 184.443V101.091H570.358V179.67C570.358 187.966 572.63 194.557 577.176 199.443C581.721 204.33 587.687 206.773 595.074 206.773C599.619 206.773 604.022 205.665 608.284 203.449C612.545 201.233 616.039 197.938 618.767 193.562C621.551 189.131 622.943 183.591 622.943 176.943ZM714.573 57.4545V232H683.721V57.4545H714.573ZM847.965 135.693L819.84 138.761C819.045 135.92 817.653 133.25 815.664 130.75C813.732 128.25 811.118 126.233 807.823 124.699C804.528 123.165 800.493 122.398 795.721 122.398C789.3 122.398 783.903 123.79 779.528 126.574C775.209 129.358 773.079 132.966 773.136 137.398C773.079 141.205 774.471 144.301 777.312 146.688C780.209 149.074 784.982 151.034 791.63 152.568L813.959 157.341C826.346 160.011 835.55 164.244 841.573 170.04C847.653 175.835 850.721 183.42 850.778 192.795C850.721 201.034 848.306 208.307 843.533 214.614C838.817 220.864 832.255 225.75 823.846 229.273C815.437 232.795 805.778 234.557 794.868 234.557C778.846 234.557 765.948 231.205 756.175 224.5C746.403 217.739 740.579 208.335 738.704 196.29L768.789 193.392C770.153 199.301 773.05 203.761 777.482 206.773C781.914 209.784 787.681 211.29 794.783 211.29C802.113 211.29 807.993 209.784 812.425 206.773C816.914 203.761 819.158 200.04 819.158 195.608C819.158 191.858 817.709 188.761 814.812 186.318C811.971 183.875 807.539 182 801.516 180.693L779.187 176.006C766.63 173.392 757.34 168.989 751.317 162.795C745.295 156.545 742.312 148.648 742.368 139.102C742.312 131.034 744.499 124.045 748.931 118.136C753.42 112.17 759.641 107.568 767.596 104.33C775.607 101.034 784.84 99.3864 795.295 99.3864C810.636 99.3864 822.709 102.653 831.516 109.188C840.38 115.722 845.863 124.557 847.965 135.693ZM932.372 234.557C919.247 234.557 907.912 231.83 898.367 226.375C888.878 220.864 881.577 213.08 876.463 203.023C871.35 192.909 868.793 181.006 868.793 167.312C868.793 153.847 871.35 142.028 876.463 131.858C881.634 121.631 888.85 113.676 898.111 107.994C907.372 102.256 918.253 99.3864 930.753 99.3864C938.821 99.3864 946.435 100.693 953.594 103.307C960.81 105.864 967.174 109.841 972.685 115.239C978.253 120.636 982.628 127.511 985.81 135.864C988.992 144.159 990.583 154.045 990.583 165.523V174.983H883.282V154.188H961.009C960.952 148.278 959.674 143.023 957.174 138.42C954.674 133.761 951.179 130.097 946.691 127.426C942.259 124.756 937.088 123.42 931.179 123.42C924.872 123.42 919.333 124.955 914.56 128.023C909.787 131.034 906.066 135.011 903.395 139.955C900.782 144.841 899.446 150.21 899.389 156.062V174.216C899.389 181.83 900.782 188.364 903.566 193.818C906.35 199.216 910.242 203.364 915.242 206.261C920.242 209.102 926.094 210.523 932.799 210.523C937.287 210.523 941.35 209.898 944.986 208.648C948.622 207.341 951.776 205.438 954.446 202.938C957.117 200.438 959.134 197.341 960.497 193.648L989.304 196.886C987.486 204.5 984.02 211.148 978.907 216.83C973.85 222.455 967.372 226.83 959.475 229.955C951.577 233.023 942.543 234.557 932.372 234.557Z" fill="white"/>
<path fill-rule="evenodd" clip-rule="evenodd" d="M234.561 75.8253C231.859 78.0949 229.309 80.6116 226.949 83.3547C225.762 81.976 224.53 80.6553 223.257 79.395C221.586 69.1891 217.15 59.1239 209.576 49.9178C185.208 20.2958 143.886 16.6864 114.737 39.5727C102.014 49.5633 81.892 69.9917 62.4705 90.7806C43.1551 111.456 24.867 132.123 15.9183 142.332C14.8541 143.547 14.2832 144.204 13.9031 144.714C13.85 144.785 13.8077 144.845 13.7742 144.893C13.7482 144.931 13.7276 144.962 13.7115 144.987C13.7081 145.025 13.7081 145.065 13.7115 145.102C13.7481 145.159 13.8088 145.249 13.9035 145.376C14.283 145.885 14.8539 146.543 15.9172 147.756L15.9177 147.756C24.866 157.965 43.1546 178.633 62.4705 199.309C81.892 220.098 102.014 240.526 114.737 250.517C143.82 273.351 184.918 269.33 209.627 240.111L213.905 243.728L209.627 240.111C212.512 236.7 214.943 233.149 216.941 229.498C218.804 231.151 220.46 232.612 221.864 233.848L221.873 233.856C223.662 235.431 224.557 236.218 225.603 236.528C225.847 236.6 226.098 236.653 226.352 236.687C224.162 240.445 221.574 244.117 218.568 247.672C189.848 281.633 141.616 286.507 107.506 259.726C93.9609 249.09 73.2459 227.995 53.9144 207.302C34.4776 186.497 16.0976 165.725 7.11303 155.475L11.5151 151.615L7.11256 155.474L7.00027 155.346C6.09603 154.315 5.20762 153.302 4.51451 152.372C3.74087 151.334 2.96316 150.084 2.49716 148.504L8.07754 146.857L2.49675 148.503L2.49716 148.504C1.8341 146.258 1.83467 143.832 2.49661 141.587L2.49675 141.586C2.96292 140.005 3.74131 138.755 4.5149 137.717C5.2052 136.791 6.08993 135.781 6.99031 134.754L7.11187 134.615L7.11256 134.615C16.0969 124.365 34.4773 103.593 53.9144 82.7873C73.2459 62.0948 93.9608 40.9996 107.506 30.3636L107.506 30.3634C141.549 3.63456 190.12 7.83532 218.619 42.4792C227.239 52.9581 232.396 64.323 234.561 75.8253Z" fill="white"/>
<path d="M226.949 83.3547L225.812 84.3331C226.097 84.6642 226.512 84.8547 226.949 84.8547C227.386 84.8547 227.801 84.6642 228.086 84.3331L226.949 83.3547ZM234.561 75.8253L235.526 76.9739C235.94 76.6254 236.135 76.0803 236.035 75.5479L234.561 75.8253ZM223.257 79.395L221.776 79.6373C221.827 79.9499 221.976 80.2384 222.202 80.4612L223.257 79.395ZM209.576 49.9178L210.735 48.9648L210.735 48.9648L209.576 49.9178ZM114.737 39.5727L113.811 38.3929L113.811 38.393L114.737 39.5727ZM62.4705 90.7806L63.5666 91.8046L63.5666 91.8046L62.4705 90.7806ZM15.9183 142.332L14.7903 141.343L14.7902 141.343L15.9183 142.332ZM13.9031 144.714L12.7004 143.818L12.7004 143.818L13.9031 144.714ZM13.7742 144.893L12.5396 144.041L12.5396 144.041L13.7742 144.893ZM13.7115 144.987L12.4496 144.176C12.319 144.379 12.2394 144.611 12.2176 144.852L13.7115 144.987ZM13.7115 145.102L12.2175 145.237C12.2392 145.477 12.3186 145.709 12.449 145.912L13.7115 145.102ZM13.9035 145.376L15.1063 144.48L15.1063 144.48L13.9035 145.376ZM15.9172 147.756L17.0539 146.777L17.045 146.767L15.9172 147.756ZM15.9177 147.756L14.781 148.735L14.7897 148.745L15.9177 147.756ZM62.4705 199.309L61.3744 200.333L61.3744 200.333L62.4705 199.309ZM114.737 250.517L113.811 251.696L113.811 251.696L114.737 250.517ZM209.627 240.111L210.596 238.966C209.963 238.431 209.017 238.51 208.482 239.143L209.627 240.111ZM212.936 244.874C213.569 245.408 214.515 245.329 215.05 244.697C215.585 244.064 215.506 243.118 214.873 242.583L212.936 244.874ZM209.627 240.111L208.482 239.143C208.225 239.446 208.099 239.84 208.133 240.236C208.166 240.633 208.355 241 208.659 241.256L209.627 240.111ZM216.941 229.498L217.936 228.376C217.594 228.073 217.133 227.942 216.684 228.02C216.234 228.099 215.844 228.378 215.625 228.778L216.941 229.498ZM221.864 233.848L220.873 234.974L220.873 234.975L221.864 233.848ZM221.873 233.856L222.864 232.73L222.863 232.73L221.873 233.856ZM225.603 236.528L225.177 237.966L225.177 237.966L225.603 236.528ZM226.352 236.687L227.648 237.442C227.9 237.009 227.92 236.478 227.699 236.027C227.478 235.577 227.047 235.266 226.549 235.2L226.352 236.687ZM218.568 247.672L217.423 246.703L217.423 246.703L218.568 247.672ZM107.506 259.726L106.58 260.906L106.58 260.906L107.506 259.726ZM53.9144 207.302L55.0105 206.278L55.0105 206.278L53.9144 207.302ZM7.11303 155.475L6.12415 154.347C5.50129 154.893 5.43901 155.841 5.98503 156.464L7.11303 155.475ZM11.5151 151.615L12.504 152.743C13.1269 152.197 13.1891 151.249 12.643 150.626C12.097 150.004 11.1493 149.941 10.5264 150.487L11.5151 151.615ZM7.11256 155.474L5.98482 156.463C6.53095 157.086 7.47844 157.148 8.1013 156.602L7.11256 155.474ZM7.00027 155.346L5.87252 156.335L5.87253 156.335L7.00027 155.346ZM4.51451 152.372L5.71732 151.476L5.71732 151.476L4.51451 152.372ZM8.07754 146.857L8.50212 148.296C9.2966 148.062 9.75062 147.227 9.51625 146.433C9.28188 145.638 8.44786 145.184 7.65332 145.419L8.07754 146.857ZM2.49675 148.503L2.07253 147.064C1.27863 147.298 0.824371 148.131 1.05745 148.925L2.49675 148.503ZM2.49661 141.587L1.06857 141.128C1.06484 141.139 1.06126 141.151 1.05781 141.163L2.49661 141.587ZM2.49675 141.586L3.92479 142.045C3.9285 142.034 3.93208 142.022 3.93551 142.01L2.49675 141.586ZM4.5149 137.717L3.31222 136.821L3.31221 136.821L4.5149 137.717ZM6.99031 134.754L8.11834 135.743L8.11841 135.743L6.99031 134.754ZM7.11187 134.615L8.23998 135.604L8.24142 135.602L7.11187 134.615ZM7.11256 134.615L5.98456 133.626L5.98302 133.628L7.11256 134.615ZM53.9144 82.7873L52.8183 81.7634L52.8183 81.7634L53.9144 82.7873ZM107.506 30.3636L108.433 31.5433C108.451 31.5293 108.468 31.515 108.485 31.5002L107.506 30.3636ZM107.506 30.3634L106.58 29.1836C106.562 29.1976 106.545 29.212 106.528 29.2268L107.506 30.3634ZM218.619 42.4792L219.777 41.5262L219.777 41.5262L218.619 42.4792ZM228.086 84.3331C230.394 81.6509 232.886 79.1911 235.526 76.9739L233.596 74.6767C230.832 76.9986 228.225 79.5723 225.812 82.3763L228.086 84.3331ZM222.202 80.4612C223.446 81.6932 224.651 82.9846 225.812 84.3331L228.086 82.3763C226.873 80.9674 225.614 79.6173 224.312 78.3288L222.202 80.4612ZM208.418 50.8707C215.829 59.8795 220.15 69.7012 221.776 79.6373L224.737 79.1527C223.022 68.677 218.471 58.3684 210.735 48.9648L208.418 50.8707ZM115.664 40.7525C144.185 18.3587 184.579 21.8917 208.418 50.8707L210.735 48.9648C185.838 18.6998 143.587 15.0141 113.811 38.3929L115.664 40.7525ZM63.5666 91.8046C82.9997 71.0032 103.046 50.6603 115.664 40.7525L113.811 38.393C100.982 48.4662 80.7842 68.9801 61.3744 89.7566L63.5666 91.8046ZM17.0463 143.321C25.9904 133.117 44.2667 112.463 63.5666 91.8046L61.3744 89.7566C42.0435 110.449 23.7436 131.129 14.7903 141.343L17.0463 143.321ZM15.1058 145.611C15.4419 145.16 15.9651 144.555 17.0465 143.321L14.7902 141.343C13.7431 142.538 13.1246 143.249 12.7004 143.818L15.1058 145.611ZM15.0088 145.745C15.0312 145.713 15.0628 145.668 15.1058 145.611L12.7004 143.818C12.6372 143.903 12.5842 143.977 12.5396 144.041L15.0088 145.745ZM14.9734 145.798C14.9799 145.788 14.9914 145.77 15.0088 145.745L12.5396 144.041C12.505 144.092 12.4752 144.136 12.4496 144.176L14.9734 145.798ZM15.2054 144.967C15.2101 145.02 15.2101 145.07 15.2054 145.122L12.2176 144.852C12.2061 144.98 12.206 145.11 12.2175 145.237L15.2054 144.967ZM15.1063 144.48C15.0294 144.376 14.989 144.316 14.9739 144.292L12.449 145.912C12.5072 146.003 12.5882 146.121 12.7007 146.272L15.1063 144.48ZM17.045 146.767C15.9648 145.535 15.4417 144.93 15.1063 144.48L12.7007 146.272C13.1244 146.841 13.7429 147.551 14.7893 148.745L17.045 146.767ZM17.0543 146.777L17.0538 146.777L14.7805 148.734L14.781 148.735L17.0543 146.777ZM63.5666 198.285C44.2662 177.625 25.9894 156.971 17.0457 146.767L14.7897 148.745C23.7426 158.959 42.043 179.64 61.3744 200.333L63.5666 198.285ZM115.664 249.337C103.046 239.429 82.9997 219.086 63.5666 198.285L61.3744 200.333C80.7843 221.109 100.982 241.623 113.811 251.696L115.664 249.337ZM208.482 239.143C184.286 267.754 144.102 271.665 115.664 249.337L113.811 251.696C143.537 275.036 185.549 270.906 210.773 241.08L208.482 239.143ZM214.873 242.583L210.596 238.966L208.659 241.256L212.936 244.874L214.873 242.583ZM208.659 241.256L212.936 244.874L214.873 242.583L210.596 238.966L208.659 241.256ZM215.625 228.778C213.676 232.338 211.303 235.807 208.482 239.143L210.773 241.08C213.721 237.594 216.209 233.959 218.257 230.218L215.625 228.778ZM222.855 232.722C221.453 231.488 219.798 230.027 217.936 228.376L215.946 230.621C217.811 232.274 219.468 233.737 220.873 234.974L222.855 232.722ZM222.863 232.73L222.855 232.722L220.873 234.975L220.882 234.982L222.863 232.73ZM226.029 235.09C225.74 235.004 225.417 234.84 224.915 234.465C224.396 234.077 223.776 233.533 222.864 232.73L220.882 234.982C221.759 235.754 222.481 236.391 223.118 236.867C223.773 237.357 224.42 237.742 225.177 237.966L226.029 235.09ZM226.549 235.2C226.371 235.177 226.197 235.14 226.029 235.09L225.177 237.966C225.498 238.061 225.825 238.13 226.154 238.174L226.549 235.2ZM219.713 248.64C222.774 245.021 225.413 241.277 227.648 237.442L225.056 235.932C222.911 239.613 220.373 243.214 217.423 246.703L219.713 248.64ZM106.58 260.906C141.334 288.193 190.48 283.209 219.713 248.64L217.423 246.703C189.216 280.057 141.898 284.822 108.433 258.546L106.58 260.906ZM52.8183 208.326C72.1383 229.006 92.9292 250.187 106.58 260.906L108.433 258.546C94.9925 247.993 74.3534 226.983 55.0105 206.278L52.8183 208.326ZM5.98503 156.464C14.9742 166.719 33.366 187.504 52.8183 208.326L55.0105 206.278C35.5893 185.489 17.221 164.731 8.24103 154.486L5.98503 156.464ZM10.5262 150.487L6.12415 154.347L8.10192 156.603L12.504 152.743L10.5262 150.487ZM8.1013 156.602L12.5038 152.743L10.5264 150.487L6.12382 154.346L8.1013 156.602ZM5.87253 156.335L5.98482 156.463L8.2403 154.485L8.12801 154.357L5.87253 156.335ZM3.3117 153.268C4.0477 154.256 4.97937 155.317 5.87252 156.335L8.12802 154.357C7.2127 153.314 6.36754 152.348 5.71732 151.476L3.3117 153.268ZM1.05846 148.929C1.59333 150.742 2.48068 152.153 3.3117 153.268L5.71732 151.476C5.00106 150.514 4.33299 149.426 3.93586 148.08L1.05846 148.929ZM2.92174 149.943L8.50212 148.296L7.65296 145.419L2.07258 147.066L2.92174 149.943ZM7.65332 145.419L2.07253 147.064L2.92096 149.942L8.50176 148.296L7.65332 145.419ZM1.05745 148.925L1.05786 148.927L3.93646 148.082L3.93604 148.08L1.05745 148.925ZM1.05781 141.163C0.314317 143.685 0.313604 146.405 1.0585 148.929L3.93581 148.08C3.3546 146.11 3.35502 143.98 3.93541 142.011L1.05781 141.163ZM1.0687 141.127L1.06857 141.128L3.92465 142.046L3.92479 142.045L1.0687 141.127ZM3.31221 136.821C2.48127 137.936 1.59308 139.347 1.05798 141.162L3.93551 142.01C4.33276 140.663 5.00136 139.574 5.7176 138.613L3.31221 136.821ZM5.86228 133.765C4.97292 134.78 4.04518 135.837 3.31222 136.821L5.71759 138.613C6.36521 137.745 7.20695 136.783 8.11834 135.743L5.86228 133.765ZM5.98377 133.627L5.8622 133.766L8.11841 135.743L8.23998 135.604L5.98377 133.627ZM5.98302 133.628L5.98233 133.628L8.24142 135.602L8.2421 135.602L5.98302 133.628ZM52.8183 81.7634C33.3657 102.586 14.9735 123.371 5.98456 133.626L8.24056 135.603C17.2203 125.359 35.5889 104.6 55.0105 83.8113L52.8183 81.7634ZM106.58 29.1838C92.9292 39.9025 72.1384 61.083 52.8183 81.7634L55.0105 83.8113C74.3534 63.1065 94.9925 42.0967 108.433 31.5433L106.58 29.1838ZM106.528 29.2268L106.528 29.2269L108.485 31.5002L108.485 31.5001L106.528 29.2268ZM219.777 41.5262C190.749 6.23876 141.25 1.96276 106.58 29.1836L108.433 31.5432C141.849 5.30636 189.491 9.43189 217.46 43.4321L219.777 41.5262ZM236.035 75.5479C233.822 63.7899 228.553 52.1942 219.777 41.5262L217.46 43.4321C225.925 53.722 230.97 64.856 233.087 76.1027L236.035 75.5479Z" fill="white"/>
<path fill-rule="evenodd" clip-rule="evenodd" d="M226.696 95.0066C243.551 75.4195 271.717 69.3662 292.835 87.3021C313.954 105.238 316.927 135.226 300.342 156.439C286.554 174.076 244.823 211.274 231.146 223.314C229.617 224.661 228.851 225.334 227.959 225.598C227.18 225.829 226.328 225.829 225.549 225.598C224.656 225.334 223.892 224.661 222.361 223.314C208.684 211.274 166.954 174.076 153.165 156.439C136.58 135.226 139.191 105.049 160.673 87.3021C182.154 69.5549 209.841 75.4195 226.696 95.0066Z" fill="white"/>
</svg>
