<svg width="492" height="403" viewBox="0 0 492 403" fill="none" xmlns="http://www.w3.org/2000/svg">
<g filter="url(#filter0_d_1187_379)">
<rect x="10" y="10" width="472" height="383" rx="20" fill="black"/>
<rect x="10.5" y="10.5" width="471" height="382" rx="19.5" stroke="white" stroke-opacity="0.5"/>
</g>
<rect x="309.918" y="320.888" width="120.111" height="35.2299" rx="17.6149" stroke="white" stroke-opacity="0.5"/>
<g clip-path="url(#clip0_1187_379)">
<path d="M337.307 331.836H323.974V345.17H343.974V331.836H337.307Z" fill="white"/>
<path d="M323.974 331.836H330.64V345.17H323.974V331.836Z" fill="#6DA544"/>
<path d="M337.307 331.836H343.974V345.17H337.307V331.836Z" fill="#D80027"/>
</g>
<path d="M358.619 333.548V343.003H356.906V333.548H358.619ZM363.941 335.912V337.205H359.864V335.912H363.941ZM360.871 334.213H362.542V340.87C362.542 341.095 362.576 341.267 362.643 341.387C362.714 341.504 362.806 341.584 362.92 341.627C363.034 341.67 363.16 341.692 363.299 341.692C363.403 341.692 363.499 341.684 363.585 341.669C363.674 341.653 363.742 341.64 363.788 341.627L364.07 342.934C363.981 342.964 363.853 342.998 363.687 343.035C363.523 343.072 363.323 343.094 363.086 343.1C362.668 343.112 362.291 343.049 361.955 342.911C361.62 342.769 361.354 342.551 361.157 342.255C360.963 341.96 360.867 341.59 360.871 341.147V334.213ZM367.379 343.146C366.929 343.146 366.525 343.066 366.165 342.906C365.807 342.743 365.524 342.503 365.315 342.186C365.109 341.869 365.006 341.478 365.006 341.013C365.006 340.613 365.08 340.282 365.227 340.021C365.375 339.759 365.577 339.55 365.832 339.393C366.088 339.236 366.375 339.117 366.695 339.037C367.019 338.954 367.352 338.894 367.697 338.857C368.113 338.814 368.45 338.776 368.708 338.742C368.967 338.705 369.154 338.65 369.271 338.576C369.391 338.499 369.451 338.38 369.451 338.22V338.193C369.451 337.845 369.348 337.575 369.142 337.385C368.936 337.194 368.639 337.098 368.251 337.098C367.842 337.098 367.517 337.188 367.277 337.366C367.04 337.545 366.88 337.756 366.797 337.999L365.237 337.777C365.36 337.346 365.563 336.986 365.846 336.697C366.129 336.404 366.475 336.186 366.885 336.041C367.294 335.894 367.746 335.82 368.242 335.82C368.584 335.82 368.924 335.86 369.262 335.94C369.601 336.02 369.91 336.152 370.19 336.337C370.47 336.518 370.695 336.766 370.864 337.08C371.036 337.394 371.123 337.786 371.123 338.257V343.003H369.516V342.029H369.461C369.359 342.226 369.216 342.41 369.031 342.583C368.85 342.752 368.62 342.889 368.343 342.994C368.07 343.095 367.748 343.146 367.379 343.146ZM367.813 341.918C368.148 341.918 368.439 341.852 368.685 341.72C368.931 341.584 369.121 341.406 369.253 341.184C369.388 340.962 369.456 340.721 369.456 340.459V339.624C369.404 339.667 369.314 339.707 369.188 339.744C369.065 339.781 368.927 339.813 368.773 339.841C368.619 339.868 368.467 339.893 368.316 339.915C368.165 339.936 368.034 339.955 367.923 339.97C367.674 340.004 367.451 340.059 367.254 340.136C367.057 340.213 366.902 340.321 366.788 340.459C366.674 340.595 366.617 340.77 366.617 340.986C366.617 341.293 366.729 341.526 366.954 341.683C367.179 341.84 367.465 341.918 367.813 341.918ZM374.474 333.548V343.003H372.803V333.548H374.474ZM376.193 343.003V335.912H377.864V343.003H376.193ZM377.033 334.906C376.768 334.906 376.54 334.818 376.35 334.642C376.159 334.464 376.063 334.25 376.063 334.001C376.063 333.748 376.159 333.535 376.35 333.359C376.54 333.181 376.768 333.091 377.033 333.091C377.301 333.091 377.528 333.181 377.716 333.359C377.907 333.535 378.002 333.748 378.002 334.001C378.002 334.25 377.907 334.464 377.716 334.642C377.528 334.818 377.301 334.906 377.033 334.906ZM381.623 343.146C381.173 343.146 380.769 343.066 380.409 342.906C380.052 342.743 379.768 342.503 379.559 342.186C379.353 341.869 379.25 341.478 379.25 341.013C379.25 340.613 379.324 340.282 379.472 340.021C379.619 339.759 379.821 339.55 380.076 339.393C380.332 339.236 380.619 339.117 380.94 339.037C381.263 338.954 381.597 338.894 381.941 338.857C382.357 338.814 382.694 338.776 382.952 338.742C383.211 338.705 383.399 338.65 383.516 338.576C383.636 338.499 383.696 338.38 383.696 338.22V338.193C383.696 337.845 383.592 337.575 383.386 337.385C383.18 337.194 382.883 337.098 382.495 337.098C382.086 337.098 381.761 337.188 381.521 337.366C381.284 337.545 381.124 337.756 381.041 337.999L379.481 337.777C379.604 337.346 379.807 336.986 380.09 336.697C380.373 336.404 380.719 336.186 381.129 336.041C381.538 335.894 381.991 335.82 382.486 335.82C382.828 335.82 383.168 335.86 383.506 335.94C383.845 336.02 384.154 336.152 384.434 336.337C384.714 336.518 384.939 336.766 385.108 337.08C385.281 337.394 385.367 337.786 385.367 338.257V343.003H383.76V342.029H383.705C383.603 342.226 383.46 342.41 383.275 342.583C383.094 342.752 382.865 342.889 382.588 342.994C382.314 343.095 381.992 343.146 381.623 343.146ZM382.057 341.918C382.392 341.918 382.683 341.852 382.929 341.72C383.175 341.584 383.365 341.406 383.497 341.184C383.632 340.962 383.7 340.721 383.7 340.459V339.624C383.648 339.667 383.559 339.707 383.432 339.744C383.309 339.781 383.171 339.813 383.017 339.841C382.863 339.868 382.711 339.893 382.56 339.915C382.409 339.936 382.278 339.955 382.168 339.97C381.918 340.004 381.695 340.059 381.498 340.136C381.301 340.213 381.146 340.321 381.032 340.459C380.918 340.595 380.861 340.77 380.861 340.986C380.861 341.293 380.973 341.526 381.198 341.683C381.423 341.84 381.709 341.918 382.057 341.918ZM388.718 338.848V343.003H387.047V335.912H388.644V337.117H388.728C388.891 336.72 389.151 336.404 389.508 336.171C389.868 335.937 390.313 335.82 390.842 335.82C391.331 335.82 391.757 335.924 392.121 336.134C392.487 336.343 392.77 336.646 392.97 337.043C393.173 337.44 393.273 337.922 393.27 338.488V343.003H391.599V338.747C391.599 338.273 391.476 337.902 391.23 337.634C390.987 337.366 390.65 337.232 390.219 337.232C389.926 337.232 389.666 337.297 389.438 337.426C389.214 337.552 389.037 337.736 388.908 337.976C388.781 338.216 388.718 338.506 388.718 338.848Z" fill="white"/>
<path d="M415.974 335.003L408.974 342.003M408.974 335.003L415.974 342.003" stroke="white" stroke-width="2" stroke-linecap="round" stroke-linejoin="round"/>
<rect x="174.315" y="320.888" width="127.357" height="35.2299" rx="17.6149" stroke="white" stroke-opacity="0.5"/>
<g clip-path="url(#clip1_1187_379)">
<path fill-rule="evenodd" clip-rule="evenodd" d="M210.494 346.003H190.494V331.003H210.494V346.003Z" fill="white"/>
<path fill-rule="evenodd" clip-rule="evenodd" d="M210.494 346.003H190.494V338.503H210.494V346.003Z" fill="#DC143C"/>
</g>
<path d="M223.426 343.003V333.548H226.972C227.698 333.548 228.307 333.684 228.8 333.955C229.295 334.225 229.669 334.598 229.922 335.072C230.177 335.543 230.305 336.078 230.305 336.678C230.305 337.285 230.177 337.823 229.922 338.294C229.666 338.765 229.289 339.136 228.791 339.407C228.292 339.674 227.678 339.808 226.949 339.808H224.599V338.4H226.718C227.142 338.4 227.49 338.326 227.761 338.179C228.032 338.031 228.232 337.828 228.361 337.569C228.494 337.311 228.56 337.014 228.56 336.678C228.56 336.343 228.494 336.047 228.361 335.792C228.232 335.537 228.03 335.338 227.756 335.196C227.486 335.052 227.136 334.979 226.708 334.979H225.139V343.003H223.426ZM234.71 343.141C234.018 343.141 233.417 342.989 232.91 342.684C232.402 342.38 232.008 341.953 231.728 341.406C231.451 340.858 231.312 340.218 231.312 339.485C231.312 338.753 231.451 338.111 231.728 337.56C232.008 337.009 232.402 336.581 232.91 336.277C233.417 335.972 234.018 335.82 234.71 335.82C235.402 335.82 236.003 335.972 236.51 336.277C237.018 336.581 237.411 337.009 237.688 337.56C237.968 338.111 238.108 338.753 238.108 339.485C238.108 340.218 237.968 340.858 237.688 341.406C237.411 341.953 237.018 342.38 236.51 342.684C236.003 342.989 235.402 343.141 234.71 343.141ZM234.719 341.803C235.095 341.803 235.409 341.7 235.661 341.493C235.913 341.284 236.101 341.004 236.224 340.653C236.35 340.302 236.413 339.911 236.413 339.481C236.413 339.047 236.35 338.654 236.224 338.303C236.101 337.949 235.913 337.668 235.661 337.459C235.409 337.249 235.095 337.145 234.719 337.145C234.335 337.145 234.014 337.249 233.759 337.459C233.507 337.668 233.317 337.949 233.191 338.303C233.068 338.654 233.007 339.047 233.007 339.481C233.007 339.911 233.068 340.302 233.191 340.653C233.317 341.004 233.507 341.284 233.759 341.493C234.014 341.7 234.335 341.803 234.719 341.803ZM241.197 333.548V343.003H239.526V333.548H241.197ZM242.916 343.003V335.912H244.587V343.003H242.916ZM243.756 334.906C243.491 334.906 243.264 334.818 243.073 334.642C242.882 334.464 242.787 334.25 242.787 334.001C242.787 333.748 242.882 333.535 243.073 333.359C243.264 333.181 243.491 333.091 243.756 333.091C244.024 333.091 244.251 333.181 244.439 333.359C244.63 333.535 244.725 333.748 244.725 334.001C244.725 334.25 244.63 334.464 244.439 334.642C244.251 334.818 244.024 334.906 243.756 334.906ZM251.91 337.786L250.386 337.953C250.343 337.799 250.268 337.654 250.16 337.519C250.056 337.383 249.914 337.274 249.735 337.191C249.557 337.108 249.338 337.066 249.08 337.066C248.732 337.066 248.44 337.142 248.203 337.292C247.969 337.443 247.854 337.639 247.857 337.879C247.854 338.085 247.929 338.253 248.083 338.382C248.24 338.511 248.498 338.617 248.858 338.7L250.068 338.959C250.739 339.104 251.237 339.333 251.564 339.647C251.893 339.961 252.059 340.372 252.062 340.879C252.059 341.326 251.928 341.72 251.67 342.061C251.414 342.4 251.059 342.664 250.603 342.855C250.148 343.046 249.625 343.141 249.034 343.141C248.166 343.141 247.467 342.96 246.938 342.597C246.409 342.23 246.093 341.721 245.992 341.069L247.621 340.912C247.695 341.232 247.852 341.473 248.092 341.636C248.332 341.8 248.644 341.881 249.029 341.881C249.426 341.881 249.745 341.8 249.985 341.636C250.228 341.473 250.349 341.272 250.349 341.032C250.349 340.829 250.271 340.661 250.114 340.528C249.96 340.396 249.72 340.295 249.394 340.224L248.184 339.97C247.504 339.828 247.001 339.59 246.675 339.254C246.349 338.916 246.187 338.488 246.19 337.971C246.187 337.534 246.305 337.155 246.545 336.835C246.789 336.512 247.126 336.263 247.557 336.087C247.99 335.909 248.491 335.82 249.057 335.82C249.888 335.82 250.542 335.997 251.019 336.351C251.499 336.705 251.796 337.183 251.91 337.786ZM255.111 338.848V343.003H253.44V333.548H255.074V337.117H255.158C255.324 336.717 255.581 336.401 255.928 336.171C256.279 335.937 256.726 335.82 257.267 335.82C257.76 335.82 258.189 335.923 258.555 336.129C258.922 336.335 259.205 336.637 259.405 337.034C259.608 337.431 259.709 337.916 259.709 338.488V343.003H258.038V338.747C258.038 338.27 257.915 337.899 257.669 337.634C257.426 337.366 257.084 337.232 256.644 337.232C256.349 337.232 256.084 337.297 255.85 337.426C255.619 337.552 255.438 337.736 255.305 337.976C255.176 338.216 255.111 338.506 255.111 338.848Z" fill="white"/>
<path d="M285.494 335.003L278.494 342.003M278.494 335.003L285.494 342.003" stroke="white" stroke-width="2" stroke-linecap="round" stroke-linejoin="round"/>
<rect x="40.782" y="320.888" width="125.287" height="35.2299" rx="17.6149" stroke="white" stroke-opacity="0.5"/>
<g clip-path="url(#clip2_1187_379)">
<path d="M54.4255 331.836H74.4255V345.17H54.4255V331.836Z" fill="white"/>
<path d="M65.6755 331.836H63.1755V337.253H54.4255V339.753H63.1755V345.17H65.6755V339.753H74.4255V337.253H65.6755V331.836Z" fill="#D80027"/>
<path d="M69.8077 340.822L74.4255 343.387V340.822H69.8077ZM66.5994 340.822L74.4255 345.17V343.94L68.8125 340.822H66.5994ZM72.3408 345.17L66.5994 341.98V345.17H72.3408Z" fill="#0052B4"/>
<path d="M66.5994 340.822L74.4255 345.17V343.94L68.8125 340.822H66.5994Z" fill="white"/>
<path d="M66.5994 340.822L74.4255 345.17V343.94L68.8125 340.822H66.5994Z" fill="#D80027"/>
<path d="M57.9545 340.822L54.4255 342.782V340.822H57.9545ZM62.2516 341.375V345.17H55.4213L62.2516 341.375Z" fill="#0052B4"/>
<path d="M60.0385 340.822L54.4255 343.94V345.17L62.2516 340.822H60.0385Z" fill="#D80027"/>
<path d="M59.0433 336.184L54.4255 333.619V336.184H59.0433ZM62.2516 336.184L54.4255 331.836V333.066L60.0385 336.184H62.2516ZM56.5101 331.836L62.2516 335.026V331.836H56.5101Z" fill="#0052B4"/>
<path d="M62.2516 336.184L54.4255 331.836V333.066L60.0385 336.184H62.2516Z" fill="white"/>
<path d="M62.2516 336.184L54.4255 331.836V333.066L60.0385 336.184H62.2516Z" fill="#D80027"/>
<path d="M70.8965 336.184L74.4255 334.224V336.184H70.8965ZM66.5994 335.631V331.836H73.4297L66.5994 335.631Z" fill="#0052B4"/>
<path d="M68.8125 336.184L74.4255 333.066V331.836L66.5994 336.184H68.8125Z" fill="#D80027"/>
</g>
<path d="M87.3581 343.003V333.548H93.5072V334.984H89.0708V337.551H93.1887V338.987H89.0708V341.567H93.5441V343.003H87.3581ZM96.8519 338.848V343.003H95.1807V335.912H96.778V337.117H96.8611C97.0242 336.72 97.2843 336.404 97.6413 336.171C98.0014 335.937 98.4461 335.82 98.9754 335.82C99.4648 335.82 99.891 335.924 100.254 336.134C100.62 336.343 100.904 336.646 101.104 337.043C101.307 337.44 101.407 337.922 101.404 338.488V343.003H99.7325V338.747C99.7325 338.273 99.6094 337.902 99.3632 337.634C99.1201 337.366 98.7831 337.232 98.3522 337.232C98.0598 337.232 97.7998 337.297 97.572 337.426C97.3474 337.552 97.1704 337.736 97.0411 337.976C96.9149 338.216 96.8519 338.506 96.8519 338.848ZM106.186 345.81C105.586 345.81 105.071 345.728 104.64 345.565C104.209 345.405 103.863 345.19 103.601 344.919C103.34 344.648 103.158 344.348 103.056 344.019L104.561 343.654C104.629 343.792 104.728 343.929 104.857 344.065C104.986 344.203 105.16 344.317 105.378 344.406C105.6 344.499 105.879 344.545 106.214 344.545C106.688 344.545 107.08 344.429 107.391 344.199C107.702 343.971 107.858 343.595 107.858 343.072V341.729H107.774C107.688 341.901 107.562 342.078 107.396 342.26C107.233 342.441 107.016 342.594 106.745 342.717C106.477 342.84 106.14 342.901 105.734 342.901C105.189 342.901 104.695 342.774 104.252 342.518C103.812 342.26 103.461 341.875 103.2 341.364C102.941 340.85 102.812 340.207 102.812 339.434C102.812 338.656 102.941 337.999 103.2 337.463C103.461 336.925 103.813 336.517 104.257 336.24C104.7 335.96 105.194 335.82 105.739 335.82C106.154 335.82 106.496 335.89 106.763 336.032C107.034 336.171 107.25 336.338 107.41 336.535C107.57 336.729 107.691 336.912 107.774 337.085H107.867V335.912H109.515V343.118C109.515 343.725 109.37 344.226 109.081 344.623C108.792 345.02 108.396 345.317 107.894 345.514C107.393 345.711 106.823 345.81 106.186 345.81ZM106.2 341.59C106.554 341.59 106.856 341.504 107.105 341.332C107.354 341.159 107.544 340.912 107.673 340.589C107.802 340.265 107.867 339.878 107.867 339.425C107.867 338.979 107.802 338.588 107.673 338.253C107.547 337.917 107.359 337.657 107.11 337.472C106.863 337.285 106.56 337.191 106.2 337.191C105.828 337.191 105.517 337.288 105.268 337.482C105.018 337.676 104.831 337.942 104.704 338.28C104.578 338.616 104.515 338.997 104.515 339.425C104.515 339.859 104.578 340.239 104.704 340.565C104.834 340.889 105.023 341.141 105.272 341.323C105.525 341.501 105.834 341.59 106.2 341.59ZM112.899 333.548V343.003H111.228V333.548H112.899ZM114.617 343.003V335.912H116.288V343.003H114.617ZM115.457 334.906C115.193 334.906 114.965 334.818 114.774 334.642C114.583 334.464 114.488 334.25 114.488 334.001C114.488 333.748 114.583 333.535 114.774 333.359C114.965 333.181 115.193 333.091 115.457 333.091C115.725 333.091 115.953 333.181 116.141 333.359C116.331 333.535 116.427 333.748 116.427 334.001C116.427 334.25 116.331 334.464 116.141 334.642C115.953 334.818 115.725 334.906 115.457 334.906ZM123.611 337.786L122.088 337.953C122.045 337.799 121.969 337.654 121.862 337.519C121.757 337.383 121.615 337.274 121.437 337.191C121.258 337.108 121.04 337.066 120.781 337.066C120.434 337.066 120.141 337.142 119.904 337.292C119.67 337.443 119.555 337.639 119.558 337.879C119.555 338.085 119.63 338.253 119.784 338.382C119.941 338.511 120.2 338.617 120.56 338.7L121.769 338.959C122.44 339.104 122.939 339.333 123.265 339.647C123.594 339.961 123.761 340.372 123.764 340.879C123.761 341.326 123.63 341.72 123.371 342.061C123.116 342.4 122.76 342.664 122.305 342.855C121.849 343.046 121.326 343.141 120.735 343.141C119.867 343.141 119.169 342.96 118.639 342.597C118.11 342.23 117.795 341.721 117.693 341.069L119.323 340.912C119.396 341.232 119.553 341.473 119.793 341.636C120.033 341.8 120.346 341.881 120.731 341.881C121.128 341.881 121.446 341.8 121.686 341.636C121.929 341.473 122.051 341.272 122.051 341.032C122.051 340.829 121.972 340.661 121.815 340.528C121.662 340.396 121.422 340.295 121.095 340.224L119.886 339.97C119.206 339.828 118.702 339.59 118.376 339.254C118.05 338.916 117.888 338.488 117.891 337.971C117.888 337.534 118.007 337.155 118.247 336.835C118.49 336.512 118.827 336.263 119.258 336.087C119.692 335.909 120.192 335.82 120.758 335.82C121.589 335.82 122.243 335.997 122.72 336.351C123.2 336.705 123.497 337.183 123.611 337.786ZM126.813 338.848V343.003H125.142V333.548H126.776V337.117H126.859C127.025 336.717 127.282 336.401 127.63 336.171C127.981 335.937 128.427 335.82 128.969 335.82C129.461 335.82 129.89 335.923 130.257 336.129C130.623 336.335 130.906 336.637 131.106 337.034C131.309 337.431 131.411 337.916 131.411 338.488V343.003H129.74V338.747C129.74 338.27 129.617 337.899 129.37 337.634C129.127 337.366 128.786 337.232 128.345 337.232C128.05 337.232 127.785 337.297 127.551 337.426C127.321 337.552 127.139 337.736 127.007 337.976C126.877 338.216 126.813 338.506 126.813 338.848Z" fill="white"/>
<path d="M152.426 335.003L145.426 342.003M145.426 335.003L152.426 342.003" stroke="white" stroke-width="2" stroke-linecap="round" stroke-linejoin="round"/>
<rect x="31.4656" y="306.396" width="426.512" height="61.1083" rx="9.5" stroke="white" stroke-opacity="0.2"/>
<path d="M61.3583 289.737V278.1H62.7674V288.487H68.1765V289.737H61.3583ZM72.7447 289.941C72.1916 289.941 71.6897 289.837 71.239 289.629C70.7882 289.417 70.4303 289.112 70.1651 288.714C69.9 288.313 69.7674 287.828 69.7674 287.26C69.7674 286.76 69.8659 286.354 70.0629 286.044C70.2598 285.729 70.5231 285.483 70.8526 285.305C71.1822 285.127 71.5458 284.994 71.9435 284.907C72.3451 284.816 72.7485 284.744 73.1538 284.691C73.6841 284.623 74.114 284.572 74.4435 284.538C74.7769 284.5 75.0193 284.438 75.1708 284.35C75.3261 284.263 75.4038 284.112 75.4038 283.896V283.85C75.4038 283.29 75.2504 282.854 74.9435 282.544C74.6405 282.233 74.1803 282.078 73.5629 282.078C72.9227 282.078 72.4208 282.218 72.0572 282.498C71.6935 282.778 71.4379 283.078 71.2901 283.396L70.0174 282.941C70.2447 282.411 70.5477 281.998 70.9265 281.703C71.3091 281.403 71.7257 281.195 72.1765 281.078C72.631 280.957 73.078 280.896 73.5174 280.896C73.7977 280.896 74.1197 280.93 74.4833 280.998C74.8507 281.063 75.2049 281.197 75.5458 281.402C75.8905 281.606 76.1765 281.915 76.4038 282.328C76.631 282.741 76.7447 283.294 76.7447 283.987V289.737H75.4038V288.555H75.3356C75.2447 288.744 75.0932 288.947 74.881 289.163C74.6689 289.379 74.3867 289.563 74.0344 289.714C73.6822 289.866 73.2522 289.941 72.7447 289.941ZM72.9492 288.737C73.4795 288.737 73.9265 288.633 74.2901 288.424C74.6576 288.216 74.9341 287.947 75.1197 287.617C75.3091 287.288 75.4038 286.941 75.4038 286.578V285.35C75.3469 285.419 75.2219 285.481 75.0288 285.538C74.8394 285.591 74.6197 285.638 74.3697 285.68C74.1235 285.718 73.8829 285.752 73.6481 285.782C73.417 285.809 73.2295 285.832 73.0856 285.85C72.7371 285.896 72.4113 285.97 72.1083 286.072C71.8091 286.171 71.5666 286.32 71.381 286.521C71.1992 286.718 71.1083 286.987 71.1083 287.328C71.1083 287.794 71.2807 288.146 71.6254 288.385C71.9738 288.619 72.4151 288.737 72.9492 288.737ZM80.533 284.487V289.737H79.1921V281.01H80.4876V282.373H80.6012C80.8058 281.93 81.1164 281.574 81.533 281.305C81.9497 281.032 82.4876 280.896 83.1467 280.896C83.7376 280.896 84.2546 281.017 84.6978 281.26C85.141 281.498 85.4857 281.862 85.7319 282.35C85.9781 282.835 86.1012 283.449 86.1012 284.191V289.737H84.7603V284.282C84.7603 283.597 84.5823 283.063 84.2262 282.68C83.8701 282.294 83.3815 282.1 82.7603 282.1C82.3323 282.1 81.9497 282.193 81.6126 282.379C81.2792 282.564 81.016 282.835 80.8228 283.191C80.6296 283.547 80.533 283.979 80.533 284.487ZM92.0742 293.191C91.4265 293.191 90.8697 293.108 90.4038 292.941C89.9379 292.778 89.5496 292.563 89.239 292.294C88.9322 292.028 88.6879 291.744 88.506 291.441L89.5742 290.691C89.6954 290.85 89.8488 291.032 90.0344 291.237C90.2201 291.445 90.4738 291.625 90.7958 291.777C91.1216 291.932 91.5477 292.01 92.0742 292.01C92.7788 292.01 93.3602 291.839 93.8185 291.498C94.2769 291.157 94.506 290.623 94.506 289.896V288.123H94.3924C94.2939 288.282 94.1538 288.479 93.9719 288.714C93.7939 288.945 93.5363 289.152 93.1992 289.333C92.8659 289.511 92.4151 289.6 91.8469 289.6C91.1424 289.6 90.5098 289.434 89.9492 289.1C89.3924 288.767 88.9511 288.282 88.6254 287.646C88.3034 287.01 88.1424 286.237 88.1424 285.328C88.1424 284.434 88.2996 283.655 88.614 282.992C88.9284 282.326 89.3659 281.811 89.9265 281.447C90.4871 281.08 91.1348 280.896 91.8697 280.896C92.4379 280.896 92.8886 280.991 93.2219 281.18C93.5591 281.366 93.8166 281.578 93.9947 281.816C94.1765 282.051 94.3166 282.244 94.4151 282.396H94.5515V281.01H95.8469V289.987C95.8469 290.737 95.6765 291.347 95.3356 291.816C94.9985 292.29 94.5439 292.636 93.9719 292.856C93.4038 293.08 92.7712 293.191 92.0742 293.191ZM92.0288 288.396C92.5666 288.396 93.0212 288.273 93.3924 288.027C93.7636 287.78 94.0458 287.426 94.239 286.964C94.4322 286.502 94.5288 285.949 94.5288 285.305C94.5288 284.676 94.4341 284.121 94.2447 283.64C94.0553 283.159 93.775 282.782 93.4038 282.51C93.0326 282.237 92.5742 282.1 92.0288 282.1C91.4606 282.1 90.9871 282.244 90.6083 282.532C90.2333 282.82 89.9511 283.207 89.7617 283.691C89.5761 284.176 89.4833 284.714 89.4833 285.305C89.4833 285.911 89.578 286.447 89.7674 286.913C89.9606 287.375 90.2447 287.739 90.6197 288.004C90.9985 288.265 91.4682 288.396 92.0288 288.396ZM103.801 286.169V281.01H105.142V289.737H103.801V288.26H103.711C103.506 288.703 103.188 289.08 102.756 289.39C102.324 289.697 101.779 289.85 101.12 289.85C100.574 289.85 100.089 289.731 99.6651 289.492C99.2409 289.25 98.9076 288.886 98.6651 288.402C98.4227 287.913 98.3015 287.297 98.3015 286.555V281.01H99.6424V286.464C99.6424 287.1 99.8204 287.608 100.176 287.987C100.536 288.366 100.995 288.555 101.551 288.555C101.885 288.555 102.224 288.47 102.569 288.299C102.917 288.129 103.209 287.867 103.444 287.515C103.682 287.163 103.801 286.714 103.801 286.169ZM110.167 289.941C109.614 289.941 109.112 289.837 108.661 289.629C108.21 289.417 107.852 289.112 107.587 288.714C107.322 288.313 107.189 287.828 107.189 287.26C107.189 286.76 107.288 286.354 107.485 286.044C107.682 285.729 107.945 285.483 108.275 285.305C108.604 285.127 108.968 284.994 109.365 284.907C109.767 284.816 110.17 284.744 110.576 284.691C111.106 284.623 111.536 284.572 111.865 284.538C112.199 284.5 112.441 284.438 112.593 284.35C112.748 284.263 112.826 284.112 112.826 283.896V283.85C112.826 283.29 112.672 282.854 112.365 282.544C112.062 282.233 111.602 282.078 110.985 282.078C110.345 282.078 109.843 282.218 109.479 282.498C109.115 282.778 108.86 283.078 108.712 283.396L107.439 282.941C107.667 282.411 107.97 281.998 108.348 281.703C108.731 281.403 109.148 281.195 109.598 281.078C110.053 280.957 110.5 280.896 110.939 280.896C111.22 280.896 111.542 280.93 111.905 280.998C112.273 281.063 112.627 281.197 112.968 281.402C113.312 281.606 113.598 281.915 113.826 282.328C114.053 282.741 114.167 283.294 114.167 283.987V289.737H112.826V288.555H112.757C112.667 288.744 112.515 288.947 112.303 289.163C112.091 289.379 111.809 289.563 111.456 289.714C111.104 289.866 110.674 289.941 110.167 289.941ZM110.371 288.737C110.901 288.737 111.348 288.633 111.712 288.424C112.079 288.216 112.356 287.947 112.542 287.617C112.731 287.288 112.826 286.941 112.826 286.578V285.35C112.769 285.419 112.644 285.481 112.451 285.538C112.261 285.591 112.042 285.638 111.792 285.68C111.545 285.718 111.305 285.752 111.07 285.782C110.839 285.809 110.651 285.832 110.507 285.85C110.159 285.896 109.833 285.97 109.53 286.072C109.231 286.171 108.989 286.32 108.803 286.521C108.621 286.718 108.53 286.987 108.53 287.328C108.53 287.794 108.703 288.146 109.047 288.385C109.396 288.619 109.837 288.737 110.371 288.737ZM120.137 293.191C119.489 293.191 118.932 293.108 118.466 292.941C118 292.778 117.612 292.563 117.301 292.294C116.995 292.028 116.75 291.744 116.569 291.441L117.637 290.691C117.758 290.85 117.911 291.032 118.097 291.237C118.283 291.445 118.536 291.625 118.858 291.777C119.184 291.932 119.61 292.01 120.137 292.01C120.841 292.01 121.423 291.839 121.881 291.498C122.339 291.157 122.569 290.623 122.569 289.896V288.123H122.455C122.356 288.282 122.216 288.479 122.034 288.714C121.856 288.945 121.599 289.152 121.262 289.333C120.928 289.511 120.478 289.6 119.909 289.6C119.205 289.6 118.572 289.434 118.012 289.1C117.455 288.767 117.014 288.282 116.688 287.646C116.366 287.01 116.205 286.237 116.205 285.328C116.205 284.434 116.362 283.655 116.676 282.992C116.991 282.326 117.428 281.811 117.989 281.447C118.55 281.08 119.197 280.896 119.932 280.896C120.5 280.896 120.951 280.991 121.284 281.18C121.622 281.366 121.879 281.578 122.057 281.816C122.239 282.051 122.379 282.244 122.478 282.396H122.614V281.01H123.909V289.987C123.909 290.737 123.739 291.347 123.398 291.816C123.061 292.29 122.606 292.636 122.034 292.856C121.466 293.08 120.834 293.191 120.137 293.191ZM120.091 288.396C120.629 288.396 121.084 288.273 121.455 288.027C121.826 287.78 122.108 287.426 122.301 286.964C122.495 286.502 122.591 285.949 122.591 285.305C122.591 284.676 122.497 284.121 122.307 283.64C122.118 283.159 121.837 282.782 121.466 282.51C121.095 282.237 120.637 282.1 120.091 282.1C119.523 282.1 119.05 282.244 118.671 282.532C118.296 282.82 118.014 283.207 117.824 283.691C117.639 284.176 117.546 284.714 117.546 285.305C117.546 285.911 117.641 286.447 117.83 286.913C118.023 287.375 118.307 287.739 118.682 288.004C119.061 288.265 119.531 288.396 120.091 288.396ZM130.023 289.919C129.182 289.919 128.457 289.733 127.847 289.362C127.241 288.987 126.773 288.464 126.444 287.794C126.118 287.119 125.955 286.335 125.955 285.441C125.955 284.547 126.118 283.76 126.444 283.078C126.773 282.392 127.231 281.858 127.819 281.475C128.409 281.089 129.099 280.896 129.887 280.896C130.341 280.896 130.79 280.972 131.233 281.123C131.676 281.275 132.08 281.521 132.444 281.862C132.807 282.199 133.097 282.646 133.313 283.203C133.529 283.76 133.637 284.445 133.637 285.26V285.828H126.909V284.669H132.273C132.273 284.176 132.175 283.737 131.978 283.35C131.784 282.964 131.508 282.659 131.148 282.436C130.792 282.212 130.372 282.1 129.887 282.1C129.353 282.1 128.891 282.233 128.5 282.498C128.114 282.76 127.817 283.1 127.608 283.521C127.4 283.941 127.296 284.392 127.296 284.873V285.646C127.296 286.305 127.409 286.864 127.637 287.322C127.868 287.777 128.188 288.123 128.597 288.362C129.006 288.597 129.481 288.714 130.023 288.714C130.375 288.714 130.694 288.665 130.978 288.566C131.266 288.464 131.514 288.313 131.722 288.112C131.93 287.907 132.091 287.653 132.205 287.35L133.5 287.714C133.364 288.153 133.135 288.54 132.813 288.873C132.491 289.203 132.093 289.46 131.62 289.646C131.146 289.828 130.614 289.919 130.023 289.919ZM141.858 282.964L140.654 283.305C140.578 283.104 140.466 282.909 140.319 282.72C140.175 282.527 139.978 282.367 139.728 282.242C139.478 282.117 139.158 282.055 138.767 282.055C138.233 282.055 137.788 282.178 137.432 282.424C137.08 282.667 136.904 282.975 136.904 283.35C136.904 283.684 137.025 283.947 137.267 284.14C137.51 284.333 137.889 284.494 138.404 284.623L139.699 284.941C140.48 285.131 141.061 285.421 141.444 285.811C141.826 286.197 142.017 286.695 142.017 287.305C142.017 287.805 141.873 288.252 141.586 288.646C141.301 289.04 140.904 289.35 140.392 289.578C139.881 289.805 139.286 289.919 138.608 289.919C137.718 289.919 136.981 289.725 136.398 289.339C135.815 288.953 135.445 288.388 135.29 287.646L136.563 287.328C136.684 287.797 136.913 288.15 137.25 288.385C137.591 288.619 138.036 288.737 138.586 288.737C139.211 288.737 139.707 288.604 140.074 288.339C140.445 288.07 140.631 287.748 140.631 287.373C140.631 287.07 140.525 286.816 140.313 286.612C140.101 286.403 139.775 286.248 139.336 286.146L137.881 285.805C137.082 285.616 136.495 285.322 136.12 284.924C135.748 284.523 135.563 284.021 135.563 283.419C135.563 282.926 135.701 282.491 135.978 282.112C136.258 281.733 136.639 281.436 137.12 281.22C137.605 281.004 138.154 280.896 138.767 280.896C139.631 280.896 140.309 281.085 140.801 281.464C141.298 281.843 141.65 282.343 141.858 282.964Z" fill="#909090"/>
<path d="M34.5886 291.469V277.883C34.5886 277.282 34.8272 276.706 35.2518 276.281C35.6765 275.857 36.2524 275.618 36.853 275.618H48.1748C48.415 275.618 48.6454 275.714 48.8153 275.883C48.9851 276.053 49.0806 276.284 49.0806 276.524V292.827C49.0806 293.068 48.9851 293.298 48.8153 293.468C48.6454 293.638 48.415 293.733 48.1748 293.733H36.853C36.2524 293.733 35.6765 293.495 35.2518 293.07C34.8272 292.645 34.5886 292.069 34.5886 291.469ZM34.5886 291.469C34.5886 290.868 34.8272 290.292 35.2518 289.868C35.6765 289.443 36.2524 289.204 36.853 289.204H49.0806" stroke="#909090" stroke-width="1.5" stroke-linecap="round" stroke-linejoin="round"/>
<path d="M38.2117 285.581L41.8347 279.241L45.4576 285.581" stroke="#909090" stroke-width="1.5" stroke-linecap="round" stroke-linejoin="round"/>
<path d="M39.2078 283.77H44.3705" stroke="#909090" stroke-width="1.5" stroke-linecap="round" stroke-linejoin="round"/>
<rect x="323.375" y="198.743" width="120.111" height="35.2299" rx="17.6149" stroke="white" stroke-opacity="0.5"/>
<g clip-path="url(#clip3_1187_379)">
<path fill-rule="evenodd" clip-rule="evenodd" d="M335.43 209.357H353.43V223.357H335.43V209.357Z" fill="white"/>
<path fill-rule="evenodd" clip-rule="evenodd" d="M335.43 209.357H353.43V214.957H335.43V209.357ZM335.43 217.757H353.43V223.357H335.43V217.757Z" fill="#981E32"/>
</g>
<path d="M366.363 220.857V211.403H368.076V219.422H372.24V220.857H366.363ZM375.693 221.001C375.244 221.001 374.839 220.921 374.479 220.76C374.122 220.597 373.839 220.357 373.629 220.04C373.423 219.723 373.32 219.332 373.32 218.868C373.32 218.468 373.394 218.137 373.542 217.875C373.689 217.614 373.891 217.404 374.146 217.247C374.402 217.09 374.69 216.972 375.01 216.892C375.333 216.809 375.667 216.749 376.011 216.712C376.427 216.669 376.764 216.63 377.022 216.596C377.281 216.559 377.469 216.504 377.586 216.43C377.706 216.353 377.766 216.235 377.766 216.075V216.047C377.766 215.699 377.663 215.43 377.456 215.239C377.25 215.048 376.953 214.953 376.565 214.953C376.156 214.953 375.831 215.042 375.591 215.221C375.354 215.399 375.194 215.61 375.111 215.853L373.551 215.632C373.674 215.201 373.877 214.841 374.16 214.551C374.443 214.259 374.79 214.04 375.199 213.896C375.608 213.748 376.061 213.674 376.556 213.674C376.898 213.674 377.238 213.714 377.576 213.794C377.915 213.874 378.224 214.007 378.504 214.191C378.784 214.373 379.009 214.621 379.178 214.934C379.351 215.248 379.437 215.641 379.437 216.112V220.857H377.83V219.883H377.775C377.673 220.08 377.53 220.265 377.346 220.437C377.164 220.607 376.935 220.744 376.658 220.848C376.384 220.95 376.062 221.001 375.693 221.001ZM376.127 219.773C376.462 219.773 376.753 219.706 376.999 219.574C377.246 219.439 377.435 219.26 377.567 219.039C377.703 218.817 377.77 218.575 377.77 218.314V217.478C377.718 217.521 377.629 217.561 377.503 217.598C377.379 217.635 377.241 217.667 377.087 217.695C376.933 217.723 376.781 217.747 376.63 217.769C376.479 217.791 376.348 217.809 376.238 217.824C375.988 217.858 375.765 217.914 375.568 217.991C375.371 218.068 375.216 218.175 375.102 218.314C374.988 218.449 374.931 218.625 374.931 218.84C374.931 219.148 375.043 219.38 375.268 219.537C375.493 219.694 375.779 219.773 376.127 219.773ZM384.658 213.767V215.059H380.582V213.767H384.658ZM381.588 212.068H383.259V218.725C383.259 218.949 383.293 219.122 383.361 219.242C383.432 219.359 383.524 219.439 383.638 219.482C383.752 219.525 383.878 219.546 384.016 219.546C384.121 219.546 384.216 219.539 384.303 219.523C384.392 219.508 384.46 219.494 384.506 219.482L384.787 220.788C384.698 220.819 384.57 220.853 384.404 220.89C384.241 220.927 384.041 220.948 383.804 220.954C383.385 220.967 383.008 220.904 382.673 220.765C382.337 220.624 382.071 220.405 381.874 220.11C381.68 219.814 381.585 219.445 381.588 219.002V212.068ZM392.389 213.767L389.864 220.857H388.018L385.492 213.767H387.274L388.904 219.034H388.978L390.612 213.767H392.389ZM393.546 220.857V213.767H395.217V220.857H393.546ZM394.386 212.76C394.121 212.76 393.894 212.672 393.703 212.497C393.512 212.318 393.417 212.105 393.417 211.855C393.417 211.603 393.512 211.389 393.703 211.214C393.894 211.035 394.121 210.946 394.386 210.946C394.654 210.946 394.882 211.035 395.069 211.214C395.26 211.389 395.356 211.603 395.356 211.855C395.356 212.105 395.26 212.318 395.069 212.497C394.882 212.672 394.654 212.76 394.386 212.76ZM398.976 221.001C398.527 221.001 398.122 220.921 397.762 220.76C397.405 220.597 397.122 220.357 396.912 220.04C396.706 219.723 396.603 219.332 396.603 218.868C396.603 218.468 396.677 218.137 396.825 217.875C396.973 217.614 397.174 217.404 397.43 217.247C397.685 217.09 397.973 216.972 398.293 216.892C398.616 216.809 398.95 216.749 399.295 216.712C399.71 216.669 400.047 216.63 400.306 216.596C400.564 216.559 400.752 216.504 400.869 216.43C400.989 216.353 401.049 216.235 401.049 216.075V216.047C401.049 215.699 400.946 215.43 400.74 215.239C400.533 215.048 400.236 214.953 399.849 214.953C399.439 214.953 399.115 215.042 398.874 215.221C398.638 215.399 398.477 215.61 398.394 215.853L396.834 215.632C396.957 215.201 397.16 214.841 397.443 214.551C397.727 214.259 398.073 214.04 398.482 213.896C398.891 213.748 399.344 213.674 399.839 213.674C400.181 213.674 400.521 213.714 400.86 213.794C401.198 213.874 401.507 214.007 401.787 214.191C402.068 214.373 402.292 214.621 402.461 214.934C402.634 215.248 402.72 215.641 402.72 216.112V220.857H401.113V219.883H401.058C400.957 220.08 400.813 220.265 400.629 220.437C400.447 220.607 400.218 220.744 399.941 220.848C399.667 220.95 399.345 221.001 398.976 221.001ZM399.41 219.773C399.745 219.773 400.036 219.706 400.283 219.574C400.529 219.439 400.718 219.26 400.85 219.039C400.986 218.817 401.053 218.575 401.053 218.314V217.478C401.001 217.521 400.912 217.561 400.786 217.598C400.663 217.635 400.524 217.667 400.37 217.695C400.216 217.723 400.064 217.747 399.913 217.769C399.762 217.791 399.632 217.809 399.521 217.824C399.272 217.858 399.048 217.914 398.851 217.991C398.654 218.068 398.499 218.175 398.385 218.314C398.271 218.449 398.214 218.625 398.214 218.84C398.214 219.148 398.327 219.38 398.551 219.537C398.776 219.694 399.062 219.773 399.41 219.773ZM406.072 216.703V220.857H404.4V213.767H405.998V214.971H406.081C406.244 214.574 406.504 214.259 406.861 214.025C407.221 213.791 407.666 213.674 408.195 213.674C408.685 213.674 409.111 213.779 409.474 213.988C409.84 214.197 410.123 214.501 410.323 214.898C410.526 215.295 410.627 215.776 410.623 216.343V220.857H408.952V216.601C408.952 216.127 408.829 215.756 408.583 215.488C408.34 215.221 408.003 215.087 407.572 215.087C407.28 215.087 407.019 215.151 406.792 215.281C406.567 215.407 406.39 215.59 406.261 215.83C406.135 216.07 406.072 216.361 406.072 216.703Z" fill="white"/>
<path d="M431.43 212.857L424.43 219.857M424.43 212.857L431.43 219.857" stroke="white" stroke-width="2" stroke-linecap="round" stroke-linejoin="round"/>
<rect x="177.42" y="198.743" width="136.673" height="35.2299" rx="17.6149" stroke="white" stroke-opacity="0.5"/>
<g clip-path="url(#clip4_1187_379)">
<path d="M192.757 209.357H211.757V214.024H192.757V209.357Z" fill="#00732F"/>
<path d="M192.757 214.024H211.757V218.691H192.757V214.024Z" fill="white"/>
<path d="M192.757 218.691H211.757V223.358H192.757V218.691Z" fill="#000001"/>
<path d="M192.757 209.357H199.288V223.357H192.757V209.357Z" fill="#FF0000"/>
</g>
<path d="M224.689 220.857V211.403H230.839V212.839H226.402V215.405H230.52V216.841H226.402V219.422H230.875V220.857H224.689ZM232.512 220.857V213.767H234.109V214.971H234.192C234.34 214.565 234.585 214.248 234.926 214.02C235.268 213.79 235.676 213.674 236.15 213.674C236.63 213.674 237.035 213.791 237.364 214.025C237.696 214.256 237.93 214.571 238.066 214.971H238.139C238.296 214.577 238.561 214.264 238.934 214.03C239.309 213.793 239.754 213.674 240.268 213.674C240.92 213.674 241.453 213.88 241.865 214.293C242.277 214.705 242.484 215.307 242.484 216.098V220.857H240.808V216.356C240.808 215.916 240.691 215.595 240.457 215.392C240.223 215.185 239.937 215.082 239.598 215.082C239.195 215.082 238.88 215.208 238.652 215.461C238.427 215.71 238.315 216.035 238.315 216.435V220.857H236.676V216.287C236.676 215.921 236.565 215.628 236.344 215.41C236.125 215.191 235.839 215.082 235.485 215.082C235.245 215.082 235.026 215.144 234.829 215.267C234.632 215.387 234.476 215.558 234.359 215.779C234.242 215.998 234.183 216.253 234.183 216.546V220.857H232.512ZM244.179 220.857V213.767H245.85V220.857H244.179ZM245.019 212.76C244.754 212.76 244.527 212.672 244.336 212.497C244.145 212.318 244.05 212.105 244.05 211.855C244.05 211.603 244.145 211.389 244.336 211.214C244.527 211.035 244.754 210.946 245.019 210.946C245.287 210.946 245.515 211.035 245.702 211.214C245.893 211.389 245.989 211.603 245.989 211.855C245.989 212.105 245.893 212.318 245.702 212.497C245.515 212.672 245.287 212.76 245.019 212.76ZM247.569 220.857V213.767H249.189V214.948H249.263C249.392 214.539 249.614 214.224 249.928 214.002C250.245 213.777 250.606 213.665 251.013 213.665C251.105 213.665 251.208 213.67 251.322 213.679C251.439 213.685 251.536 213.696 251.613 213.711V215.248C251.542 215.224 251.43 215.202 251.276 215.184C251.125 215.162 250.979 215.151 250.837 215.151C250.532 215.151 250.258 215.218 250.015 215.35C249.775 215.479 249.586 215.659 249.448 215.89C249.309 216.121 249.24 216.387 249.24 216.689V220.857H247.569ZM254.636 221.001C254.187 221.001 253.782 220.921 253.422 220.76C253.065 220.597 252.782 220.357 252.573 220.04C252.367 219.723 252.264 219.332 252.264 218.868C252.264 218.468 252.337 218.137 252.485 217.875C252.633 217.614 252.834 217.404 253.09 217.247C253.345 217.09 253.633 216.972 253.953 216.892C254.276 216.809 254.61 216.749 254.955 216.712C255.37 216.669 255.707 216.63 255.966 216.596C256.225 216.559 256.412 216.504 256.529 216.43C256.649 216.353 256.709 216.235 256.709 216.075V216.047C256.709 215.699 256.606 215.43 256.4 215.239C256.194 215.048 255.897 214.953 255.509 214.953C255.1 214.953 254.775 215.042 254.535 215.221C254.298 215.399 254.138 215.61 254.055 215.853L252.494 215.632C252.618 215.201 252.821 214.841 253.104 214.551C253.387 214.259 253.733 214.04 254.142 213.896C254.552 213.748 255.004 213.674 255.5 213.674C255.841 213.674 256.181 213.714 256.52 213.794C256.859 213.874 257.168 214.007 257.448 214.191C257.728 214.373 257.953 214.621 258.122 214.934C258.294 215.248 258.38 215.641 258.38 216.112V220.857H256.774V219.883H256.718C256.617 220.08 256.474 220.265 256.289 220.437C256.108 220.607 255.878 220.744 255.601 220.848C255.327 220.95 255.006 221.001 254.636 221.001ZM255.07 219.773C255.406 219.773 255.697 219.706 255.943 219.574C256.189 219.439 256.378 219.26 256.511 219.039C256.646 218.817 256.714 218.575 256.714 218.314V217.478C256.662 217.521 256.572 217.561 256.446 217.598C256.323 217.635 256.185 217.667 256.031 217.695C255.877 217.723 255.724 217.747 255.574 217.769C255.423 217.791 255.292 217.809 255.181 217.824C254.932 217.858 254.709 217.914 254.512 217.991C254.315 218.068 254.159 218.175 254.046 218.314C253.932 218.449 253.875 218.625 253.875 218.84C253.875 219.148 253.987 219.38 254.212 219.537C254.436 219.694 254.723 219.773 255.07 219.773ZM263.602 213.767V215.059H259.525V213.767H263.602ZM260.532 212.068H262.203V218.725C262.203 218.949 262.237 219.122 262.304 219.242C262.375 219.359 262.468 219.439 262.581 219.482C262.695 219.525 262.821 219.546 262.96 219.546C263.065 219.546 263.16 219.539 263.246 219.523C263.335 219.508 263.403 219.494 263.449 219.482L263.731 220.788C263.642 220.819 263.514 220.853 263.348 220.89C263.185 220.927 262.985 220.948 262.748 220.954C262.329 220.967 261.952 220.904 261.617 220.765C261.281 220.624 261.015 220.405 260.818 220.11C260.624 219.814 260.529 219.445 260.532 219.002V212.068ZM264.999 220.857V213.767H266.67V220.857H264.999ZM265.839 212.76C265.575 212.76 265.347 212.672 265.156 212.497C264.965 212.318 264.87 212.105 264.87 211.855C264.87 211.603 264.965 211.389 265.156 211.214C265.347 211.035 265.575 210.946 265.839 210.946C266.107 210.946 266.335 211.035 266.523 211.214C266.714 211.389 266.809 211.603 266.809 211.855C266.809 212.105 266.714 212.318 266.523 212.497C266.335 212.672 266.107 212.76 265.839 212.76Z" fill="white"/>
<path d="M298.757 212.857L291.757 219.857M291.757 212.857L298.757 219.857" stroke="white" stroke-width="2" stroke-linecap="round" stroke-linejoin="round"/>
<rect x="40.782" y="198.743" width="127.357" height="35.2299" rx="17.6149" stroke="white" stroke-opacity="0.5"/>
<g clip-path="url(#clip5_1187_379)">
<path fill-rule="evenodd" clip-rule="evenodd" d="M55.9607 208.857H75.9607V223.857H55.9607V208.857Z" fill="#FF0000"/>
<path fill-rule="evenodd" clip-rule="evenodd" d="M61.2732 214.951H70.6482V217.764H61.2732V214.951Z" fill="white"/>
<path fill-rule="evenodd" clip-rule="evenodd" d="M64.5544 211.67H67.3669V221.045H64.5544V211.67Z" fill="white"/>
</g>
<path d="M94.0314 214.002C93.9883 213.599 93.8067 213.285 93.4866 213.06C93.1696 212.836 92.7572 212.723 92.2494 212.723C91.8924 212.723 91.5862 212.777 91.3307 212.885C91.0753 212.992 90.8798 213.139 90.7444 213.323C90.609 213.508 90.5398 213.719 90.5367 213.956C90.5367 214.153 90.5813 214.324 90.6706 214.468C90.7629 214.613 90.8875 214.736 91.0445 214.838C91.2015 214.936 91.3753 215.019 91.5662 215.087C91.757 215.155 91.9493 215.211 92.1432 215.258L93.0296 215.479C93.3866 215.562 93.7298 215.675 94.0591 215.816C94.3914 215.958 94.6884 216.136 94.95 216.352C95.2147 216.567 95.424 216.827 95.5779 217.132C95.7318 217.437 95.8087 217.794 95.8087 218.203C95.8087 218.757 95.6671 219.245 95.384 219.666C95.1008 220.085 94.6915 220.413 94.156 220.65C93.6236 220.884 92.9788 221.001 92.2217 221.001C91.4861 221.001 90.8475 220.887 90.3059 220.659C89.7673 220.431 89.3456 220.099 89.0409 219.662C88.7393 219.225 88.5762 218.692 88.5516 218.064H90.2366C90.2612 218.394 90.3628 218.668 90.5413 218.886C90.7198 219.105 90.9522 219.268 91.2384 219.376C91.5277 219.483 91.8508 219.537 92.2079 219.537C92.5802 219.537 92.9065 219.482 93.1865 219.371C93.4697 219.257 93.6913 219.1 93.8513 218.9C94.0114 218.697 94.0929 218.46 94.096 218.189C94.0929 217.943 94.0206 217.74 93.879 217.58C93.7374 217.417 93.5389 217.281 93.2835 217.173C93.0311 217.063 92.7357 216.964 92.3971 216.878L91.3215 216.601C90.5428 216.401 89.9273 216.098 89.4749 215.692C89.0256 215.282 88.8009 214.739 88.8009 214.062C88.8009 213.505 88.9517 213.017 89.2533 212.599C89.558 212.18 89.9719 211.855 90.4951 211.624C91.0183 211.391 91.6108 211.274 92.2725 211.274C92.9434 211.274 93.5312 211.391 94.036 211.624C94.5438 211.855 94.9423 212.177 95.2316 212.589C95.5209 212.999 95.6702 213.47 95.6794 214.002H94.0314ZM98.7252 220.857L96.7216 213.767H98.4251L99.6715 218.752H99.7362L101.01 213.767H102.695L103.969 218.725H104.039L105.267 213.767H106.975L104.967 220.857H103.226L101.897 216.066H101.8L100.47 220.857H98.7252ZM108.142 220.857V213.767H109.813V220.857H108.142ZM108.982 212.76C108.717 212.76 108.489 212.672 108.299 212.497C108.108 212.318 108.012 212.105 108.012 211.855C108.012 211.603 108.108 211.389 108.299 211.214C108.489 211.035 108.717 210.946 108.982 210.946C109.25 210.946 109.477 211.035 109.665 211.214C109.856 211.389 109.951 211.603 109.951 211.855C109.951 212.105 109.856 212.318 109.665 212.497C109.477 212.672 109.25 212.76 108.982 212.76ZM117.136 215.641L115.612 215.807C115.569 215.653 115.494 215.508 115.386 215.373C115.281 215.238 115.14 215.128 114.961 215.045C114.783 214.962 114.564 214.921 114.306 214.921C113.958 214.921 113.666 214.996 113.429 215.147C113.195 215.298 113.079 215.493 113.082 215.733C113.079 215.939 113.155 216.107 113.309 216.236C113.466 216.366 113.724 216.472 114.084 216.555L115.294 216.813C115.965 216.958 116.463 217.187 116.789 217.501C117.119 217.815 117.285 218.226 117.288 218.734C117.285 219.18 117.154 219.574 116.896 219.916C116.64 220.254 116.285 220.519 115.829 220.71C115.374 220.901 114.851 220.996 114.26 220.996C113.392 220.996 112.693 220.814 112.164 220.451C111.634 220.085 111.319 219.576 111.217 218.923L112.847 218.766C112.921 219.086 113.078 219.328 113.318 219.491C113.558 219.654 113.87 219.736 114.255 219.736C114.652 219.736 114.971 219.654 115.211 219.491C115.454 219.328 115.575 219.126 115.575 218.886C115.575 218.683 115.497 218.515 115.34 218.383C115.186 218.251 114.946 218.149 114.62 218.078L113.41 217.824C112.73 217.683 112.227 217.444 111.901 217.109C111.574 216.77 111.413 216.343 111.416 215.825C111.413 215.388 111.531 215.01 111.771 214.69C112.014 214.367 112.351 214.117 112.782 213.942C113.216 213.763 113.716 213.674 114.283 213.674C115.114 213.674 115.768 213.851 116.245 214.205C116.725 214.559 117.022 215.038 117.136 215.641ZM124.27 215.641L122.747 215.807C122.704 215.653 122.629 215.508 122.521 215.373C122.416 215.238 122.275 215.128 122.096 215.045C121.918 214.962 121.699 214.921 121.441 214.921C121.093 214.921 120.8 214.996 120.563 215.147C120.33 215.298 120.214 215.493 120.217 215.733C120.214 215.939 120.289 216.107 120.443 216.236C120.6 216.366 120.859 216.472 121.219 216.555L122.428 216.813C123.099 216.958 123.598 217.187 123.924 217.501C124.254 217.815 124.42 218.226 124.423 218.734C124.42 219.18 124.289 219.574 124.03 219.916C123.775 220.254 123.419 220.519 122.964 220.71C122.508 220.901 121.985 220.996 121.394 220.996C120.526 220.996 119.828 220.814 119.298 220.451C118.769 220.085 118.454 219.576 118.352 218.923L119.982 218.766C120.056 219.086 120.213 219.328 120.453 219.491C120.693 219.654 121.005 219.736 121.39 219.736C121.787 219.736 122.105 219.654 122.345 219.491C122.589 219.328 122.71 219.126 122.71 218.886C122.71 218.683 122.632 218.515 122.475 218.383C122.321 218.251 122.081 218.149 121.754 218.078L120.545 217.824C119.865 217.683 119.362 217.444 119.035 217.109C118.709 216.77 118.548 216.343 118.551 215.825C118.548 215.388 118.666 215.01 118.906 214.69C119.149 214.367 119.486 214.117 119.917 213.942C120.351 213.763 120.851 213.674 121.417 213.674C122.248 213.674 122.902 213.851 123.379 214.205C123.86 214.559 124.157 215.038 124.27 215.641Z" fill="white"/>
<path d="M152.961 212.857L145.961 219.857M145.961 212.857L152.961 219.857" stroke="white" stroke-width="2" stroke-linecap="round" stroke-linejoin="round"/>
<rect x="31.4656" y="185.286" width="426.512" height="61.1083" rx="9.5" stroke="white" stroke-opacity="0.2"/>
<path d="M70.5856 158.025V169.661H69.2219L62.881 160.525H62.7674V169.661H61.3583V158.025H62.7219L69.0856 167.184H69.1992V158.025H70.5856ZM75.7915 169.866C75.2385 169.866 74.7366 169.762 74.2859 169.553C73.8351 169.341 73.4772 169.036 73.212 168.638C72.9469 168.237 72.8143 167.752 72.8143 167.184C72.8143 166.684 72.9128 166.279 73.1097 165.968C73.3067 165.654 73.57 165.407 73.8995 165.229C74.229 165.051 74.5927 164.919 74.9904 164.832C75.3919 164.741 75.7953 164.669 76.2006 164.616C76.7309 164.547 77.1609 164.496 77.4904 164.462C77.8237 164.424 78.0662 164.362 78.2177 164.275C78.373 164.188 78.4506 164.036 78.4506 163.82V163.775C78.4506 163.214 78.2972 162.779 77.9904 162.468C77.6874 162.157 77.2272 162.002 76.6097 162.002C75.9696 162.002 75.4677 162.142 75.104 162.422C74.7404 162.703 74.4847 163.002 74.337 163.32L73.0643 162.866C73.2915 162.335 73.5946 161.922 73.9734 161.627C74.3559 161.328 74.7726 161.119 75.2234 161.002C75.6779 160.881 76.1249 160.82 76.5643 160.82C76.8446 160.82 77.1665 160.854 77.5302 160.922C77.8976 160.987 78.2518 161.121 78.5927 161.326C78.9374 161.53 79.2234 161.839 79.4506 162.252C79.6779 162.665 79.7915 163.218 79.7915 163.911V169.661H78.4506V168.479H78.3825C78.2915 168.669 78.14 168.871 77.9279 169.087C77.7158 169.303 77.4336 169.487 77.0813 169.638C76.729 169.79 76.2991 169.866 75.7915 169.866ZM75.9961 168.661C76.5264 168.661 76.9734 168.557 77.337 168.349C77.7044 168.14 77.9809 167.871 78.1665 167.542C78.3559 167.212 78.4506 166.866 78.4506 166.502V165.275C78.3938 165.343 78.2688 165.405 78.0756 165.462C77.8862 165.515 77.6665 165.563 77.4165 165.604C77.1703 165.642 76.9298 165.676 76.695 165.707C76.4639 165.733 76.2764 165.756 76.1325 165.775C75.784 165.82 75.4582 165.894 75.1552 165.996C74.8559 166.095 74.6135 166.244 74.4279 166.445C74.2461 166.642 74.1552 166.911 74.1552 167.252C74.1552 167.718 74.3275 168.07 74.6722 168.309C75.0207 168.544 75.462 168.661 75.9961 168.661ZM86.0344 160.934V162.07H81.5117V160.934H86.0344ZM82.8299 158.843H84.1708V167.161C84.1708 167.54 84.2257 167.824 84.3356 168.013C84.4492 168.199 84.5932 168.324 84.7674 168.388C84.9454 168.449 85.1329 168.479 85.3299 168.479C85.4776 168.479 85.5988 168.472 85.6935 168.457C85.7882 168.438 85.864 168.422 85.9208 168.411L86.1935 169.616C86.1026 169.65 85.9757 169.684 85.8129 169.718C85.65 169.756 85.4435 169.775 85.1935 169.775C84.8147 169.775 84.4435 169.693 84.0799 169.53C83.7201 169.368 83.4208 169.119 83.1822 168.786C82.9473 168.453 82.8299 168.032 82.8299 167.525V158.843ZM88.0515 169.661V160.934H89.3924V169.661H88.0515ZM88.7333 159.479C88.4719 159.479 88.2466 159.39 88.0572 159.212C87.8716 159.034 87.7788 158.82 87.7788 158.57C87.7788 158.32 87.8716 158.106 88.0572 157.928C88.2466 157.75 88.4719 157.661 88.7333 157.661C88.9947 157.661 89.2182 157.75 89.4038 157.928C89.5932 158.106 89.6879 158.32 89.6879 158.57C89.6879 158.82 89.5932 159.034 89.4038 159.212C89.2182 159.39 88.9947 159.479 88.7333 159.479ZM95.3938 169.843C94.6059 169.843 93.9147 169.655 93.32 169.28C92.729 168.905 92.2669 168.381 91.9336 167.707C91.604 167.032 91.4393 166.244 91.4393 165.343C91.4393 164.434 91.604 163.64 91.9336 162.962C92.2669 162.284 92.729 161.758 93.32 161.383C93.9147 161.008 94.6059 160.82 95.3938 160.82C96.1817 160.82 96.8711 161.008 97.462 161.383C98.0567 161.758 98.5188 162.284 98.8484 162.962C99.1817 163.64 99.3484 164.434 99.3484 165.343C99.3484 166.244 99.1817 167.032 98.8484 167.707C98.5188 168.381 98.0567 168.905 97.462 169.28C96.8711 169.655 96.1817 169.843 95.3938 169.843ZM95.3938 168.638C95.9923 168.638 96.4847 168.485 96.8711 168.178C97.2575 167.871 97.5434 167.468 97.729 166.968C97.9147 166.468 98.0075 165.926 98.0075 165.343C98.0075 164.76 97.9147 164.216 97.729 163.712C97.5434 163.208 97.2575 162.801 96.8711 162.491C96.4847 162.18 95.9923 162.025 95.3938 162.025C94.7953 162.025 94.3029 162.18 93.9165 162.491C93.5302 162.801 93.2442 163.208 93.0586 163.712C92.873 164.216 92.7802 164.76 92.7802 165.343C92.7802 165.926 92.873 166.468 93.0586 166.968C93.2442 167.468 93.5302 167.871 93.9165 168.178C94.3029 168.485 94.7953 168.638 95.3938 168.638ZM102.736 164.411V169.661H101.395V160.934H102.691V162.297H102.804C103.009 161.854 103.319 161.498 103.736 161.229C104.153 160.957 104.691 160.82 105.35 160.82C105.941 160.82 106.458 160.941 106.901 161.184C107.344 161.422 107.689 161.786 107.935 162.275C108.181 162.76 108.304 163.373 108.304 164.116V169.661H106.963V164.207C106.963 163.521 106.785 162.987 106.429 162.604C106.073 162.218 105.585 162.025 104.963 162.025C104.535 162.025 104.153 162.118 103.816 162.303C103.482 162.489 103.219 162.76 103.026 163.116C102.833 163.472 102.736 163.904 102.736 164.411ZM113.323 169.866C112.77 169.866 112.268 169.762 111.817 169.553C111.366 169.341 111.008 169.036 110.743 168.638C110.478 168.237 110.346 167.752 110.346 167.184C110.346 166.684 110.444 166.279 110.641 165.968C110.838 165.654 111.101 165.407 111.431 165.229C111.76 165.051 112.124 164.919 112.522 164.832C112.923 164.741 113.327 164.669 113.732 164.616C114.262 164.547 114.692 164.496 115.022 164.462C115.355 164.424 115.597 164.362 115.749 164.275C115.904 164.188 115.982 164.036 115.982 163.82V163.775C115.982 163.214 115.828 162.779 115.522 162.468C115.219 162.157 114.758 162.002 114.141 162.002C113.501 162.002 112.999 162.142 112.635 162.422C112.272 162.703 112.016 163.002 111.868 163.32L110.596 162.866C110.823 162.335 111.126 161.922 111.505 161.627C111.887 161.328 112.304 161.119 112.755 161.002C113.209 160.881 113.656 160.82 114.096 160.82C114.376 160.82 114.698 160.854 115.061 160.922C115.429 160.987 115.783 161.121 116.124 161.326C116.469 161.53 116.755 161.839 116.982 162.252C117.209 162.665 117.323 163.218 117.323 163.911V169.661H115.982V168.479H115.914C115.823 168.669 115.671 168.871 115.459 169.087C115.247 169.303 114.965 169.487 114.613 169.638C114.26 169.79 113.83 169.866 113.323 169.866ZM113.527 168.661C114.058 168.661 114.505 168.557 114.868 168.349C115.236 168.14 115.512 167.871 115.698 167.542C115.887 167.212 115.982 166.866 115.982 166.502V165.275C115.925 165.343 115.8 165.405 115.607 165.462C115.417 165.515 115.198 165.563 114.948 165.604C114.702 165.642 114.461 165.676 114.226 165.707C113.995 165.733 113.808 165.756 113.664 165.775C113.315 165.82 112.989 165.894 112.686 165.996C112.387 166.095 112.145 166.244 111.959 166.445C111.777 166.642 111.686 166.911 111.686 167.252C111.686 167.718 111.859 168.07 112.203 168.309C112.552 168.544 112.993 168.661 113.527 168.661ZM121.111 158.025V169.661H119.77V158.025H121.111ZM123.567 169.661V160.934H124.908V169.661H123.567ZM124.249 159.479C123.988 159.479 123.762 159.39 123.573 159.212C123.387 159.034 123.294 158.82 123.294 158.57C123.294 158.32 123.387 158.106 123.573 157.928C123.762 157.75 123.988 157.661 124.249 157.661C124.51 157.661 124.734 157.75 124.919 157.928C125.109 158.106 125.203 158.32 125.203 158.57C125.203 158.82 125.109 159.034 124.919 159.212C124.734 159.39 124.51 159.479 124.249 159.479ZM131.159 160.934V162.07H126.637V160.934H131.159ZM127.955 158.843H129.296V167.161C129.296 167.54 129.351 167.824 129.461 168.013C129.574 168.199 129.718 168.324 129.892 168.388C130.07 168.449 130.258 168.479 130.455 168.479C130.603 168.479 130.724 168.472 130.819 168.457C130.913 168.438 130.989 168.422 131.046 168.411L131.319 169.616C131.228 169.65 131.101 169.684 130.938 169.718C130.775 169.756 130.569 169.775 130.319 169.775C129.94 169.775 129.569 169.693 129.205 169.53C128.845 169.368 128.546 169.119 128.307 168.786C128.072 168.453 127.955 168.032 127.955 167.525V158.843ZM134.04 172.934C133.813 172.934 133.61 172.915 133.432 172.877C133.254 172.843 133.131 172.809 133.063 172.775L133.404 171.593C133.73 171.676 134.017 171.707 134.267 171.684C134.517 171.661 134.739 171.549 134.932 171.349C135.129 171.152 135.309 170.832 135.472 170.388L135.722 169.707L132.495 160.934H133.949L136.358 167.888H136.449L138.858 160.934H140.313L136.608 170.934C136.442 171.385 136.235 171.758 135.989 172.053C135.743 172.352 135.457 172.574 135.131 172.718C134.809 172.862 134.445 172.934 134.04 172.934Z" fill="#909090"/>
<path d="M40.7993 172.795C45.3252 172.795 48.9942 169.127 48.9942 164.601C48.9942 160.075 45.3252 156.406 40.7993 156.406C36.2735 156.406 32.6045 160.075 32.6045 164.601C32.6045 169.127 36.2735 172.795 40.7993 172.795Z" stroke="#909090" stroke-width="1.5" stroke-linecap="round" stroke-linejoin="round"/>
<path d="M40.7994 156.406C38.6952 158.615 37.5215 161.549 37.5215 164.601C37.5215 167.652 38.6952 170.586 40.7994 172.795C42.9037 170.586 44.0774 167.652 44.0774 164.601C44.0774 161.549 42.9037 158.615 40.7994 156.406Z" stroke="#909090" stroke-width="1.5" stroke-linecap="round" stroke-linejoin="round"/>
<path d="M32.6045 164.601H48.9942" stroke="#909090" stroke-width="1.5" stroke-linecap="round" stroke-linejoin="round"/>
<rect x="40.7817" y="75.5601" width="88.022" height="35.2299" rx="17.6149" stroke="white" stroke-opacity="0.5"/>
<path d="M59.9291 97.6748H56.7253V88.2203H59.9937C60.9324 88.2203 61.7387 88.4095 62.4128 88.7881C63.0898 89.1636 63.61 89.7037 63.9731 90.4085C64.3363 91.1133 64.5179 91.9565 64.5179 92.9383C64.5179 93.9231 64.3347 94.7695 63.9685 95.4774C63.6053 96.1852 63.0806 96.7284 62.3943 97.107C61.711 97.4855 60.8893 97.6748 59.9291 97.6748ZM58.438 96.1929H59.846C60.5046 96.1929 61.054 96.0729 61.4941 95.8328C61.9342 95.5897 62.265 95.2281 62.4866 94.748C62.7082 94.2648 62.819 93.6615 62.819 92.9383C62.819 92.2151 62.7082 91.6149 62.4866 91.1379C62.265 90.6578 61.9373 90.2992 61.5033 90.0622C61.0724 89.8222 60.5369 89.7021 59.8968 89.7021H58.438V96.1929ZM70.5908 94.6926V90.5839H72.262V97.6748H70.6416V96.4145H70.5678C70.4077 96.8115 70.1446 97.1362 69.7783 97.3886C69.4152 97.641 68.9674 97.7671 68.4349 97.7671C67.9702 97.7671 67.5594 97.664 67.2023 97.4578C66.8484 97.2485 66.5714 96.9454 66.3714 96.5484C66.1713 96.1483 66.0713 95.6651 66.0713 95.0988V90.5839H67.7425V94.8403C67.7425 95.2896 67.8656 95.6466 68.1118 95.9113C68.358 96.176 68.6812 96.3083 69.0813 96.3083C69.3275 96.3083 69.566 96.2483 69.7968 96.1283C70.0276 96.0083 70.2169 95.8298 70.3646 95.5928C70.5154 95.3527 70.5908 95.0526 70.5908 94.6926ZM74.0544 97.6748V88.2203H75.7255V91.7565H75.7948C75.8809 91.5841 76.0025 91.401 76.1595 91.2071C76.3164 91.0102 76.5288 90.8424 76.7965 90.7039C77.0643 90.5624 77.4059 90.4916 77.8214 90.4916C78.3692 90.4916 78.8632 90.6316 79.3033 90.9117C79.7465 91.1887 80.0973 91.5995 80.3558 92.1443C80.6174 92.6859 80.7482 93.3507 80.7482 94.1386C80.7482 94.9172 80.6205 95.5789 80.3651 96.1237C80.1096 96.6684 79.7619 97.0839 79.3218 97.3701C78.8817 97.6563 78.3831 97.7994 77.826 97.7994C77.4198 97.7994 77.0828 97.7317 76.815 97.5963C76.5473 97.4609 76.3318 97.2978 76.1687 97.107C76.0087 96.9131 75.884 96.73 75.7948 96.5576H75.6978V97.6748H74.0544ZM75.6932 94.1294C75.6932 94.5879 75.7578 94.9896 75.8871 95.3343C76.0194 95.6789 76.2087 95.9482 76.4549 96.1421C76.7042 96.3329 77.0058 96.4284 77.3598 96.4284C77.7291 96.4284 78.0384 96.3299 78.2877 96.1329C78.537 95.9329 78.7247 95.6605 78.8509 95.3158C78.9801 94.968 79.0448 94.5725 79.0448 94.1294C79.0448 93.6892 78.9817 93.2984 78.8555 92.9568C78.7293 92.6151 78.5416 92.3474 78.2923 92.1535C78.043 91.9596 77.7321 91.8627 77.3598 91.8627C77.0027 91.8627 76.6996 91.9565 76.4503 92.1443C76.201 92.332 76.0117 92.5951 75.8825 92.9337C75.7563 93.2722 75.6932 93.6708 75.6932 94.1294ZM84.2095 97.8179C83.7601 97.8179 83.3554 97.7379 82.9953 97.5779C82.6383 97.4147 82.3552 97.1747 82.1459 96.8577C81.9397 96.5407 81.8366 96.1498 81.8366 95.6851C81.8366 95.285 81.9104 94.9542 82.0582 94.6926C82.2059 94.431 82.4075 94.2217 82.6629 94.0647C82.9184 93.9078 83.2061 93.7893 83.5262 93.7093C83.8494 93.6262 84.1833 93.5661 84.528 93.5292C84.9435 93.4861 85.2805 93.4477 85.539 93.4138C85.7975 93.3769 85.9853 93.3215 86.1022 93.2476C86.2222 93.1707 86.2822 93.0522 86.2822 92.8921V92.8644C86.2822 92.5167 86.1791 92.2474 85.9729 92.0566C85.7667 91.8657 85.4697 91.7703 85.082 91.7703C84.6726 91.7703 84.3479 91.8596 84.1079 92.0381C83.8709 92.2166 83.7109 92.4274 83.6278 92.6705L82.0674 92.449C82.1905 92.0181 82.3936 91.658 82.6768 91.3687C82.9599 91.0763 83.3062 90.8578 83.7155 90.7132C84.1248 90.5654 84.5772 90.4916 85.0727 90.4916C85.4144 90.4916 85.7544 90.5316 86.093 90.6116C86.4315 90.6916 86.7408 90.824 87.0209 91.0086C87.301 91.1902 87.5256 91.4379 87.6949 91.7519C87.8672 92.0658 87.9534 92.4582 87.9534 92.9291V97.6748H86.3469V96.7007H86.2915C86.1899 96.8977 86.0468 97.0824 85.8621 97.2547C85.6806 97.424 85.4513 97.5609 85.1743 97.6656C84.9004 97.7671 84.5788 97.8179 84.2095 97.8179ZM84.6434 96.5899C84.9789 96.5899 85.2697 96.5238 85.5159 96.3914C85.7621 96.256 85.9514 96.0775 86.0837 95.8559C86.2192 95.6343 86.2869 95.3927 86.2869 95.1311V94.2955C86.2345 94.3386 86.1453 94.3786 86.0191 94.4156C85.896 94.4525 85.7575 94.4848 85.6036 94.5125C85.4497 94.5402 85.2974 94.5648 85.1466 94.5864C84.9958 94.6079 84.865 94.6264 84.7542 94.6418C84.5049 94.6756 84.2818 94.731 84.0848 94.808C83.8878 94.8849 83.7324 94.9926 83.6185 95.1311C83.5047 95.2665 83.4477 95.442 83.4477 95.6574C83.4477 95.9652 83.5601 96.1975 83.7847 96.3545C84.0094 96.5115 84.2956 96.5899 84.6434 96.5899ZM89.6338 97.6748V90.5839H91.305V97.6748H89.6338ZM90.474 89.5775C90.2093 89.5775 89.9816 89.4898 89.7908 89.3144C89.6 89.1359 89.5045 88.922 89.5045 88.6727C89.5045 88.4203 89.6 88.2064 89.7908 88.031C89.9816 87.8525 90.2093 87.7632 90.474 87.7632C90.7418 87.7632 90.9695 87.8525 91.1572 88.031C91.3481 88.2064 91.4435 88.4203 91.4435 88.6727C91.4435 88.922 91.3481 89.1359 91.1572 89.3144C90.9695 89.4898 90.7418 89.5775 90.474 89.5775Z" fill="white"/>
<path d="M113.793 89.6748L106.793 96.6748M106.793 89.6748L113.793 96.6748" stroke="white" stroke-width="2" stroke-linecap="round" stroke-linejoin="round"/>
<rect x="137.05" y="75.5601" width="101.479" height="35.2299" rx="17.6149" stroke="white" stroke-opacity="0.5"/>
<path d="M152.222 97.6748V88.2203H153.934V96.2391H158.098V97.6748H152.222ZM162.604 97.8133C161.912 97.8133 161.311 97.661 160.804 97.3563C160.296 97.0516 159.902 96.6253 159.622 96.0775C159.345 95.5297 159.206 94.8895 159.206 94.157C159.206 93.4246 159.345 92.7829 159.622 92.232C159.902 91.6811 160.296 91.2533 160.804 90.9486C161.311 90.6439 161.912 90.4916 162.604 90.4916C163.297 90.4916 163.897 90.6439 164.404 90.9486C164.912 91.2533 165.305 91.6811 165.582 92.232C165.862 92.7829 166.002 93.4246 166.002 94.157C166.002 94.8895 165.862 95.5297 165.582 96.0775C165.305 96.6253 164.912 97.0516 164.404 97.3563C163.897 97.661 163.297 97.8133 162.604 97.8133ZM162.613 96.4745C162.989 96.4745 163.303 96.3714 163.555 96.1652C163.807 95.9559 163.995 95.6759 164.118 95.325C164.244 94.9742 164.308 94.5833 164.308 94.1524C164.308 93.7185 164.244 93.3261 164.118 92.9752C163.995 92.6213 163.807 92.3397 163.555 92.1304C163.303 91.9211 162.989 91.8165 162.613 91.8165C162.229 91.8165 161.908 91.9211 161.653 92.1304C161.401 92.3397 161.211 92.6213 161.085 92.9752C160.962 93.3261 160.901 93.7185 160.901 94.1524C160.901 94.5833 160.962 94.9742 161.085 95.325C161.211 95.6759 161.401 95.9559 161.653 96.1652C161.908 96.3714 162.229 96.4745 162.613 96.4745ZM169.091 93.52V97.6748H167.42V90.5839H169.017V91.7888H169.101C169.264 91.3918 169.524 91.0763 169.881 90.8424C170.241 90.6085 170.686 90.4916 171.215 90.4916C171.704 90.4916 172.131 90.5962 172.494 90.8055C172.86 91.0148 173.143 91.3179 173.343 91.7149C173.546 92.1119 173.646 92.5936 173.643 93.1599V97.6748H171.972V93.4184C171.972 92.9445 171.849 92.5736 171.603 92.3058C171.36 92.0381 171.023 91.9042 170.592 91.9042C170.299 91.9042 170.039 91.9688 169.812 92.0981C169.587 92.2243 169.41 92.4074 169.281 92.6475C169.154 92.8875 169.091 93.1784 169.091 93.52ZM177.973 97.7994C177.416 97.7994 176.918 97.6563 176.478 97.3701C176.038 97.0839 175.69 96.6684 175.434 96.1237C175.179 95.5789 175.051 94.9172 175.051 94.1386C175.051 93.3507 175.18 92.6859 175.439 92.1443C175.701 91.5995 176.053 91.1887 176.496 90.9117C176.939 90.6316 177.433 90.4916 177.978 90.4916C178.394 90.4916 178.735 90.5624 179.003 90.7039C179.271 90.8424 179.483 91.0102 179.64 91.2071C179.797 91.401 179.919 91.5841 180.005 91.7565H180.074V88.2203H181.75V97.6748H180.106V96.5576H180.005C179.919 96.73 179.794 96.9131 179.631 97.107C179.468 97.2978 179.252 97.4609 178.984 97.5963C178.717 97.7317 178.38 97.7994 177.973 97.7994ZM178.44 96.4284C178.794 96.4284 179.095 96.3329 179.345 96.1421C179.594 95.9482 179.783 95.6789 179.912 95.3343C180.042 94.9896 180.106 94.5879 180.106 94.1294C180.106 93.6708 180.042 93.2722 179.912 92.9337C179.786 92.5951 179.598 92.332 179.349 92.1443C179.103 91.9565 178.8 91.8627 178.44 91.8627C178.067 91.8627 177.756 91.9596 177.507 92.1535C177.258 92.3474 177.07 92.6151 176.944 92.9568C176.818 93.2984 176.755 93.6892 176.755 94.1294C176.755 94.5725 176.818 94.968 176.944 95.3158C177.073 95.6605 177.263 95.9329 177.512 96.1329C177.764 96.3299 178.073 96.4284 178.44 96.4284ZM186.624 97.8133C185.931 97.8133 185.331 97.661 184.823 97.3563C184.315 97.0516 183.921 96.6253 183.641 96.0775C183.364 95.5297 183.226 94.8895 183.226 94.157C183.226 93.4246 183.364 92.7829 183.641 92.232C183.921 91.6811 184.315 91.2533 184.823 90.9486C185.331 90.6439 185.931 90.4916 186.624 90.4916C187.316 90.4916 187.916 90.6439 188.424 90.9486C188.932 91.2533 189.324 91.6811 189.601 92.232C189.881 92.7829 190.021 93.4246 190.021 94.157C190.021 94.8895 189.881 95.5297 189.601 96.0775C189.324 96.6253 188.932 97.0516 188.424 97.3563C187.916 97.661 187.316 97.8133 186.624 97.8133ZM186.633 96.4745C187.008 96.4745 187.322 96.3714 187.575 96.1652C187.827 95.9559 188.015 95.6759 188.138 95.325C188.264 94.9742 188.327 94.5833 188.327 94.1524C188.327 93.7185 188.264 93.3261 188.138 92.9752C188.015 92.6213 187.827 92.3397 187.575 92.1304C187.322 91.9211 187.008 91.8165 186.633 91.8165C186.248 91.8165 185.928 91.9211 185.673 92.1304C185.42 92.3397 185.231 92.6213 185.105 92.9752C184.982 93.3261 184.92 93.7185 184.92 94.1524C184.92 94.5833 184.982 94.9742 185.105 95.325C185.231 95.6759 185.42 95.9559 185.673 96.1652C185.928 96.3714 186.248 96.4745 186.633 96.4745ZM193.111 93.52V97.6748H191.44V90.5839H193.037V91.7888H193.12C193.283 91.3918 193.543 91.0763 193.9 90.8424C194.26 90.6085 194.705 90.4916 195.234 90.4916C195.724 90.4916 196.15 90.5962 196.513 90.8055C196.879 91.0148 197.163 91.3179 197.363 91.7149C197.566 92.1119 197.666 92.5936 197.663 93.1599V97.6748H195.992V93.4184C195.992 92.9445 195.868 92.5736 195.622 92.3058C195.379 92.0381 195.042 91.9042 194.611 91.9042C194.319 91.9042 194.059 91.9688 193.831 92.0981C193.606 92.2243 193.429 92.4074 193.3 92.6475C193.174 92.8875 193.111 93.1784 193.111 93.52Z" fill="white"/>
<path d="M224.289 89.6748L217.289 96.6748M217.289 89.6748L224.289 96.6748" stroke="white" stroke-width="2" stroke-linecap="round" stroke-linejoin="round"/>
<rect x="246.774" y="75.5601" width="79.7409" height="35.2299" rx="17.6149" stroke="white" stroke-opacity="0.5"/>
<path d="M260.577 88.2203H262.673L265.48 95.0711H265.591L268.398 88.2203H270.493V97.6748H268.85V91.1794H268.762L266.149 97.6471H264.921L262.308 91.1656H262.221V97.6748H260.577V88.2203ZM272.285 97.6748V90.5839H273.956V97.6748H272.285ZM273.125 89.5775C272.86 89.5775 272.632 89.4898 272.442 89.3144C272.251 89.1359 272.155 88.922 272.155 88.6727C272.155 88.4203 272.251 88.2064 272.442 88.031C272.632 87.8525 272.86 87.7632 273.125 87.7632C273.393 87.7632 273.62 87.8525 273.808 88.031C273.999 88.2064 274.094 88.4203 274.094 88.6727C274.094 88.922 273.999 89.1359 273.808 89.3144C273.62 89.4898 273.393 89.5775 273.125 89.5775ZM277.346 88.2203V97.6748H275.674V88.2203H277.346ZM281.104 97.8179C280.655 97.8179 280.25 97.7379 279.89 97.5779C279.533 97.4147 279.25 97.1747 279.041 96.8577C278.835 96.5407 278.732 96.1498 278.732 95.6851C278.732 95.285 278.805 94.9542 278.953 94.6926C279.101 94.431 279.303 94.2217 279.558 94.0647C279.813 93.9078 280.101 93.7893 280.421 93.7093C280.744 93.6262 281.078 93.5661 281.423 93.5292C281.838 93.4861 282.175 93.4477 282.434 93.4138C282.693 93.3769 282.88 93.3215 282.997 93.2476C283.117 93.1707 283.177 93.0522 283.177 92.8921V92.8644C283.177 92.5167 283.074 92.2474 282.868 92.0566C282.662 91.8657 282.365 91.7703 281.977 91.7703C281.568 91.7703 281.243 91.8596 281.003 92.0381C280.766 92.2166 280.606 92.4274 280.523 92.6705L278.962 92.449C279.086 92.0181 279.289 91.658 279.572 91.3687C279.855 91.0763 280.201 90.8578 280.611 90.7132C281.02 90.5654 281.472 90.4916 281.968 90.4916C282.309 90.4916 282.649 90.5316 282.988 90.6116C283.327 90.6916 283.636 90.824 283.916 91.0086C284.196 91.1902 284.421 91.4379 284.59 91.7519C284.762 92.0658 284.848 92.4582 284.848 92.9291V97.6748H283.242V96.7007H283.187C283.085 96.8977 282.942 97.0824 282.757 97.2547C282.576 97.424 282.346 97.5609 282.069 97.6656C281.795 97.7671 281.474 97.8179 281.104 97.8179ZM281.538 96.5899C281.874 96.5899 282.165 96.5238 282.411 96.3914C282.657 96.256 282.846 96.0775 282.979 95.8559C283.114 95.6343 283.182 95.3927 283.182 95.1311V94.2955C283.13 94.3386 283.04 94.3786 282.914 94.4156C282.791 94.4525 282.653 94.4848 282.499 94.5125C282.345 94.5402 282.192 94.5648 282.042 94.5864C281.891 94.6079 281.76 94.6264 281.649 94.6418C281.4 94.6756 281.177 94.731 280.98 94.808C280.783 94.8849 280.627 94.9926 280.514 95.1311C280.4 95.2665 280.343 95.442 280.343 95.6574C280.343 95.9652 280.455 96.1975 280.68 96.3545C280.904 96.5115 281.191 96.5899 281.538 96.5899ZM288.2 93.52V97.6748H286.529V90.5839H288.126V91.7888H288.209C288.372 91.3918 288.632 91.0763 288.989 90.8424C289.349 90.6085 289.794 90.4916 290.324 90.4916C290.813 90.4916 291.239 90.5962 291.602 90.8055C291.969 91.0148 292.252 91.3179 292.452 91.7149C292.655 92.1119 292.755 92.5936 292.752 93.1599V97.6748H291.081V93.4184C291.081 92.9445 290.958 92.5736 290.711 92.3058C290.468 92.0381 290.131 91.9042 289.7 91.9042C289.408 91.9042 289.148 91.9688 288.92 92.0981C288.695 92.2243 288.519 92.4074 288.389 92.6475C288.263 92.8875 288.2 93.1784 288.2 93.52Z" fill="white"/>
<path d="M313.645 89.6748L306.645 96.6748M306.645 89.6748L313.645 96.6748" stroke="white" stroke-width="2" stroke-linecap="round" stroke-linejoin="round"/>
<rect x="31.4653" y="63.1382" width="426.512" height="61.1083" rx="9.5" stroke="white" stroke-opacity="0.2"/>
<path d="M70.7219 40.5493H69.3129C69.2295 40.144 69.0837 39.788 68.8754 39.4811C68.6708 39.1743 68.4208 38.9167 68.1254 38.7084C67.8337 38.4963 67.5098 38.3372 67.1538 38.2311C66.7977 38.1251 66.4265 38.072 66.0401 38.072C65.3356 38.072 64.6973 38.2501 64.1254 38.6061C63.5572 38.9622 63.1045 39.4868 62.7674 40.18C62.4341 40.8732 62.2674 41.7236 62.2674 42.7311C62.2674 43.7387 62.4341 44.5891 62.7674 45.2823C63.1045 45.9755 63.5572 46.5001 64.1254 46.8561C64.6973 47.2122 65.3356 47.3902 66.0401 47.3902C66.4265 47.3902 66.7977 47.3372 67.1538 47.2311C67.5098 47.1251 67.8337 46.9679 68.1254 46.7595C68.4208 46.5474 68.6708 46.288 68.8754 45.9811C69.0837 45.6705 69.2295 45.3145 69.3129 44.913H70.7219C70.6159 45.5076 70.4227 46.0398 70.1424 46.5095C69.8621 46.9792 69.5136 47.3789 69.0969 47.7084C68.6803 48.0342 68.2125 48.2823 67.6935 48.4527C67.1784 48.6232 66.6272 48.7084 66.0401 48.7084C65.0477 48.7084 64.1651 48.466 63.3924 47.9811C62.6197 47.4963 62.0117 46.8069 61.5685 45.913C61.1254 45.019 60.9038 43.9584 60.9038 42.7311C60.9038 41.5039 61.1254 40.4433 61.5685 39.5493C62.0117 38.6554 62.6197 37.966 63.3924 37.4811C64.1651 36.9963 65.0477 36.7539 66.0401 36.7539C66.6272 36.7539 67.1784 36.8391 67.6935 37.0095C68.2125 37.18 68.6803 37.43 69.0969 37.7595C69.5136 38.0853 69.8621 38.483 70.1424 38.9527C70.4227 39.4186 70.6159 39.9508 70.7219 40.5493ZM72.8171 48.5493V39.822H74.158V48.5493H72.8171ZM73.4989 38.3675C73.2376 38.3675 73.0122 38.2785 72.8228 38.1005C72.6372 37.9224 72.5444 37.7084 72.5444 37.4584C72.5444 37.2084 72.6372 36.9944 72.8228 36.8164C73.0122 36.6383 73.2376 36.5493 73.4989 36.5493C73.7603 36.5493 73.9838 36.6383 74.1694 36.8164C74.3588 36.9944 74.4535 37.2084 74.4535 37.4584C74.4535 37.7084 74.3588 37.9224 74.1694 38.1005C73.9838 38.2785 73.7603 38.3675 73.4989 38.3675ZM80.4094 39.822V40.9584H75.8867V39.822H80.4094ZM77.2049 37.7311H78.5458V46.0493C78.5458 46.4281 78.6007 46.7122 78.7106 46.9016C78.8242 47.0872 78.9682 47.2122 79.1424 47.2766C79.3204 47.3372 79.5079 47.3675 79.7049 47.3675C79.8526 47.3675 79.9738 47.3599 80.0685 47.3448C80.1632 47.3258 80.239 47.3107 80.2958 47.2993L80.5685 48.5039C80.4776 48.538 80.3507 48.572 80.1879 48.6061C80.025 48.644 79.8185 48.663 79.5685 48.663C79.1897 48.663 78.8185 48.5815 78.4549 48.4186C78.0951 48.2558 77.7958 48.0076 77.5572 47.6743C77.3223 47.341 77.2049 46.9205 77.2049 46.413V37.7311ZM82.4265 48.5493V39.822H83.7674V48.5493H82.4265ZM83.1083 38.3675C82.8469 38.3675 82.6216 38.2785 82.4322 38.1005C82.2466 37.9224 82.1538 37.7084 82.1538 37.4584C82.1538 37.2084 82.2466 36.9944 82.4322 36.8164C82.6216 36.6383 82.8469 36.5493 83.1083 36.5493C83.3697 36.5493 83.5932 36.6383 83.7788 36.8164C83.9682 36.9944 84.0629 37.2084 84.0629 37.4584C84.0629 37.7084 83.9682 37.9224 83.7788 38.1005C83.5932 38.2785 83.3697 38.3675 83.1083 38.3675ZM89.8825 48.7311C89.0415 48.7311 88.3162 48.5455 87.7063 48.1743C87.1003 47.7993 86.6325 47.2766 86.3029 46.6061C85.9772 45.9319 85.8143 45.1478 85.8143 44.2539C85.8143 43.3599 85.9772 42.572 86.3029 41.8902C86.6325 41.2046 87.0908 40.6705 87.6779 40.288C88.2688 39.9016 88.9582 39.7084 89.7461 39.7084C90.2006 39.7084 90.6495 39.7842 91.0927 39.9357C91.5359 40.0872 91.9393 40.3334 92.3029 40.6743C92.6665 41.0114 92.9563 41.4584 93.1722 42.0152C93.3881 42.572 93.4961 43.2576 93.4961 44.072V44.6402H86.7688V43.4811H92.1325C92.1325 42.9887 92.034 42.5493 91.837 42.163C91.6438 41.7766 91.3673 41.4717 91.0075 41.2482C90.6514 41.0247 90.2309 40.913 89.7461 40.913C89.212 40.913 88.7499 41.0455 88.3597 41.3107C87.9734 41.572 87.676 41.913 87.4677 42.3334C87.2594 42.7539 87.1552 43.2046 87.1552 43.6857V44.4584C87.1552 45.1175 87.2688 45.6762 87.4961 46.1345C87.7272 46.5891 88.0472 46.9357 88.4563 47.1743C88.8654 47.4092 89.3408 47.5266 89.8825 47.5266C90.2347 47.5266 90.5529 47.4773 90.837 47.3789C91.1249 47.2766 91.373 47.1251 91.5813 46.9243C91.7897 46.7198 91.9506 46.466 92.0643 46.163L93.3597 46.5266C93.2234 46.966 92.9942 47.3523 92.6722 47.6857C92.3503 48.0152 91.9525 48.2728 91.479 48.4584C91.0056 48.6402 90.4734 48.7311 89.8825 48.7311ZM101.718 41.7766L100.513 42.1175C100.437 41.9167 100.326 41.7217 100.178 41.5323C100.034 41.3391 99.837 41.18 99.587 41.055C99.337 40.93 99.0169 40.8675 98.6268 40.8675C98.0927 40.8675 97.6476 40.9906 97.2915 41.2368C96.9393 41.4792 96.7631 41.788 96.7631 42.163C96.7631 42.4963 96.8844 42.7595 97.1268 42.9527C97.3692 43.1459 97.748 43.3069 98.2631 43.4357L99.5586 43.7539C100.339 43.9433 100.92 44.233 101.303 44.6232C101.685 45.0095 101.877 45.5076 101.877 46.1175C101.877 46.6175 101.733 47.0645 101.445 47.4584C101.161 47.8523 100.763 48.163 100.252 48.3902C99.7404 48.6175 99.1457 48.7311 98.4677 48.7311C97.5775 48.7311 96.8408 48.538 96.2575 48.1516C95.6741 47.7652 95.3048 47.2008 95.1495 46.4584L96.4222 46.1402C96.5434 46.6099 96.7726 46.9622 97.1097 47.197C97.4506 47.4319 97.8957 47.5493 98.445 47.5493C99.07 47.5493 99.5662 47.4167 99.9336 47.1516C100.305 46.8826 100.49 46.5607 100.49 46.1857C100.49 45.8826 100.384 45.6289 100.172 45.4243C99.9601 45.216 99.6344 45.0607 99.195 44.9584L97.7404 44.6175C96.9412 44.4281 96.354 44.1345 95.979 43.7368C95.6078 43.3353 95.4222 42.8334 95.4222 42.2311C95.4222 41.7387 95.5605 41.3031 95.837 40.9243C96.1173 40.5455 96.498 40.2482 96.979 40.0323C97.4639 39.8164 98.0131 39.7084 98.6268 39.7084C99.4904 39.7084 100.168 39.8978 100.661 40.2766C101.157 40.6554 101.509 41.1554 101.718 41.7766Z" fill="#909090"/>
<path d="M49.0803 41.2461C49.0803 45.5532 44.0634 50.0388 42.3787 51.4241C42.2218 51.5365 42.0307 51.5973 41.8344 51.5973C41.638 51.5973 41.4469 51.5365 41.29 51.4241C39.6053 50.0388 34.5884 45.5532 34.5884 41.2461C34.5884 39.4159 35.3518 37.6606 36.7107 36.3664C38.0696 35.0723 39.9126 34.3452 41.8344 34.3452C43.7561 34.3452 45.5991 35.0723 46.958 36.3664C48.3169 37.6606 49.0803 39.4159 49.0803 41.2461Z" stroke="#909090" stroke-width="1.7" stroke-linecap="round" stroke-linejoin="round"/>
<path d="M41.8342 43.8339C43.3349 43.8339 44.5514 42.6753 44.5514 41.2461C44.5514 39.8168 43.3349 38.6582 41.8342 38.6582C40.3335 38.6582 39.1169 39.8168 39.1169 41.2461C39.1169 42.6753 40.3335 43.8339 41.8342 43.8339Z" stroke="#909090" stroke-width="1.7" stroke-linecap="round" stroke-linejoin="round"/>
<defs>
<filter id="filter0_d_1187_379" x="0" y="0" width="492" height="403" filterUnits="userSpaceOnUse" color-interpolation-filters="sRGB">
<feFlood flood-opacity="0" result="BackgroundImageFix"/>
<feColorMatrix in="SourceAlpha" type="matrix" values="0 0 0 0 0 0 0 0 0 0 0 0 0 0 0 0 0 0 127 0" result="hardAlpha"/>
<feOffset/>
<feGaussianBlur stdDeviation="5"/>
<feComposite in2="hardAlpha" operator="out"/>
<feColorMatrix type="matrix" values="0 0 0 0 1 0 0 0 0 1 0 0 0 0 1 0 0 0 0.2 0"/>
<feBlend mode="normal" in2="BackgroundImageFix" result="effect1_dropShadow_1187_379"/>
<feBlend mode="normal" in="SourceGraphic" in2="effect1_dropShadow_1187_379" result="shape"/>
</filter>
<clipPath id="clip0_1187_379">
<rect width="20" height="13.3333" fill="white" transform="translate(323.974 331.836)"/>
</clipPath>
<clipPath id="clip1_1187_379">
<rect width="20" height="15" fill="white" transform="translate(190.494 331.003)"/>
</clipPath>
<clipPath id="clip2_1187_379">
<rect width="20" height="13.3333" fill="white" transform="translate(54.4255 331.836)"/>
</clipPath>
<clipPath id="clip3_1187_379">
<rect width="18" height="14" fill="white" transform="translate(335.43 209.357)"/>
</clipPath>
<clipPath id="clip4_1187_379">
<rect width="19" height="14" fill="white" transform="translate(192.757 209.357)"/>
</clipPath>
<clipPath id="clip5_1187_379">
<rect width="20" height="15" fill="white" transform="translate(55.9607 208.857)"/>
</clipPath>
</defs>
</svg>
