<svg width="492" height="403" viewBox="0 0 492 403" fill="none" xmlns="http://www.w3.org/2000/svg">
<g filter="url(#filter0_d_1187_379)">
<rect x="10" y="10" width="472" height="383" rx="20" fill="black"/>
<rect x="10.5" y="10.5" width="471" height="382" rx="19.5" stroke="white" stroke-opacity="0.5"/>
</g>
<rect x="309.918" y="320.888" width="120.111" height="35.2299" rx="17.6149" stroke="white" stroke-opacity="0.5"/>
<g clip-path="url(#clip0_1187_379)">
<path d="M337.307 331.836H323.974V345.17H343.974V331.836H337.307Z" fill="white"/>
<path d="M323.974 331.836H330.64V345.17H323.974V331.836Z" fill="#6DA544"/>
<path d="M337.307 331.836H343.974V345.17H337.307V331.836Z" fill="#D80027"/>
</g>
<path d="M358.619 333.548V343.003H356.906V333.548H358.619ZM363.941 335.912V337.205H359.864V335.912H363.941ZM360.871 334.213H362.542V340.87C362.542 341.095 362.576 341.267 362.643 341.387C362.714 341.504 362.806 341.584 362.92 341.627C363.034 341.67 363.16 341.692 363.299 341.692C363.403 341.692 363.499 341.684 363.585 341.669C363.674 341.653 363.742 341.64 363.788 341.627L364.07 342.934C363.981 342.964 363.853 342.998 363.687 343.035C363.523 343.072 363.323 343.094 363.086 343.1C362.668 343.112 362.291 343.049 361.955 342.911C361.62 342.769 361.354 342.551 361.157 342.255C360.963 341.96 360.867 341.59 360.871 341.147V334.213ZM367.379 343.146C366.929 343.146 366.525 343.066 366.165 342.906C365.807 342.743 365.524 342.503 365.315 342.186C365.109 341.869 365.006 341.478 365.006 341.013C365.006 340.613 365.08 340.282 365.227 340.021C365.375 339.759 365.577 339.55 365.832 339.393C366.088 339.236 366.375 339.117 366.695 339.037C367.019 338.954 367.352 338.894 367.697 338.857C368.113 338.814 368.45 338.776 368.708 338.742C368.967 338.705 369.154 338.65 369.271 338.576C369.391 338.499 369.451 338.38 369.451 338.22V338.193C369.451 337.845 369.348 337.575 369.142 337.385C368.936 337.194 368.639 337.098 368.251 337.098C367.842 337.098 367.517 337.188 367.277 337.366C367.04 337.545 366.88 337.756 366.797 337.999L365.237 337.777C365.36 337.346 365.563 336.986 365.846 336.697C366.129 336.404 366.475 336.186 366.885 336.041C367.294 335.894 367.746 335.82 368.242 335.82C368.584 335.82 368.924 335.86 369.262 335.94C369.601 336.02 369.91 336.152 370.19 336.337C370.47 336.518 370.695 336.766 370.864 337.08C371.036 337.394 371.123 337.786 371.123 338.257V343.003H369.516V342.029H369.461C369.359 342.226 369.216 342.41 369.031 342.583C368.85 342.752 368.62 342.889 368.343 342.994C368.07 343.095 367.748 343.146 367.379 343.146ZM367.813 341.918C368.148 341.918 368.439 341.852 368.685 341.72C368.931 341.584 369.121 341.406 369.253 341.184C369.388 340.962 369.456 340.721 369.456 340.459V339.624C369.404 339.667 369.314 339.707 369.188 339.744C369.065 339.781 368.927 339.813 368.773 339.841C368.619 339.868 368.467 339.893 368.316 339.915C368.165 339.936 368.034 339.955 367.923 339.97C367.674 340.004 367.451 340.059 367.254 340.136C367.057 340.213 366.902 340.321 366.788 340.459C366.674 340.595 366.617 340.77 366.617 340.986C366.617 341.293 366.729 341.526 366.954 341.683C367.179 341.84 367.465 341.918 367.813 341.918ZM374.474 333.548V343.003H372.803V333.548H374.474ZM376.193 343.003V335.912H377.864V343.003H376.193ZM377.033 334.906C376.768 334.906 376.54 334.818 376.35 334.642C376.159 334.464 376.063 334.25 376.063 334.001C376.063 333.748 376.159 333.535 376.35 333.359C376.54 333.181 376.768 333.091 377.033 333.091C377.301 333.091 377.528 333.181 377.716 333.359C377.907 333.535 378.002 333.748 378.002 334.001C378.002 334.25 377.907 334.464 377.716 334.642C377.528 334.818 377.301 334.906 377.033 334.906ZM381.623 343.146C381.173 343.146 380.769 343.066 380.409 342.906C380.052 342.743 379.768 342.503 379.559 342.186C379.353 341.869 379.25 341.478 379.25 341.013C379.25 340.613 379.324 340.282 379.472 340.021C379.619 339.759 379.821 339.55 380.076 339.393C380.332 339.236 380.619 339.117 380.94 339.037C381.263 338.954 381.597 338.894 381.941 338.857C382.357 338.814 382.694 338.776 382.952 338.742C383.211 338.705 383.399 338.65 383.516 338.576C383.636 338.499 383.696 338.38 383.696 338.22V338.193C383.696 337.845 383.592 337.575 383.386 337.385C383.18 337.194 382.883 337.098 382.495 337.098C382.086 337.098 381.761 337.188 381.521 337.366C381.284 337.545 381.124 337.756 381.041 337.999L379.481 337.777C379.604 337.346 379.807 336.986 380.09 336.697C380.373 336.404 380.719 336.186 381.129 336.041C381.538 335.894 381.991 335.82 382.486 335.82C382.828 335.82 383.168 335.86 383.506 335.94C383.845 336.02 384.154 336.152 384.434 336.337C384.714 336.518 384.939 336.766 385.108 337.08C385.281 337.394 385.367 337.786 385.367 338.257V343.003H383.76V342.029H383.705C383.603 342.226 383.46 342.41 383.275 342.583C383.094 342.752 382.865 342.889 382.588 342.994C382.314 343.095 381.992 343.146 381.623 343.146ZM382.057 341.918C382.392 341.918 382.683 341.852 382.929 341.72C383.175 341.584 383.365 341.406 383.497 341.184C383.632 340.962 383.7 340.721 383.7 340.459V339.624C383.648 339.667 383.559 339.707 383.432 339.744C383.309 339.781 383.171 339.813 383.017 339.841C382.863 339.868 382.711 339.893 382.56 339.915C382.409 339.936 382.278 339.955 382.168 339.97C381.918 340.004 381.695 340.059 381.498 340.136C381.301 340.213 381.146 340.321 381.032 340.459C380.918 340.595 380.861 340.77 380.861 340.986C380.861 341.293 380.973 341.526 381.198 341.683C381.423 341.84 381.709 341.918 382.057 341.918ZM388.718 338.848V343.003H387.047V335.912H388.644V337.117H388.728C388.891 336.72 389.151 336.404 389.508 336.171C389.868 335.937 390.313 335.82 390.842 335.82C391.331 335.82 391.757 335.924 392.121 336.134C392.487 336.343 392.77 336.646 392.97 337.043C393.173 337.44 393.273 337.922 393.27 338.488V343.003H391.599V338.747C391.599 338.273 391.476 337.902 391.23 337.634C390.987 337.366 390.65 337.232 390.219 337.232C389.926 337.232 389.666 337.297 389.438 337.426C389.214 337.552 389.037 337.736 388.908 337.976C388.781 338.216 388.718 338.506 388.718 338.848Z" fill="white"/>
<path d="M415.974 335.003L408.974 342.003M408.974 335.003L415.974 342.003" stroke="white" stroke-width="2" stroke-linecap="round" stroke-linejoin="round"/>
<rect x="174.315" y="320.888" width="127.357" height="35.2299" rx="17.6149" stroke="white" stroke-opacity="0.5"/>
<g clip-path="url(#clip1_1187_379)">
<path d="M186.994 331.836V345.17H206.994V331.836H186.994Z" fill="white"/>
<path d="M186.994 331.836H206.994V345.17H186.994V331.836Z" fill="#0052B4"/>
<path d="M186.994 331.836H206.994V336.281H186.994V331.836Z" fill="white"/>
<path d="M186.994 340.725H206.994V345.169H186.994V340.725Z" fill="#D80027"/>
</g>
<path d="M219.926 343.003V333.548H223.472C224.198 333.548 224.807 333.675 225.3 333.927C225.795 334.179 226.169 334.533 226.422 334.989C226.677 335.441 226.805 335.969 226.805 336.572C226.805 337.178 226.675 337.705 226.417 338.151C226.162 338.594 225.784 338.937 225.286 339.18C224.787 339.421 224.175 339.541 223.449 339.541H220.923V338.119H223.218C223.642 338.119 223.99 338.06 224.261 337.943C224.532 337.823 224.732 337.649 224.861 337.422C224.994 337.191 225.06 336.908 225.06 336.572C225.06 336.237 224.994 335.95 224.861 335.714C224.729 335.473 224.527 335.292 224.256 335.169C223.986 335.043 223.636 334.979 223.208 334.979H221.639V343.003H219.926ZM224.81 338.719L227.151 343.003H225.24L222.941 338.719H224.81ZM232.827 340.021V335.912H234.498V343.003H232.878V341.743H232.804C232.644 342.14 232.381 342.464 232.014 342.717C231.651 342.969 231.203 343.095 230.671 343.095C230.206 343.095 229.795 342.992 229.438 342.786C229.085 342.577 228.808 342.274 228.607 341.877C228.407 341.476 228.307 340.993 228.307 340.427V335.912H229.979V340.168C229.979 340.618 230.102 340.975 230.348 341.239C230.594 341.504 230.917 341.636 231.317 341.636C231.564 341.636 231.802 341.576 232.033 341.456C232.264 341.336 232.453 341.158 232.601 340.921C232.752 340.681 232.827 340.381 232.827 340.021ZM241.821 337.786L240.298 337.953C240.254 337.799 240.179 337.654 240.071 337.519C239.967 337.383 239.825 337.274 239.647 337.191C239.468 337.108 239.25 337.066 238.991 337.066C238.643 337.066 238.351 337.142 238.114 337.292C237.88 337.443 237.765 337.639 237.768 337.879C237.765 338.085 237.84 338.253 237.994 338.382C238.151 338.511 238.409 338.617 238.769 338.7L239.979 338.959C240.65 339.104 241.149 339.333 241.475 339.647C241.804 339.961 241.97 340.372 241.973 340.879C241.97 341.326 241.839 341.72 241.581 342.061C241.325 342.4 240.97 342.664 240.515 342.855C240.059 343.046 239.536 343.141 238.945 343.141C238.077 343.141 237.378 342.96 236.849 342.597C236.32 342.23 236.004 341.721 235.903 341.069L237.532 340.912C237.606 341.232 237.763 341.473 238.003 341.636C238.243 341.8 238.556 341.881 238.94 341.881C239.337 341.881 239.656 341.8 239.896 341.636C240.139 341.473 240.261 341.272 240.261 341.032C240.261 340.829 240.182 340.661 240.025 340.528C239.871 340.396 239.631 340.295 239.305 340.224L238.095 339.97C237.415 339.828 236.912 339.59 236.586 339.254C236.26 338.916 236.098 338.488 236.101 337.971C236.098 337.534 236.217 337.155 236.457 336.835C236.7 336.512 237.037 336.263 237.468 336.087C237.902 335.909 238.402 335.82 238.968 335.82C239.799 335.82 240.453 335.997 240.93 336.351C241.41 336.705 241.707 337.183 241.821 337.786ZM248.956 337.786L247.432 337.953C247.389 337.799 247.314 337.654 247.206 337.519C247.101 337.383 246.96 337.274 246.781 337.191C246.603 337.108 246.384 337.066 246.126 337.066C245.778 337.066 245.486 337.142 245.249 337.292C245.015 337.443 244.899 337.639 244.902 337.879C244.899 338.085 244.975 338.253 245.129 338.382C245.286 338.511 245.544 338.617 245.904 338.7L247.114 338.959C247.785 339.104 248.283 339.333 248.61 339.647C248.939 339.961 249.105 340.372 249.108 340.879C249.105 341.326 248.974 341.72 248.716 342.061C248.46 342.4 248.105 342.664 247.649 342.855C247.194 343.046 246.671 343.141 246.08 343.141C245.212 343.141 244.513 342.96 243.984 342.597C243.454 342.23 243.139 341.721 243.037 341.069L244.667 340.912C244.741 341.232 244.898 341.473 245.138 341.636C245.378 341.8 245.69 341.881 246.075 341.881C246.472 341.881 246.791 341.8 247.031 341.636C247.274 341.473 247.395 341.272 247.395 341.032C247.395 340.829 247.317 340.661 247.16 340.528C247.006 340.396 246.766 340.295 246.44 340.224L245.23 339.97C244.55 339.828 244.047 339.59 243.721 339.254C243.394 338.916 243.233 338.488 243.236 337.971C243.233 337.534 243.351 337.155 243.591 336.835C243.835 336.512 244.172 336.263 244.602 336.087C245.036 335.909 245.536 335.82 246.103 335.82C246.934 335.82 247.588 335.997 248.065 336.351C248.545 336.705 248.842 337.183 248.956 337.786ZM250.486 343.003V335.912H252.157V343.003H250.486ZM251.326 334.906C251.062 334.906 250.834 334.818 250.643 334.642C250.452 334.464 250.357 334.25 250.357 334.001C250.357 333.748 250.452 333.535 250.643 333.359C250.834 333.181 251.062 333.091 251.326 333.091C251.594 333.091 251.822 333.181 252.01 333.359C252.2 333.535 252.296 333.748 252.296 334.001C252.296 334.25 252.2 334.464 252.01 334.642C251.822 334.818 251.594 334.906 251.326 334.906ZM255.916 343.146C255.467 343.146 255.062 343.066 254.702 342.906C254.345 342.743 254.062 342.503 253.853 342.186C253.646 341.869 253.543 341.478 253.543 341.013C253.543 340.613 253.617 340.282 253.765 340.021C253.913 339.759 254.114 339.55 254.37 339.393C254.625 339.236 254.913 339.117 255.233 339.037C255.556 338.954 255.89 338.894 256.235 338.857C256.65 338.814 256.987 338.776 257.246 338.742C257.504 338.705 257.692 338.65 257.809 338.576C257.929 338.499 257.989 338.38 257.989 338.22V338.193C257.989 337.845 257.886 337.575 257.68 337.385C257.474 337.194 257.177 337.098 256.789 337.098C256.379 337.098 256.055 337.188 255.815 337.366C255.578 337.545 255.418 337.756 255.335 337.999L253.774 337.777C253.897 337.346 254.1 336.986 254.384 336.697C254.667 336.404 255.013 336.186 255.422 336.041C255.832 335.894 256.284 335.82 256.78 335.82C257.121 335.82 257.461 335.86 257.8 335.94C258.138 336.02 258.448 336.152 258.728 336.337C259.008 336.518 259.232 336.766 259.402 337.08C259.574 337.394 259.66 337.786 259.66 338.257V343.003H258.054V342.029H257.998C257.897 342.226 257.754 342.41 257.569 342.583C257.387 342.752 257.158 342.889 256.881 342.994C256.607 343.095 256.286 343.146 255.916 343.146ZM256.35 341.918C256.686 341.918 256.976 341.852 257.223 341.72C257.469 341.584 257.658 341.406 257.791 341.184C257.926 340.962 257.994 340.721 257.994 340.459V339.624C257.941 339.667 257.852 339.707 257.726 339.744C257.603 339.781 257.464 339.813 257.31 339.841C257.157 339.868 257.004 339.893 256.853 339.915C256.703 339.936 256.572 339.955 256.461 339.97C256.212 340.004 255.989 340.059 255.792 340.136C255.595 340.213 255.439 340.321 255.325 340.459C255.211 340.595 255.155 340.77 255.155 340.986C255.155 341.293 255.267 341.526 255.492 341.683C255.716 341.84 256.002 341.918 256.35 341.918ZM263.012 338.848V343.003H261.341V335.912H262.938V337.117H263.021C263.184 336.72 263.444 336.404 263.801 336.171C264.161 335.937 264.606 335.82 265.135 335.82C265.625 335.82 266.051 335.924 266.414 336.134C266.78 336.343 267.063 336.646 267.264 337.043C267.467 337.44 267.567 337.922 267.564 338.488V343.003H265.892V338.747C265.892 338.273 265.769 337.902 265.523 337.634C265.28 337.366 264.943 337.232 264.512 337.232C264.22 337.232 263.96 337.297 263.732 337.426C263.507 337.552 263.33 337.736 263.201 337.976C263.075 338.216 263.012 338.506 263.012 338.848Z" fill="white"/>
<path d="M288.994 335.003L281.994 342.003M281.994 335.003L288.994 342.003" stroke="white" stroke-width="2" stroke-linecap="round" stroke-linejoin="round"/>
<rect x="40.7817" y="320.888" width="125.287" height="35.2299" rx="17.6149" stroke="white" stroke-opacity="0.5"/>
<g clip-path="url(#clip2_1187_379)">
<path d="M54.4253 331.836H74.4253V345.17H54.4253V331.836Z" fill="white"/>
<path d="M65.6753 331.836H63.1753V337.253H54.4253V339.753H63.1753V345.17H65.6753V339.753H74.4253V337.253H65.6753V331.836Z" fill="#D80027"/>
<path d="M69.8074 340.822L74.4252 343.387V340.822H69.8074ZM66.5991 340.822L74.4252 345.17V343.94L68.8122 340.822H66.5991ZM72.3406 345.17L66.5991 341.98V345.17H72.3406Z" fill="#0052B4"/>
<path d="M66.5991 340.822L74.4252 345.17V343.94L68.8122 340.822H66.5991Z" fill="white"/>
<path d="M66.5991 340.822L74.4252 345.17V343.94L68.8122 340.822H66.5991Z" fill="#D80027"/>
<path d="M57.9542 340.822L54.4253 342.782V340.822H57.9542ZM62.2514 341.375V345.17H55.421L62.2514 341.375Z" fill="#0052B4"/>
<path d="M60.0383 340.822L54.4253 343.94V345.17L62.2514 340.822H60.0383Z" fill="#D80027"/>
<path d="M59.0431 336.184L54.4253 333.619V336.184H59.0431ZM62.2514 336.184L54.4253 331.836V333.066L60.0383 336.184H62.2514ZM56.5099 331.836L62.2514 335.026V331.836H56.5099Z" fill="#0052B4"/>
<path d="M62.2514 336.184L54.4253 331.836V333.066L60.0383 336.184H62.2514Z" fill="white"/>
<path d="M62.2514 336.184L54.4253 331.836V333.066L60.0383 336.184H62.2514Z" fill="#D80027"/>
<path d="M70.8963 336.184L74.4252 334.224V336.184H70.8963ZM66.5991 335.631V331.836H73.4295L66.5991 335.631Z" fill="#0052B4"/>
<path d="M68.8122 336.184L74.4252 333.066V331.836L66.5991 336.184H68.8122Z" fill="#D80027"/>
</g>
<path d="M87.3578 343.003V333.548H93.507V334.984H89.0705V337.551H93.1884V338.987H89.0705V341.567H93.5439V343.003H87.3578ZM96.8516 338.848V343.003H95.1804V335.912H96.7777V337.117H96.8608C97.024 336.72 97.284 336.404 97.641 336.171C98.0011 335.937 98.4458 335.82 98.9752 335.82C99.4645 335.82 99.8908 335.924 100.254 336.134C100.62 336.343 100.903 336.646 101.103 337.043C101.307 337.44 101.407 337.922 101.403 338.488V343.003H99.7323V338.747C99.7323 338.273 99.6092 337.902 99.363 337.634C99.1198 337.366 98.7828 337.232 98.352 337.232C98.0596 337.232 97.7995 337.297 97.5718 337.426C97.3471 337.552 97.1701 337.736 97.0409 337.976C96.9147 338.216 96.8516 338.506 96.8516 338.848ZM106.186 345.81C105.586 345.81 105.07 345.728 104.64 345.565C104.209 345.405 103.862 345.19 103.601 344.919C103.339 344.648 103.158 344.348 103.056 344.019L104.561 343.654C104.629 343.792 104.727 343.929 104.857 344.065C104.986 344.203 105.16 344.317 105.378 344.406C105.6 344.499 105.878 344.545 106.214 344.545C106.688 344.545 107.08 344.429 107.391 344.199C107.702 343.971 107.857 343.595 107.857 343.072V341.729H107.774C107.688 341.901 107.562 342.078 107.396 342.26C107.233 342.441 107.016 342.594 106.745 342.717C106.477 342.84 106.14 342.901 105.734 342.901C105.189 342.901 104.695 342.774 104.252 342.518C103.812 342.26 103.461 341.875 103.199 341.364C102.941 340.85 102.811 340.207 102.811 339.434C102.811 338.656 102.941 337.999 103.199 337.463C103.461 336.925 103.813 336.517 104.256 336.24C104.7 335.96 105.194 335.82 105.738 335.82C106.154 335.82 106.495 335.89 106.763 336.032C107.034 336.171 107.249 336.338 107.409 336.535C107.57 336.729 107.691 336.912 107.774 337.085H107.867V335.912H109.515V343.118C109.515 343.725 109.37 344.226 109.081 344.623C108.791 345.02 108.396 345.317 107.894 345.514C107.393 345.711 106.823 345.81 106.186 345.81ZM106.2 341.59C106.554 341.59 106.856 341.504 107.105 341.332C107.354 341.159 107.543 340.912 107.673 340.589C107.802 340.265 107.867 339.878 107.867 339.425C107.867 338.979 107.802 338.588 107.673 338.253C107.546 337.917 107.359 337.657 107.109 337.472C106.863 337.285 106.56 337.191 106.2 337.191C105.828 337.191 105.517 337.288 105.267 337.482C105.018 337.676 104.83 337.942 104.704 338.28C104.578 338.616 104.515 338.997 104.515 339.425C104.515 339.859 104.578 340.239 104.704 340.565C104.833 340.889 105.023 341.141 105.272 341.323C105.524 341.501 105.834 341.59 106.2 341.59ZM112.898 333.548V343.003H111.227V333.548H112.898ZM114.617 343.003V335.912H116.288V343.003H114.617ZM115.457 334.906C115.192 334.906 114.965 334.818 114.774 334.642C114.583 334.464 114.488 334.25 114.488 334.001C114.488 333.748 114.583 333.535 114.774 333.359C114.965 333.181 115.192 333.091 115.457 333.091C115.725 333.091 115.953 333.181 116.14 333.359C116.331 333.535 116.427 333.748 116.427 334.001C116.427 334.25 116.331 334.464 116.14 334.642C115.953 334.818 115.725 334.906 115.457 334.906ZM123.611 337.786L122.088 337.953C122.044 337.799 121.969 337.654 121.861 337.519C121.757 337.383 121.615 337.274 121.437 337.191C121.258 337.108 121.04 337.066 120.781 337.066C120.433 337.066 120.141 337.142 119.904 337.292C119.67 337.443 119.555 337.639 119.558 337.879C119.555 338.085 119.63 338.253 119.784 338.382C119.941 338.511 120.199 338.617 120.56 338.7L121.769 338.959C122.44 339.104 122.939 339.333 123.265 339.647C123.594 339.961 123.76 340.372 123.763 340.879C123.76 341.326 123.629 341.72 123.371 342.061C123.116 342.4 122.76 342.664 122.305 342.855C121.849 343.046 121.326 343.141 120.735 343.141C119.867 343.141 119.168 342.96 118.639 342.597C118.11 342.23 117.794 341.721 117.693 341.069L119.322 340.912C119.396 341.232 119.553 341.473 119.793 341.636C120.033 341.8 120.346 341.881 120.73 341.881C121.127 341.881 121.446 341.8 121.686 341.636C121.929 341.473 122.051 341.272 122.051 341.032C122.051 340.829 121.972 340.661 121.815 340.528C121.661 340.396 121.421 340.295 121.095 340.224L119.886 339.97C119.205 339.828 118.702 339.59 118.376 339.254C118.05 338.916 117.888 338.488 117.891 337.971C117.888 337.534 118.007 337.155 118.247 336.835C118.49 336.512 118.827 336.263 119.258 336.087C119.692 335.909 120.192 335.82 120.758 335.82C121.589 335.82 122.243 335.997 122.72 336.351C123.2 336.705 123.497 337.183 123.611 337.786ZM126.813 338.848V343.003H125.141V333.548H126.776V337.117H126.859C127.025 336.717 127.282 336.401 127.63 336.171C127.981 335.937 128.427 335.82 128.968 335.82C129.461 335.82 129.89 335.923 130.256 336.129C130.623 336.335 130.906 336.637 131.106 337.034C131.309 337.431 131.411 337.916 131.411 338.488V343.003H129.739V338.747C129.739 338.27 129.616 337.899 129.37 337.634C129.127 337.366 128.785 337.232 128.345 337.232C128.05 337.232 127.785 337.297 127.551 337.426C127.32 337.552 127.139 337.736 127.006 337.976C126.877 338.216 126.813 338.506 126.813 338.848Z" fill="white"/>
<path d="M152.425 335.003L145.425 342.003M145.425 335.003L152.425 342.003" stroke="white" stroke-width="2" stroke-linecap="round" stroke-linejoin="round"/>
<rect x="31.4653" y="306.396" width="426.512" height="61.1083" rx="9.5" stroke="white" stroke-opacity="0.2"/>
<path d="M61.3583 289.737V278.1H62.7674V288.487H68.1765V289.737H61.3583ZM72.7447 289.941C72.1916 289.941 71.6897 289.837 71.239 289.629C70.7882 289.417 70.4303 289.112 70.1651 288.714C69.9 288.313 69.7674 287.828 69.7674 287.26C69.7674 286.76 69.8659 286.354 70.0629 286.044C70.2598 285.729 70.5231 285.483 70.8526 285.305C71.1822 285.127 71.5458 284.994 71.9435 284.907C72.3451 284.816 72.7485 284.744 73.1538 284.691C73.6841 284.623 74.114 284.572 74.4435 284.538C74.7769 284.5 75.0193 284.438 75.1708 284.35C75.3261 284.263 75.4038 284.112 75.4038 283.896V283.85C75.4038 283.29 75.2504 282.854 74.9435 282.544C74.6405 282.233 74.1803 282.078 73.5629 282.078C72.9227 282.078 72.4208 282.218 72.0572 282.498C71.6935 282.778 71.4379 283.078 71.2901 283.396L70.0174 282.941C70.2447 282.411 70.5477 281.998 70.9265 281.703C71.3091 281.403 71.7257 281.195 72.1765 281.078C72.631 280.957 73.078 280.896 73.5174 280.896C73.7977 280.896 74.1197 280.93 74.4833 280.998C74.8507 281.063 75.2049 281.197 75.5458 281.402C75.8905 281.606 76.1765 281.915 76.4038 282.328C76.631 282.741 76.7447 283.294 76.7447 283.987V289.737H75.4038V288.555H75.3356C75.2447 288.744 75.0932 288.947 74.881 289.163C74.6689 289.379 74.3867 289.563 74.0344 289.714C73.6822 289.866 73.2522 289.941 72.7447 289.941ZM72.9492 288.737C73.4795 288.737 73.9265 288.633 74.2901 288.424C74.6576 288.216 74.9341 287.947 75.1197 287.617C75.3091 287.288 75.4038 286.941 75.4038 286.578V285.35C75.3469 285.419 75.2219 285.481 75.0288 285.538C74.8394 285.591 74.6197 285.638 74.3697 285.68C74.1235 285.718 73.8829 285.752 73.6481 285.782C73.417 285.809 73.2295 285.832 73.0856 285.85C72.7371 285.896 72.4113 285.97 72.1083 286.072C71.8091 286.171 71.5666 286.32 71.381 286.521C71.1992 286.718 71.1083 286.987 71.1083 287.328C71.1083 287.794 71.2807 288.146 71.6254 288.385C71.9738 288.619 72.4151 288.737 72.9492 288.737ZM80.533 284.487V289.737H79.1921V281.01H80.4876V282.373H80.6012C80.8058 281.93 81.1164 281.574 81.533 281.305C81.9497 281.032 82.4876 280.896 83.1467 280.896C83.7376 280.896 84.2546 281.017 84.6978 281.26C85.141 281.498 85.4857 281.862 85.7319 282.35C85.9781 282.835 86.1012 283.449 86.1012 284.191V289.737H84.7603V284.282C84.7603 283.597 84.5823 283.063 84.2262 282.68C83.8701 282.294 83.3815 282.1 82.7603 282.1C82.3323 282.1 81.9497 282.193 81.6126 282.379C81.2792 282.564 81.016 282.835 80.8228 283.191C80.6296 283.547 80.533 283.979 80.533 284.487ZM92.0742 293.191C91.4265 293.191 90.8697 293.108 90.4038 292.941C89.9379 292.778 89.5496 292.563 89.239 292.294C88.9322 292.028 88.6879 291.744 88.506 291.441L89.5742 290.691C89.6954 290.85 89.8488 291.032 90.0344 291.237C90.2201 291.445 90.4738 291.625 90.7958 291.777C91.1216 291.932 91.5477 292.01 92.0742 292.01C92.7788 292.01 93.3602 291.839 93.8185 291.498C94.2769 291.157 94.506 290.623 94.506 289.896V288.123H94.3924C94.2939 288.282 94.1538 288.479 93.9719 288.714C93.7939 288.945 93.5363 289.152 93.1992 289.333C92.8659 289.511 92.4151 289.6 91.8469 289.6C91.1424 289.6 90.5098 289.434 89.9492 289.1C89.3924 288.767 88.9511 288.282 88.6254 287.646C88.3034 287.01 88.1424 286.237 88.1424 285.328C88.1424 284.434 88.2996 283.655 88.614 282.992C88.9284 282.326 89.3659 281.811 89.9265 281.447C90.4871 281.08 91.1348 280.896 91.8697 280.896C92.4379 280.896 92.8886 280.991 93.2219 281.18C93.5591 281.366 93.8166 281.578 93.9947 281.816C94.1765 282.051 94.3166 282.244 94.4151 282.396H94.5515V281.01H95.8469V289.987C95.8469 290.737 95.6765 291.347 95.3356 291.816C94.9985 292.29 94.5439 292.636 93.9719 292.856C93.4038 293.08 92.7712 293.191 92.0742 293.191ZM92.0288 288.396C92.5666 288.396 93.0212 288.273 93.3924 288.027C93.7636 287.78 94.0458 287.426 94.239 286.964C94.4322 286.502 94.5288 285.949 94.5288 285.305C94.5288 284.676 94.4341 284.121 94.2447 283.64C94.0553 283.159 93.775 282.782 93.4038 282.51C93.0326 282.237 92.5742 282.1 92.0288 282.1C91.4606 282.1 90.9871 282.244 90.6083 282.532C90.2333 282.82 89.9511 283.207 89.7617 283.691C89.5761 284.176 89.4833 284.714 89.4833 285.305C89.4833 285.911 89.578 286.447 89.7674 286.913C89.9606 287.375 90.2447 287.739 90.6197 288.004C90.9985 288.265 91.4682 288.396 92.0288 288.396ZM103.801 286.169V281.01H105.142V289.737H103.801V288.26H103.711C103.506 288.703 103.188 289.08 102.756 289.39C102.324 289.697 101.779 289.85 101.12 289.85C100.574 289.85 100.089 289.731 99.6651 289.492C99.2409 289.25 98.9076 288.886 98.6651 288.402C98.4227 287.913 98.3015 287.297 98.3015 286.555V281.01H99.6424V286.464C99.6424 287.1 99.8204 287.608 100.176 287.987C100.536 288.366 100.995 288.555 101.551 288.555C101.885 288.555 102.224 288.47 102.569 288.299C102.917 288.129 103.209 287.867 103.444 287.515C103.682 287.163 103.801 286.714 103.801 286.169ZM110.167 289.941C109.614 289.941 109.112 289.837 108.661 289.629C108.21 289.417 107.852 289.112 107.587 288.714C107.322 288.313 107.189 287.828 107.189 287.26C107.189 286.76 107.288 286.354 107.485 286.044C107.682 285.729 107.945 285.483 108.275 285.305C108.604 285.127 108.968 284.994 109.365 284.907C109.767 284.816 110.17 284.744 110.576 284.691C111.106 284.623 111.536 284.572 111.865 284.538C112.199 284.5 112.441 284.438 112.593 284.35C112.748 284.263 112.826 284.112 112.826 283.896V283.85C112.826 283.29 112.672 282.854 112.365 282.544C112.062 282.233 111.602 282.078 110.985 282.078C110.345 282.078 109.843 282.218 109.479 282.498C109.115 282.778 108.86 283.078 108.712 283.396L107.439 282.941C107.667 282.411 107.97 281.998 108.348 281.703C108.731 281.403 109.148 281.195 109.598 281.078C110.053 280.957 110.5 280.896 110.939 280.896C111.22 280.896 111.542 280.93 111.905 280.998C112.273 281.063 112.627 281.197 112.968 281.402C113.312 281.606 113.598 281.915 113.826 282.328C114.053 282.741 114.167 283.294 114.167 283.987V289.737H112.826V288.555H112.757C112.667 288.744 112.515 288.947 112.303 289.163C112.091 289.379 111.809 289.563 111.456 289.714C111.104 289.866 110.674 289.941 110.167 289.941ZM110.371 288.737C110.901 288.737 111.348 288.633 111.712 288.424C112.079 288.216 112.356 287.947 112.542 287.617C112.731 287.288 112.826 286.941 112.826 286.578V285.35C112.769 285.419 112.644 285.481 112.451 285.538C112.261 285.591 112.042 285.638 111.792 285.68C111.545 285.718 111.305 285.752 111.07 285.782C110.839 285.809 110.651 285.832 110.507 285.85C110.159 285.896 109.833 285.97 109.53 286.072C109.231 286.171 108.989 286.32 108.803 286.521C108.621 286.718 108.53 286.987 108.53 287.328C108.53 287.794 108.703 288.146 109.047 288.385C109.396 288.619 109.837 288.737 110.371 288.737ZM120.137 293.191C119.489 293.191 118.932 293.108 118.466 292.941C118 292.778 117.612 292.563 117.301 292.294C116.995 292.028 116.75 291.744 116.569 291.441L117.637 290.691C117.758 290.85 117.911 291.032 118.097 291.237C118.283 291.445 118.536 291.625 118.858 291.777C119.184 291.932 119.61 292.01 120.137 292.01C120.841 292.01 121.423 291.839 121.881 291.498C122.339 291.157 122.569 290.623 122.569 289.896V288.123H122.455C122.356 288.282 122.216 288.479 122.034 288.714C121.856 288.945 121.599 289.152 121.262 289.333C120.928 289.511 120.478 289.6 119.909 289.6C119.205 289.6 118.572 289.434 118.012 289.1C117.455 288.767 117.014 288.282 116.688 287.646C116.366 287.01 116.205 286.237 116.205 285.328C116.205 284.434 116.362 283.655 116.676 282.992C116.991 282.326 117.428 281.811 117.989 281.447C118.55 281.08 119.197 280.896 119.932 280.896C120.5 280.896 120.951 280.991 121.284 281.18C121.622 281.366 121.879 281.578 122.057 281.816C122.239 282.051 122.379 282.244 122.478 282.396H122.614V281.01H123.909V289.987C123.909 290.737 123.739 291.347 123.398 291.816C123.061 292.29 122.606 292.636 122.034 292.856C121.466 293.08 120.834 293.191 120.137 293.191ZM120.091 288.396C120.629 288.396 121.084 288.273 121.455 288.027C121.826 287.78 122.108 287.426 122.301 286.964C122.495 286.502 122.591 285.949 122.591 285.305C122.591 284.676 122.497 284.121 122.307 283.64C122.118 283.159 121.837 282.782 121.466 282.51C121.095 282.237 120.637 282.1 120.091 282.1C119.523 282.1 119.05 282.244 118.671 282.532C118.296 282.82 118.014 283.207 117.824 283.691C117.639 284.176 117.546 284.714 117.546 285.305C117.546 285.911 117.641 286.447 117.83 286.913C118.023 287.375 118.307 287.739 118.682 288.004C119.061 288.265 119.531 288.396 120.091 288.396ZM130.023 289.919C129.182 289.919 128.457 289.733 127.847 289.362C127.241 288.987 126.773 288.464 126.444 287.794C126.118 287.119 125.955 286.335 125.955 285.441C125.955 284.547 126.118 283.76 126.444 283.078C126.773 282.392 127.231 281.858 127.819 281.475C128.409 281.089 129.099 280.896 129.887 280.896C130.341 280.896 130.79 280.972 131.233 281.123C131.676 281.275 132.08 281.521 132.444 281.862C132.807 282.199 133.097 282.646 133.313 283.203C133.529 283.76 133.637 284.445 133.637 285.26V285.828H126.909V284.669H132.273C132.273 284.176 132.175 283.737 131.978 283.35C131.784 282.964 131.508 282.659 131.148 282.436C130.792 282.212 130.372 282.1 129.887 282.1C129.353 282.1 128.891 282.233 128.5 282.498C128.114 282.76 127.817 283.1 127.608 283.521C127.4 283.941 127.296 284.392 127.296 284.873V285.646C127.296 286.305 127.409 286.864 127.637 287.322C127.868 287.777 128.188 288.123 128.597 288.362C129.006 288.597 129.481 288.714 130.023 288.714C130.375 288.714 130.694 288.665 130.978 288.566C131.266 288.464 131.514 288.313 131.722 288.112C131.93 287.907 132.091 287.653 132.205 287.35L133.5 287.714C133.364 288.153 133.135 288.54 132.813 288.873C132.491 289.203 132.093 289.46 131.62 289.646C131.146 289.828 130.614 289.919 130.023 289.919ZM141.858 282.964L140.654 283.305C140.578 283.104 140.466 282.909 140.319 282.72C140.175 282.527 139.978 282.367 139.728 282.242C139.478 282.117 139.158 282.055 138.767 282.055C138.233 282.055 137.788 282.178 137.432 282.424C137.08 282.667 136.904 282.975 136.904 283.35C136.904 283.684 137.025 283.947 137.267 284.14C137.51 284.333 137.889 284.494 138.404 284.623L139.699 284.941C140.48 285.131 141.061 285.421 141.444 285.811C141.826 286.197 142.017 286.695 142.017 287.305C142.017 287.805 141.873 288.252 141.586 288.646C141.301 289.04 140.904 289.35 140.392 289.578C139.881 289.805 139.286 289.919 138.608 289.919C137.718 289.919 136.981 289.725 136.398 289.339C135.815 288.953 135.445 288.388 135.29 287.646L136.563 287.328C136.684 287.797 136.913 288.15 137.25 288.385C137.591 288.619 138.036 288.737 138.586 288.737C139.211 288.737 139.707 288.604 140.074 288.339C140.445 288.07 140.631 287.748 140.631 287.373C140.631 287.07 140.525 286.816 140.313 286.612C140.101 286.403 139.775 286.248 139.336 286.146L137.881 285.805C137.082 285.616 136.495 285.322 136.12 284.924C135.748 284.523 135.563 284.021 135.563 283.419C135.563 282.926 135.701 282.491 135.978 282.112C136.258 281.733 136.639 281.436 137.12 281.22C137.605 281.004 138.154 280.896 138.767 280.896C139.631 280.896 140.309 281.085 140.801 281.464C141.298 281.843 141.65 282.343 141.858 282.964Z" fill="#909090"/>
<path d="M34.5884 291.468V277.882C34.5884 277.281 34.8269 276.706 35.2516 276.281C35.6762 275.856 36.2522 275.618 36.8527 275.618H48.1746C48.4148 275.618 48.6452 275.713 48.815 275.883C48.9849 276.053 49.0803 276.283 49.0803 276.523V292.827C49.0803 293.067 48.9849 293.297 48.815 293.467C48.6452 293.637 48.4148 293.733 48.1746 293.733H36.8527C36.2522 293.733 35.6762 293.494 35.2516 293.069C34.8269 292.645 34.5884 292.069 34.5884 291.468ZM34.5884 291.468C34.5884 290.868 34.8269 290.292 35.2516 289.867C35.6762 289.442 36.2522 289.204 36.8527 289.204H49.0803" stroke="#909090" stroke-width="1.5" stroke-linecap="round" stroke-linejoin="round"/>
<path d="M38.2114 285.581L41.8344 279.241L45.4574 285.581" stroke="#909090" stroke-width="1.5" stroke-linecap="round" stroke-linejoin="round"/>
<path d="M39.2075 283.77H44.3703" stroke="#909090" stroke-width="1.5" stroke-linecap="round" stroke-linejoin="round"/>
<rect x="323.375" y="198.743" width="120.111" height="35.2299" rx="17.6149" stroke="white" stroke-opacity="0.5"/>
<g clip-path="url(#clip3_1187_379)">
<path d="M351.264 209.691H337.93V223.024H357.93V209.691H351.264Z" fill="white"/>
<path d="M337.93 209.691H344.597V223.024H337.93V209.691Z" fill="#6DA544"/>
<path d="M351.264 209.691H357.93V223.024H351.264V209.691Z" fill="#D80027"/>
</g>
<path d="M372.576 211.403V220.857H370.863V211.403H372.576ZM377.897 213.767V215.059H373.821V213.767H377.897ZM374.827 212.068H376.499V218.725C376.499 218.949 376.532 219.122 376.6 219.242C376.671 219.359 376.763 219.439 376.877 219.482C376.991 219.525 377.117 219.546 377.256 219.546C377.36 219.546 377.456 219.539 377.542 219.523C377.631 219.508 377.699 219.494 377.745 219.482L378.027 220.788C377.937 220.819 377.81 220.853 377.643 220.89C377.48 220.927 377.28 220.948 377.043 220.954C376.625 220.967 376.248 220.904 375.912 220.765C375.577 220.624 375.311 220.405 375.114 220.11C374.92 219.814 374.824 219.445 374.827 219.002V212.068ZM381.335 221.001C380.886 221.001 380.481 220.921 380.121 220.76C379.764 220.597 379.481 220.357 379.272 220.04C379.066 219.723 378.963 219.332 378.963 218.868C378.963 218.468 379.036 218.137 379.184 217.875C379.332 217.614 379.533 217.404 379.789 217.247C380.044 217.09 380.332 216.972 380.652 216.892C380.975 216.809 381.309 216.749 381.654 216.712C382.069 216.669 382.406 216.63 382.665 216.596C382.923 216.559 383.111 216.504 383.228 216.43C383.348 216.353 383.408 216.235 383.408 216.075V216.047C383.408 215.699 383.305 215.43 383.099 215.239C382.893 215.048 382.596 214.953 382.208 214.953C381.799 214.953 381.474 215.042 381.234 215.221C380.997 215.399 380.837 215.61 380.754 215.853L379.193 215.632C379.316 215.201 379.52 214.841 379.803 214.551C380.086 214.259 380.432 214.04 380.841 213.896C381.251 213.748 381.703 213.674 382.199 213.674C382.54 213.674 382.88 213.714 383.219 213.794C383.557 213.874 383.867 214.007 384.147 214.191C384.427 214.373 384.652 214.621 384.821 214.934C384.993 215.248 385.079 215.641 385.079 216.112V220.857H383.473V219.883H383.417C383.316 220.08 383.173 220.265 382.988 220.437C382.807 220.607 382.577 220.744 382.3 220.848C382.026 220.95 381.705 221.001 381.335 221.001ZM381.769 219.773C382.105 219.773 382.396 219.706 382.642 219.574C382.888 219.439 383.077 219.26 383.21 219.039C383.345 218.817 383.413 218.575 383.413 218.314V217.478C383.361 217.521 383.271 217.561 383.145 217.598C383.022 217.635 382.883 217.667 382.73 217.695C382.576 217.723 382.423 217.747 382.273 217.769C382.122 217.791 381.991 217.809 381.88 217.824C381.631 217.858 381.408 217.914 381.211 217.991C381.014 218.068 380.858 218.175 380.745 218.314C380.631 218.449 380.574 218.625 380.574 218.84C380.574 219.148 380.686 219.38 380.911 219.537C381.135 219.694 381.422 219.773 381.769 219.773ZM388.431 211.403V220.857H386.76V211.403H388.431ZM390.149 220.857V213.767H391.821V220.857H390.149ZM390.99 212.76C390.725 212.76 390.497 212.672 390.306 212.497C390.116 212.318 390.02 212.105 390.02 211.855C390.02 211.603 390.116 211.389 390.306 211.214C390.497 211.035 390.725 210.946 390.99 210.946C391.257 210.946 391.485 211.035 391.673 211.214C391.864 211.389 391.959 211.603 391.959 211.855C391.959 212.105 391.864 212.318 391.673 212.497C391.485 212.672 391.257 212.76 390.99 212.76ZM395.58 221.001C395.13 221.001 394.726 220.921 394.365 220.76C394.008 220.597 393.725 220.357 393.516 220.04C393.31 219.723 393.207 219.332 393.207 218.868C393.207 218.468 393.281 218.137 393.428 217.875C393.576 217.614 393.778 217.404 394.033 217.247C394.288 217.09 394.576 216.972 394.896 216.892C395.219 216.809 395.553 216.749 395.898 216.712C396.314 216.669 396.651 216.63 396.909 216.596C397.168 216.559 397.355 216.504 397.472 216.43C397.592 216.353 397.652 216.235 397.652 216.075V216.047C397.652 215.699 397.549 215.43 397.343 215.239C397.137 215.048 396.84 214.953 396.452 214.953C396.043 214.953 395.718 215.042 395.478 215.221C395.241 215.399 395.081 215.61 394.998 215.853L393.438 215.632C393.561 215.201 393.764 214.841 394.047 214.551C394.33 214.259 394.676 214.04 395.086 213.896C395.495 213.748 395.947 213.674 396.443 213.674C396.784 213.674 397.125 213.714 397.463 213.794C397.802 213.874 398.111 214.007 398.391 214.191C398.671 214.373 398.896 214.621 399.065 214.934C399.237 215.248 399.324 215.641 399.324 216.112V220.857H397.717V219.883H397.662C397.56 220.08 397.417 220.265 397.232 220.437C397.051 220.607 396.821 220.744 396.544 220.848C396.271 220.95 395.949 221.001 395.58 221.001ZM396.014 219.773C396.349 219.773 396.64 219.706 396.886 219.574C397.132 219.439 397.322 219.26 397.454 219.039C397.589 218.817 397.657 218.575 397.657 218.314V217.478C397.605 217.521 397.515 217.561 397.389 217.598C397.266 217.635 397.128 217.667 396.974 217.695C396.82 217.723 396.668 217.747 396.517 217.769C396.366 217.791 396.235 217.809 396.124 217.824C395.875 217.858 395.652 217.914 395.455 217.991C395.258 218.068 395.103 218.175 394.989 218.314C394.875 218.449 394.818 218.625 394.818 218.84C394.818 219.148 394.93 219.38 395.155 219.537C395.38 219.694 395.666 219.773 396.014 219.773ZM402.675 216.703V220.857H401.004V213.767H402.601V214.971H402.684C402.847 214.574 403.108 214.259 403.465 214.025C403.825 213.791 404.269 213.674 404.799 213.674C405.288 213.674 405.714 213.779 406.077 213.988C406.444 214.197 406.727 214.501 406.927 214.898C407.13 215.295 407.23 215.776 407.227 216.343V220.857H405.556V216.601C405.556 216.127 405.433 215.756 405.186 215.488C404.943 215.221 404.606 215.087 404.175 215.087C403.883 215.087 403.623 215.151 403.395 215.281C403.171 215.407 402.994 215.59 402.864 215.83C402.738 216.07 402.675 216.361 402.675 216.703Z" fill="white"/>
<path d="M428.93 212.857L421.93 219.857M421.93 212.857L428.93 219.857" stroke="white" stroke-width="2" stroke-linecap="round" stroke-linejoin="round"/>
<rect x="177.42" y="198.743" width="136.673" height="35.2299" rx="17.6149" stroke="white" stroke-opacity="0.5"/>
<g clip-path="url(#clip4_1187_379)">
<path d="M188.757 209.691H208.757V223.024H188.757V209.691Z" fill="#FFDA44"/>
<path d="M188.757 209.691H208.757V216.357H188.757V209.691Z" fill="#338AF3"/>
</g>
<path d="M227.649 211.403H229.362V217.58C229.362 218.257 229.202 218.852 228.882 219.366C228.565 219.88 228.118 220.282 227.543 220.571C226.967 220.857 226.295 221.001 225.525 221.001C224.753 221.001 224.079 220.857 223.503 220.571C222.928 220.282 222.482 219.88 222.165 219.366C221.848 218.852 221.689 218.257 221.689 217.58V211.403H223.402V217.437C223.402 217.831 223.488 218.181 223.66 218.489C223.836 218.797 224.082 219.039 224.399 219.214C224.716 219.386 225.091 219.472 225.525 219.472C225.959 219.472 226.335 219.386 226.652 219.214C226.972 219.039 227.218 218.797 227.39 218.489C227.563 218.181 227.649 217.831 227.649 217.437V211.403ZM232.673 218.632L232.668 216.615H232.936L235.484 213.767H237.437L234.302 217.257H233.956L232.673 218.632ZM231.149 220.857V211.403H232.821V220.857H231.149ZM235.6 220.857L233.291 217.631L234.418 216.453L237.599 220.857H235.6ZM238.551 220.857V213.767H240.171V214.948H240.245C240.374 214.539 240.596 214.224 240.91 214.002C241.227 213.777 241.588 213.665 241.995 213.665C242.087 213.665 242.19 213.67 242.304 213.679C242.421 213.685 242.518 213.696 242.595 213.711V215.248C242.524 215.224 242.412 215.202 242.258 215.184C242.107 215.162 241.961 215.151 241.819 215.151C241.515 215.151 241.241 215.218 240.998 215.35C240.757 215.479 240.568 215.659 240.43 215.89C240.291 216.121 240.222 216.387 240.222 216.689V220.857H238.551ZM245.619 221.001C245.169 221.001 244.765 220.921 244.404 220.76C244.047 220.597 243.764 220.357 243.555 220.04C243.349 219.723 243.246 219.332 243.246 218.868C243.246 218.468 243.32 218.137 243.467 217.875C243.615 217.614 243.817 217.404 244.072 217.247C244.328 217.09 244.615 216.972 244.935 216.892C245.259 216.809 245.592 216.749 245.937 216.712C246.353 216.669 246.69 216.63 246.948 216.596C247.207 216.559 247.394 216.504 247.511 216.43C247.631 216.353 247.691 216.235 247.691 216.075V216.047C247.691 215.699 247.588 215.43 247.382 215.239C247.176 215.048 246.879 214.953 246.491 214.953C246.082 214.953 245.757 215.042 245.517 215.221C245.28 215.399 245.12 215.61 245.037 215.853L243.477 215.632C243.6 215.201 243.803 214.841 244.086 214.551C244.369 214.259 244.715 214.04 245.125 213.896C245.534 213.748 245.986 213.674 246.482 213.674C246.824 213.674 247.164 213.714 247.502 213.794C247.841 213.874 248.15 214.007 248.43 214.191C248.71 214.373 248.935 214.621 249.104 214.934C249.276 215.248 249.363 215.641 249.363 216.112V220.857H247.756V219.883H247.701C247.599 220.08 247.456 220.265 247.271 220.437C247.09 220.607 246.86 220.744 246.583 220.848C246.31 220.95 245.988 221.001 245.619 221.001ZM246.053 219.773C246.388 219.773 246.679 219.706 246.925 219.574C247.171 219.439 247.361 219.26 247.493 219.039C247.628 218.817 247.696 218.575 247.696 218.314V217.478C247.644 217.521 247.554 217.561 247.428 217.598C247.305 217.635 247.167 217.667 247.013 217.695C246.859 217.723 246.707 217.747 246.556 217.769C246.405 217.791 246.274 217.809 246.163 217.824C245.914 217.858 245.691 217.914 245.494 217.991C245.297 218.068 245.142 218.175 245.028 218.314C244.914 218.449 244.857 218.625 244.857 218.84C244.857 219.148 244.969 219.38 245.194 219.537C245.419 219.694 245.705 219.773 246.053 219.773ZM251.043 220.857V213.767H252.714V220.857H251.043ZM251.883 212.76C251.619 212.76 251.391 212.672 251.2 212.497C251.009 212.318 250.914 212.105 250.914 211.855C250.914 211.603 251.009 211.389 251.2 211.214C251.391 211.035 251.619 210.946 251.883 210.946C252.151 210.946 252.379 211.035 252.566 211.214C252.757 211.389 252.853 211.603 252.853 211.855C252.853 212.105 252.757 212.318 252.566 212.497C252.379 212.672 252.151 212.76 251.883 212.76ZM256.104 216.703V220.857H254.433V213.767H256.03V214.971H256.113C256.276 214.574 256.536 214.259 256.893 214.025C257.253 213.791 257.698 213.674 258.227 213.674C258.717 213.674 259.143 213.779 259.506 213.988C259.872 214.197 260.156 214.501 260.356 214.898C260.559 215.295 260.659 215.776 260.656 216.343V220.857H258.984V216.601C258.984 216.127 258.861 215.756 258.615 215.488C258.372 215.221 258.035 215.087 257.604 215.087C257.312 215.087 257.052 215.151 256.824 215.281C256.599 215.407 256.422 215.59 256.293 215.83C256.167 216.07 256.104 216.361 256.104 216.703ZM262.355 220.857V213.767H264.026V220.857H262.355ZM263.195 212.76C262.93 212.76 262.702 212.672 262.511 212.497C262.321 212.318 262.225 212.105 262.225 211.855C262.225 211.603 262.321 211.389 262.511 211.214C262.702 211.035 262.93 210.946 263.195 210.946C263.462 210.946 263.69 211.035 263.878 211.214C264.069 211.389 264.164 211.603 264.164 211.855C264.164 212.105 264.069 212.318 263.878 212.497C263.69 212.672 263.462 212.76 263.195 212.76ZM267.785 221.001C267.335 221.001 266.931 220.921 266.571 220.76C266.214 220.597 265.93 220.357 265.721 220.04C265.515 219.723 265.412 219.332 265.412 218.868C265.412 218.468 265.486 218.137 265.633 217.875C265.781 217.614 265.983 217.404 266.238 217.247C266.494 217.09 266.781 216.972 267.101 216.892C267.425 216.809 267.758 216.749 268.103 216.712C268.519 216.669 268.856 216.63 269.114 216.596C269.373 216.559 269.56 216.504 269.677 216.43C269.797 216.353 269.857 216.235 269.857 216.075V216.047C269.857 215.699 269.754 215.43 269.548 215.239C269.342 215.048 269.045 214.953 268.657 214.953C268.248 214.953 267.923 215.042 267.683 215.221C267.446 215.399 267.286 215.61 267.203 215.853L265.643 215.632C265.766 215.201 265.969 214.841 266.252 214.551C266.535 214.259 266.881 214.04 267.291 213.896C267.7 213.748 268.152 213.674 268.648 213.674C268.99 213.674 269.33 213.714 269.668 213.794C270.007 213.874 270.316 214.007 270.596 214.191C270.876 214.373 271.101 214.621 271.27 214.934C271.442 215.248 271.529 215.641 271.529 216.112V220.857H269.922V219.883H269.867C269.765 220.08 269.622 220.265 269.437 220.437C269.256 220.607 269.026 220.744 268.749 220.848C268.476 220.95 268.154 221.001 267.785 221.001ZM268.219 219.773C268.554 219.773 268.845 219.706 269.091 219.574C269.337 219.439 269.527 219.26 269.659 219.039C269.794 218.817 269.862 218.575 269.862 218.314V217.478C269.81 217.521 269.72 217.561 269.594 217.598C269.471 217.635 269.333 217.667 269.179 217.695C269.025 217.723 268.873 217.747 268.722 217.769C268.571 217.791 268.44 217.809 268.329 217.824C268.08 217.858 267.857 217.914 267.66 217.991C267.463 218.068 267.308 218.175 267.194 218.314C267.08 218.449 267.023 218.625 267.023 218.84C267.023 219.148 267.135 219.38 267.36 219.537C267.585 219.694 267.871 219.773 268.219 219.773ZM274.88 216.703V220.857H273.209V213.767H274.806V214.971H274.889C275.053 214.574 275.313 214.259 275.67 214.025C276.03 213.791 276.474 213.674 277.004 213.674C277.493 213.674 277.919 213.779 278.283 213.988C278.649 214.197 278.932 214.501 279.132 214.898C279.335 215.295 279.435 215.776 279.432 216.343V220.857H277.761V216.601C277.761 216.127 277.638 215.756 277.392 215.488C277.148 215.221 276.811 215.087 276.381 215.087C276.088 215.087 275.828 215.151 275.6 215.281C275.376 215.407 275.199 215.59 275.069 215.83C274.943 216.07 274.88 216.361 274.88 216.703Z" fill="white"/>
<path d="M302.757 212.857L295.757 219.857M295.757 212.857L302.757 219.857" stroke="white" stroke-width="2" stroke-linecap="round" stroke-linejoin="round"/>
<rect x="40.7817" y="198.743" width="127.357" height="35.2299" rx="17.6149" stroke="white" stroke-opacity="0.5"/>
<g clip-path="url(#clip5_1187_379)">
<path d="M53.9604 209.691V223.024H73.9604V209.691H53.9604Z" fill="white"/>
<path d="M53.9604 209.691H73.9604V223.024H53.9604V209.691Z" fill="#0052B4"/>
<path d="M53.9604 209.691H73.9604V214.135H53.9604V209.691Z" fill="white"/>
<path d="M53.9604 218.58H73.9604V223.024H53.9604V218.58Z" fill="#D80027"/>
</g>
<path d="M86.893 220.857V211.403H90.4384C91.1648 211.403 91.7741 211.529 92.2666 211.781C92.7621 212.034 93.136 212.388 93.3884 212.843C93.6438 213.296 93.7715 213.823 93.7715 214.427C93.7715 215.033 93.6423 215.559 93.3837 216.006C93.1283 216.449 92.7513 216.792 92.2527 217.035C91.7541 217.275 91.1417 217.395 90.4153 217.395H87.8901V215.973H90.1845C90.6092 215.973 90.957 215.915 91.2278 215.798C91.4987 215.678 91.6987 215.504 91.828 215.276C91.9603 215.045 92.0265 214.762 92.0265 214.427C92.0265 214.091 91.9603 213.805 91.828 213.568C91.6957 213.328 91.4941 213.146 91.2232 213.023C90.9524 212.897 90.6031 212.834 90.1753 212.834H88.6057V220.857H86.893ZM91.7772 216.573L94.1178 220.857H92.2065L89.9075 216.573H91.7772ZM99.7937 217.875V213.767H101.465V220.857H99.8445V219.597H99.7706C99.6106 219.994 99.3475 220.319 98.9812 220.571C98.6181 220.824 98.1703 220.95 97.6378 220.95C97.1731 220.95 96.7622 220.847 96.4052 220.64C96.0513 220.431 95.7743 220.128 95.5743 219.731C95.3742 219.331 95.2742 218.848 95.2742 218.281V213.767H96.9454V218.023C96.9454 218.472 97.0685 218.829 97.3147 219.094C97.5609 219.359 97.884 219.491 98.2841 219.491C98.5303 219.491 98.7689 219.431 98.9997 219.311C99.2305 219.191 99.4198 219.012 99.5675 218.775C99.7183 218.535 99.7937 218.235 99.7937 217.875ZM108.788 215.641L107.264 215.807C107.221 215.653 107.146 215.508 107.038 215.373C106.933 215.238 106.792 215.128 106.613 215.045C106.435 214.962 106.216 214.921 105.958 214.921C105.61 214.921 105.318 214.996 105.081 215.147C104.847 215.298 104.731 215.493 104.735 215.733C104.731 215.939 104.807 216.107 104.961 216.236C105.118 216.366 105.376 216.472 105.736 216.555L106.946 216.813C107.617 216.958 108.115 217.187 108.442 217.501C108.771 217.815 108.937 218.226 108.94 218.734C108.937 219.18 108.806 219.574 108.548 219.916C108.292 220.254 107.937 220.519 107.481 220.71C107.026 220.901 106.503 220.996 105.912 220.996C105.044 220.996 104.345 220.814 103.816 220.451C103.286 220.085 102.971 219.576 102.869 218.923L104.499 218.766C104.573 219.086 104.73 219.328 104.97 219.491C105.21 219.654 105.522 219.736 105.907 219.736C106.304 219.736 106.623 219.654 106.863 219.491C107.106 219.328 107.227 219.126 107.227 218.886C107.227 218.683 107.149 218.515 106.992 218.383C106.838 218.251 106.598 218.149 106.272 218.078L105.062 217.824C104.382 217.683 103.879 217.444 103.553 217.109C103.226 216.77 103.065 216.343 103.068 215.825C103.065 215.388 103.183 215.01 103.423 214.69C103.667 214.367 104.004 214.117 104.434 213.942C104.868 213.763 105.369 213.674 105.935 213.674C106.766 213.674 107.42 213.851 107.897 214.205C108.377 214.559 108.674 215.038 108.788 215.641ZM115.923 215.641L114.399 215.807C114.356 215.653 114.281 215.508 114.173 215.373C114.068 215.238 113.927 215.128 113.748 215.045C113.57 214.962 113.351 214.921 113.093 214.921C112.745 214.921 112.452 214.996 112.216 215.147C111.982 215.298 111.866 215.493 111.869 215.733C111.866 215.939 111.942 216.107 112.095 216.236C112.252 216.366 112.511 216.472 112.871 216.555L114.081 216.813C114.751 216.958 115.25 217.187 115.576 217.501C115.906 217.815 116.072 218.226 116.075 218.734C116.072 219.18 115.941 219.574 115.682 219.916C115.427 220.254 115.072 220.519 114.616 220.71C114.161 220.901 113.637 220.996 113.046 220.996C112.179 220.996 111.48 220.814 110.951 220.451C110.421 220.085 110.106 219.576 110.004 218.923L111.634 218.766C111.708 219.086 111.865 219.328 112.105 219.491C112.345 219.654 112.657 219.736 113.042 219.736C113.439 219.736 113.757 219.654 113.997 219.491C114.241 219.328 114.362 219.126 114.362 218.886C114.362 218.683 114.284 218.515 114.127 218.383C113.973 218.251 113.733 218.149 113.407 218.078L112.197 217.824C111.517 217.683 111.014 217.444 110.687 217.109C110.361 216.77 110.2 216.343 110.203 215.825C110.2 215.388 110.318 215.01 110.558 214.69C110.801 214.367 111.138 214.117 111.569 213.942C112.003 213.763 112.503 213.674 113.07 213.674C113.901 213.674 114.555 213.851 115.032 214.205C115.512 214.559 115.809 215.038 115.923 215.641ZM117.453 220.857V213.767H119.124V220.857H117.453ZM118.293 212.76C118.028 212.76 117.801 212.672 117.61 212.497C117.419 212.318 117.324 212.105 117.324 211.855C117.324 211.603 117.419 211.389 117.61 211.214C117.801 211.035 118.028 210.946 118.293 210.946C118.561 210.946 118.789 211.035 118.976 211.214C119.167 211.389 119.263 211.603 119.263 211.855C119.263 212.105 119.167 212.318 118.976 212.497C118.789 212.672 118.561 212.76 118.293 212.76ZM122.883 221.001C122.434 221.001 122.029 220.921 121.669 220.76C121.312 220.597 121.029 220.357 120.819 220.04C120.613 219.723 120.51 219.332 120.51 218.868C120.51 218.468 120.584 218.137 120.732 217.875C120.879 217.614 121.081 217.404 121.337 217.247C121.592 217.09 121.88 216.972 122.2 216.892C122.523 216.809 122.857 216.749 123.202 216.712C123.617 216.669 123.954 216.63 124.213 216.596C124.471 216.559 124.659 216.504 124.776 216.43C124.896 216.353 124.956 216.235 124.956 216.075V216.047C124.956 215.699 124.853 215.43 124.647 215.239C124.44 215.048 124.143 214.953 123.756 214.953C123.346 214.953 123.022 215.042 122.781 215.221C122.544 215.399 122.384 215.61 122.301 215.853L120.741 215.632C120.864 215.201 121.067 214.841 121.35 214.551C121.634 214.259 121.98 214.04 122.389 213.896C122.798 213.748 123.251 213.674 123.746 213.674C124.088 213.674 124.428 213.714 124.767 213.794C125.105 213.874 125.414 214.007 125.694 214.191C125.975 214.373 126.199 214.621 126.368 214.934C126.541 215.248 126.627 215.641 126.627 216.112V220.857H125.02V219.883H124.965C124.864 220.08 124.72 220.265 124.536 220.437C124.354 220.607 124.125 220.744 123.848 220.848C123.574 220.95 123.252 221.001 122.883 221.001ZM123.317 219.773C123.652 219.773 123.943 219.706 124.189 219.574C124.436 219.439 124.625 219.26 124.757 219.039C124.893 218.817 124.96 218.575 124.96 218.314V217.478C124.908 217.521 124.819 217.561 124.693 217.598C124.57 217.635 124.431 217.667 124.277 217.695C124.123 217.723 123.971 217.747 123.82 217.769C123.669 217.791 123.539 217.809 123.428 217.824C123.178 217.858 122.955 217.914 122.758 217.991C122.561 218.068 122.406 218.175 122.292 218.314C122.178 218.449 122.121 218.625 122.121 218.84C122.121 219.148 122.234 219.38 122.458 219.537C122.683 219.694 122.969 219.773 123.317 219.773ZM129.979 216.703V220.857H128.307V213.767H129.905V214.971H129.988C130.151 214.574 130.411 214.259 130.768 214.025C131.128 213.791 131.573 213.674 132.102 213.674C132.591 213.674 133.018 213.779 133.381 213.988C133.747 214.197 134.03 214.501 134.23 214.898C134.433 215.295 134.533 215.776 134.53 216.343V220.857H132.859V216.601C132.859 216.127 132.736 215.756 132.49 215.488C132.247 215.221 131.91 215.087 131.479 215.087C131.187 215.087 130.926 215.151 130.699 215.281C130.474 215.407 130.297 215.59 130.168 215.83C130.042 216.07 129.979 216.361 129.979 216.703Z" fill="white"/>
<path d="M154.96 212.857L147.96 219.857M147.96 212.857L154.96 219.857" stroke="white" stroke-width="2" stroke-linecap="round" stroke-linejoin="round"/>
<rect x="31.4653" y="185.286" width="426.512" height="61.1083" rx="9.5" stroke="white" stroke-opacity="0.2"/>
<path d="M70.5856 158.024V169.661H69.2219L62.881 160.524H62.7674V169.661H61.3583V158.024H62.7219L69.0856 167.183H69.1992V158.024H70.5856ZM75.7915 169.865C75.2385 169.865 74.7366 169.761 74.2859 169.553C73.8351 169.341 73.4772 169.036 73.212 168.638C72.9469 168.236 72.8143 167.752 72.8143 167.183C72.8143 166.683 72.9128 166.278 73.1097 165.967C73.3067 165.653 73.57 165.407 73.8995 165.229C74.229 165.051 74.5927 164.918 74.9904 164.831C75.3919 164.74 75.7953 164.668 76.2006 164.615C76.7309 164.547 77.1609 164.496 77.4904 164.462C77.8237 164.424 78.0662 164.361 78.2177 164.274C78.373 164.187 78.4506 164.036 78.4506 163.82V163.774C78.4506 163.214 78.2972 162.778 77.9904 162.467C77.6874 162.157 77.2272 162.002 76.6097 162.002C75.9696 162.002 75.4677 162.142 75.104 162.422C74.7404 162.702 74.4847 163.002 74.337 163.32L73.0643 162.865C73.2915 162.335 73.5946 161.922 73.9734 161.627C74.3559 161.327 74.7726 161.119 75.2234 161.002C75.6779 160.88 76.1249 160.82 76.5643 160.82C76.8446 160.82 77.1665 160.854 77.5302 160.922C77.8976 160.986 78.2518 161.121 78.5927 161.325C78.9374 161.53 79.2234 161.839 79.4506 162.252C79.6779 162.664 79.7915 163.217 79.7915 163.911V169.661H78.4506V168.479H78.3825C78.2915 168.668 78.14 168.871 77.9279 169.087C77.7158 169.303 77.4336 169.486 77.0813 169.638C76.729 169.789 76.2991 169.865 75.7915 169.865ZM75.9961 168.661C76.5264 168.661 76.9734 168.556 77.337 168.348C77.7044 168.14 77.9809 167.871 78.1665 167.541C78.3559 167.212 78.4506 166.865 78.4506 166.502V165.274C78.3938 165.342 78.2688 165.405 78.0756 165.462C77.8862 165.515 77.6665 165.562 77.4165 165.604C77.1703 165.642 76.9298 165.676 76.695 165.706C76.4639 165.733 76.2764 165.755 76.1325 165.774C75.784 165.82 75.4582 165.894 75.1552 165.996C74.8559 166.094 74.6135 166.244 74.4279 166.445C74.2461 166.642 74.1552 166.911 74.1552 167.252C74.1552 167.717 74.3275 168.07 74.6722 168.308C75.0207 168.543 75.462 168.661 75.9961 168.661ZM86.0344 160.933V162.07H81.5117V160.933H86.0344ZM82.8299 158.842H84.1708V167.161C84.1708 167.539 84.2257 167.824 84.3356 168.013C84.4492 168.199 84.5932 168.324 84.7674 168.388C84.9454 168.449 85.1329 168.479 85.3299 168.479C85.4776 168.479 85.5988 168.471 85.6935 168.456C85.7882 168.437 85.864 168.422 85.9208 168.411L86.1935 169.615C86.1026 169.649 85.9757 169.683 85.8129 169.717C85.65 169.755 85.4435 169.774 85.1935 169.774C84.8147 169.774 84.4435 169.693 84.0799 169.53C83.7201 169.367 83.4208 169.119 83.1822 168.786C82.9473 168.452 82.8299 168.032 82.8299 167.524V158.842ZM88.0515 169.661V160.933H89.3924V169.661H88.0515ZM88.7333 159.479C88.4719 159.479 88.2466 159.39 88.0572 159.212C87.8716 159.034 87.7788 158.82 87.7788 158.57C87.7788 158.32 87.8716 158.106 88.0572 157.928C88.2466 157.75 88.4719 157.661 88.7333 157.661C88.9947 157.661 89.2182 157.75 89.4038 157.928C89.5932 158.106 89.6879 158.32 89.6879 158.57C89.6879 158.82 89.5932 159.034 89.4038 159.212C89.2182 159.39 88.9947 159.479 88.7333 159.479ZM95.3938 169.842C94.6059 169.842 93.9147 169.655 93.32 169.28C92.729 168.905 92.2669 168.38 91.9336 167.706C91.604 167.032 91.4393 166.244 91.4393 165.342C91.4393 164.433 91.604 163.64 91.9336 162.962C92.2669 162.284 92.729 161.757 93.32 161.382C93.9147 161.007 94.6059 160.82 95.3938 160.82C96.1817 160.82 96.8711 161.007 97.462 161.382C98.0567 161.757 98.5188 162.284 98.8484 162.962C99.1817 163.64 99.3484 164.433 99.3484 165.342C99.3484 166.244 99.1817 167.032 98.8484 167.706C98.5188 168.38 98.0567 168.905 97.462 169.28C96.8711 169.655 96.1817 169.842 95.3938 169.842ZM95.3938 168.638C95.9923 168.638 96.4847 168.485 96.8711 168.178C97.2575 167.871 97.5434 167.467 97.729 166.967C97.9147 166.467 98.0075 165.926 98.0075 165.342C98.0075 164.759 97.9147 164.216 97.729 163.712C97.5434 163.208 97.2575 162.801 96.8711 162.49C96.4847 162.18 95.9923 162.024 95.3938 162.024C94.7953 162.024 94.3029 162.18 93.9165 162.49C93.5302 162.801 93.2442 163.208 93.0586 163.712C92.873 164.216 92.7802 164.759 92.7802 165.342C92.7802 165.926 92.873 166.467 93.0586 166.967C93.2442 167.467 93.5302 167.871 93.9165 168.178C94.3029 168.485 94.7953 168.638 95.3938 168.638ZM102.736 164.411V169.661H101.395V160.933H102.691V162.297H102.804C103.009 161.854 103.319 161.498 103.736 161.229C104.153 160.956 104.691 160.82 105.35 160.82C105.941 160.82 106.458 160.941 106.901 161.183C107.344 161.422 107.689 161.786 107.935 162.274C108.181 162.759 108.304 163.373 108.304 164.115V169.661H106.963V164.206C106.963 163.52 106.785 162.986 106.429 162.604C106.073 162.217 105.585 162.024 104.963 162.024C104.535 162.024 104.153 162.117 103.816 162.303C103.482 162.488 103.219 162.759 103.026 163.115C102.833 163.471 102.736 163.903 102.736 164.411ZM113.323 169.865C112.77 169.865 112.268 169.761 111.817 169.553C111.366 169.341 111.008 169.036 110.743 168.638C110.478 168.236 110.346 167.752 110.346 167.183C110.346 166.683 110.444 166.278 110.641 165.967C110.838 165.653 111.101 165.407 111.431 165.229C111.76 165.051 112.124 164.918 112.522 164.831C112.923 164.74 113.327 164.668 113.732 164.615C114.262 164.547 114.692 164.496 115.022 164.462C115.355 164.424 115.597 164.361 115.749 164.274C115.904 164.187 115.982 164.036 115.982 163.82V163.774C115.982 163.214 115.828 162.778 115.522 162.467C115.219 162.157 114.758 162.002 114.141 162.002C113.501 162.002 112.999 162.142 112.635 162.422C112.272 162.702 112.016 163.002 111.868 163.32L110.596 162.865C110.823 162.335 111.126 161.922 111.505 161.627C111.887 161.327 112.304 161.119 112.755 161.002C113.209 160.88 113.656 160.82 114.096 160.82C114.376 160.82 114.698 160.854 115.061 160.922C115.429 160.986 115.783 161.121 116.124 161.325C116.469 161.53 116.755 161.839 116.982 162.252C117.209 162.664 117.323 163.217 117.323 163.911V169.661H115.982V168.479H115.914C115.823 168.668 115.671 168.871 115.459 169.087C115.247 169.303 114.965 169.486 114.613 169.638C114.26 169.789 113.83 169.865 113.323 169.865ZM113.527 168.661C114.058 168.661 114.505 168.556 114.868 168.348C115.236 168.14 115.512 167.871 115.698 167.541C115.887 167.212 115.982 166.865 115.982 166.502V165.274C115.925 165.342 115.8 165.405 115.607 165.462C115.417 165.515 115.198 165.562 114.948 165.604C114.702 165.642 114.461 165.676 114.226 165.706C113.995 165.733 113.808 165.755 113.664 165.774C113.315 165.82 112.989 165.894 112.686 165.996C112.387 166.094 112.145 166.244 111.959 166.445C111.777 166.642 111.686 166.911 111.686 167.252C111.686 167.717 111.859 168.07 112.203 168.308C112.552 168.543 112.993 168.661 113.527 168.661ZM121.111 158.024V169.661H119.77V158.024H121.111ZM123.567 169.661V160.933H124.908V169.661H123.567ZM124.249 159.479C123.988 159.479 123.762 159.39 123.573 159.212C123.387 159.034 123.294 158.82 123.294 158.57C123.294 158.32 123.387 158.106 123.573 157.928C123.762 157.75 123.988 157.661 124.249 157.661C124.51 157.661 124.734 157.75 124.919 157.928C125.109 158.106 125.203 158.32 125.203 158.57C125.203 158.82 125.109 159.034 124.919 159.212C124.734 159.39 124.51 159.479 124.249 159.479ZM131.159 160.933V162.07H126.637V160.933H131.159ZM127.955 158.842H129.296V167.161C129.296 167.539 129.351 167.824 129.461 168.013C129.574 168.199 129.718 168.324 129.892 168.388C130.07 168.449 130.258 168.479 130.455 168.479C130.603 168.479 130.724 168.471 130.819 168.456C130.913 168.437 130.989 168.422 131.046 168.411L131.319 169.615C131.228 169.649 131.101 169.683 130.938 169.717C130.775 169.755 130.569 169.774 130.319 169.774C129.94 169.774 129.569 169.693 129.205 169.53C128.845 169.367 128.546 169.119 128.307 168.786C128.072 168.452 127.955 168.032 127.955 167.524V158.842ZM134.04 172.933C133.813 172.933 133.61 172.914 133.432 172.877C133.254 172.842 133.131 172.808 133.063 172.774L133.404 171.592C133.73 171.676 134.017 171.706 134.267 171.683C134.517 171.661 134.739 171.549 134.932 171.348C135.129 171.151 135.309 170.831 135.472 170.388L135.722 169.706L132.495 160.933H133.949L136.358 167.888H136.449L138.858 160.933H140.313L136.608 170.933C136.442 171.384 136.235 171.757 135.989 172.053C135.743 172.352 135.457 172.574 135.131 172.717C134.809 172.861 134.445 172.933 134.04 172.933Z" fill="#909090"/>
<path d="M40.7991 172.795C45.325 172.795 48.9939 169.126 48.9939 164.6C48.9939 160.074 45.325 156.405 40.7991 156.405C36.2732 156.405 32.6042 160.074 32.6042 164.6C32.6042 169.126 36.2732 172.795 40.7991 172.795Z" stroke="#909090" stroke-width="1.5" stroke-linecap="round" stroke-linejoin="round"/>
<path d="M40.7992 156.405C38.6949 158.615 37.5212 161.549 37.5212 164.6C37.5212 167.651 38.6949 170.586 40.7992 172.795C42.9034 170.586 44.0771 167.651 44.0771 164.6C44.0771 161.549 42.9034 158.615 40.7992 156.405Z" stroke="#909090" stroke-width="1.5" stroke-linecap="round" stroke-linejoin="round"/>
<path d="M32.6042 164.6H48.9939" stroke="#909090" stroke-width="1.5" stroke-linecap="round" stroke-linejoin="round"/>
<rect x="40.7817" y="75.5601" width="88.022" height="35.2299" rx="17.6149" stroke="white" stroke-opacity="0.5"/>
<path d="M59.9291 97.6748H56.7253V88.2203H59.9937C60.9324 88.2203 61.7387 88.4095 62.4128 88.7881C63.0898 89.1636 63.61 89.7037 63.9731 90.4085C64.3363 91.1133 64.5179 91.9565 64.5179 92.9383C64.5179 93.9231 64.3347 94.7695 63.9685 95.4774C63.6053 96.1852 63.0806 96.7284 62.3943 97.107C61.711 97.4855 60.8893 97.6748 59.9291 97.6748ZM58.438 96.1929H59.846C60.5046 96.1929 61.054 96.0729 61.4941 95.8328C61.9342 95.5897 62.265 95.2281 62.4866 94.748C62.7082 94.2648 62.819 93.6615 62.819 92.9383C62.819 92.2151 62.7082 91.6149 62.4866 91.1379C62.265 90.6578 61.9373 90.2992 61.5033 90.0622C61.0724 89.8222 60.5369 89.7021 59.8968 89.7021H58.438V96.1929ZM70.5908 94.6926V90.5839H72.262V97.6748H70.6416V96.4145H70.5678C70.4077 96.8115 70.1446 97.1362 69.7783 97.3886C69.4152 97.641 68.9674 97.7671 68.4349 97.7671C67.9702 97.7671 67.5594 97.664 67.2023 97.4578C66.8484 97.2485 66.5714 96.9454 66.3714 96.5484C66.1713 96.1483 66.0713 95.6651 66.0713 95.0988V90.5839H67.7425V94.8403C67.7425 95.2896 67.8656 95.6466 68.1118 95.9113C68.358 96.176 68.6812 96.3083 69.0813 96.3083C69.3275 96.3083 69.566 96.2483 69.7968 96.1283C70.0276 96.0083 70.2169 95.8298 70.3646 95.5928C70.5154 95.3527 70.5908 95.0526 70.5908 94.6926ZM74.0544 97.6748V88.2203H75.7255V91.7565H75.7948C75.8809 91.5841 76.0025 91.401 76.1595 91.2071C76.3164 91.0102 76.5288 90.8424 76.7965 90.7039C77.0643 90.5624 77.4059 90.4916 77.8214 90.4916C78.3692 90.4916 78.8632 90.6316 79.3033 90.9117C79.7465 91.1887 80.0973 91.5995 80.3558 92.1443C80.6174 92.6859 80.7482 93.3507 80.7482 94.1386C80.7482 94.9172 80.6205 95.5789 80.3651 96.1237C80.1096 96.6684 79.7619 97.0839 79.3218 97.3701C78.8817 97.6563 78.3831 97.7994 77.826 97.7994C77.4198 97.7994 77.0828 97.7317 76.815 97.5963C76.5473 97.4609 76.3318 97.2978 76.1687 97.107C76.0087 96.9131 75.884 96.73 75.7948 96.5576H75.6978V97.6748H74.0544ZM75.6932 94.1294C75.6932 94.5879 75.7578 94.9896 75.8871 95.3343C76.0194 95.6789 76.2087 95.9482 76.4549 96.1421C76.7042 96.3329 77.0058 96.4284 77.3598 96.4284C77.7291 96.4284 78.0384 96.3299 78.2877 96.1329C78.537 95.9329 78.7247 95.6605 78.8509 95.3158C78.9801 94.968 79.0448 94.5725 79.0448 94.1294C79.0448 93.6892 78.9817 93.2984 78.8555 92.9568C78.7293 92.6151 78.5416 92.3474 78.2923 92.1535C78.043 91.9596 77.7321 91.8627 77.3598 91.8627C77.0027 91.8627 76.6996 91.9565 76.4503 92.1443C76.201 92.332 76.0117 92.5951 75.8825 92.9337C75.7563 93.2722 75.6932 93.6708 75.6932 94.1294ZM84.2095 97.8179C83.7601 97.8179 83.3554 97.7379 82.9953 97.5779C82.6383 97.4147 82.3552 97.1747 82.1459 96.8577C81.9397 96.5407 81.8366 96.1498 81.8366 95.6851C81.8366 95.285 81.9104 94.9542 82.0582 94.6926C82.2059 94.431 82.4075 94.2217 82.6629 94.0647C82.9184 93.9078 83.2061 93.7893 83.5262 93.7093C83.8494 93.6262 84.1833 93.5661 84.528 93.5292C84.9435 93.4861 85.2805 93.4477 85.539 93.4138C85.7975 93.3769 85.9853 93.3215 86.1022 93.2476C86.2222 93.1707 86.2822 93.0522 86.2822 92.8921V92.8644C86.2822 92.5167 86.1791 92.2474 85.9729 92.0566C85.7667 91.8657 85.4697 91.7703 85.082 91.7703C84.6726 91.7703 84.3479 91.8596 84.1079 92.0381C83.8709 92.2166 83.7109 92.4274 83.6278 92.6705L82.0674 92.449C82.1905 92.0181 82.3936 91.658 82.6768 91.3687C82.9599 91.0763 83.3062 90.8578 83.7155 90.7132C84.1248 90.5654 84.5772 90.4916 85.0727 90.4916C85.4144 90.4916 85.7544 90.5316 86.093 90.6116C86.4315 90.6916 86.7408 90.824 87.0209 91.0086C87.301 91.1902 87.5256 91.4379 87.6949 91.7519C87.8672 92.0658 87.9534 92.4582 87.9534 92.9291V97.6748H86.3469V96.7007H86.2915C86.1899 96.8977 86.0468 97.0824 85.8621 97.2547C85.6806 97.424 85.4513 97.5609 85.1743 97.6656C84.9004 97.7671 84.5788 97.8179 84.2095 97.8179ZM84.6434 96.5899C84.9789 96.5899 85.2697 96.5238 85.5159 96.3914C85.7621 96.256 85.9514 96.0775 86.0837 95.8559C86.2192 95.6343 86.2869 95.3927 86.2869 95.1311V94.2955C86.2345 94.3386 86.1453 94.3786 86.0191 94.4156C85.896 94.4525 85.7575 94.4848 85.6036 94.5125C85.4497 94.5402 85.2974 94.5648 85.1466 94.5864C84.9958 94.6079 84.865 94.6264 84.7542 94.6418C84.5049 94.6756 84.2818 94.731 84.0848 94.808C83.8878 94.8849 83.7324 94.9926 83.6185 95.1311C83.5047 95.2665 83.4477 95.442 83.4477 95.6574C83.4477 95.9652 83.5601 96.1975 83.7847 96.3545C84.0094 96.5115 84.2956 96.5899 84.6434 96.5899ZM89.6338 97.6748V90.5839H91.305V97.6748H89.6338ZM90.474 89.5775C90.2093 89.5775 89.9816 89.4898 89.7908 89.3144C89.6 89.1359 89.5045 88.922 89.5045 88.6727C89.5045 88.4203 89.6 88.2064 89.7908 88.031C89.9816 87.8525 90.2093 87.7632 90.474 87.7632C90.7418 87.7632 90.9695 87.8525 91.1572 88.031C91.3481 88.2064 91.4435 88.4203 91.4435 88.6727C91.4435 88.922 91.3481 89.1359 91.1572 89.3144C90.9695 89.4898 90.7418 89.5775 90.474 89.5775Z" fill="white"/>
<path d="M113.793 89.6748L106.793 96.6748M106.793 89.6748L113.793 96.6748" stroke="white" stroke-width="2" stroke-linecap="round" stroke-linejoin="round"/>
<rect x="137.05" y="75.5601" width="101.479" height="35.2299" rx="17.6149" stroke="white" stroke-opacity="0.5"/>
<path d="M152.222 88.2203H154.317L157.124 95.0711H157.235L160.042 88.2203H162.138V97.6748H160.494V91.1794H160.407L157.794 97.6471H156.566L153.953 91.1656H153.865V97.6748H152.222V88.2203ZM167.022 97.8133C166.33 97.8133 165.729 97.661 165.222 97.3563C164.714 97.0516 164.32 96.6253 164.04 96.0775C163.763 95.5297 163.624 94.8895 163.624 94.157C163.624 93.4246 163.763 92.7829 164.04 92.232C164.32 91.6811 164.714 91.2533 165.222 90.9486C165.729 90.6439 166.33 90.4916 167.022 90.4916C167.714 90.4916 168.315 90.6439 168.822 90.9486C169.33 91.2533 169.723 91.6811 170 92.232C170.28 92.7829 170.42 93.4246 170.42 94.157C170.42 94.8895 170.28 95.5297 170 96.0775C169.723 96.6253 169.33 97.0516 168.822 97.3563C168.315 97.661 167.714 97.8133 167.022 97.8133ZM167.031 96.4745C167.407 96.4745 167.721 96.3714 167.973 96.1652C168.225 95.9559 168.413 95.6759 168.536 95.325C168.662 94.9742 168.725 94.5833 168.725 94.1524C168.725 93.7185 168.662 93.3261 168.536 92.9752C168.413 92.6213 168.225 92.3397 167.973 92.1304C167.721 91.9211 167.407 91.8165 167.031 91.8165C166.647 91.8165 166.326 91.9211 166.071 92.1304C165.819 92.3397 165.629 92.6213 165.503 92.9752C165.38 93.3261 165.319 93.7185 165.319 94.1524C165.319 94.5833 165.38 94.9742 165.503 95.325C165.629 95.6759 165.819 95.9559 166.071 96.1652C166.326 96.3714 166.647 96.4745 167.031 96.4745ZM177.443 92.4582L175.919 92.6244C175.876 92.4705 175.801 92.3258 175.693 92.1904C175.588 92.055 175.447 91.9458 175.268 91.8627C175.09 91.7796 174.871 91.738 174.613 91.738C174.265 91.738 173.973 91.8134 173.736 91.9642C173.502 92.115 173.386 92.3105 173.389 92.5505C173.386 92.7567 173.462 92.9244 173.616 93.0537C173.772 93.183 174.031 93.2892 174.391 93.3722L175.601 93.6308C176.272 93.7754 176.77 94.0047 177.096 94.3186C177.426 94.6325 177.592 95.0434 177.595 95.5512C177.592 95.9975 177.461 96.3914 177.203 96.733C176.947 97.0716 176.592 97.3363 176.136 97.5271C175.681 97.7179 175.157 97.8133 174.566 97.8133C173.699 97.8133 173 97.6317 172.471 97.2686C171.941 96.9023 171.626 96.393 171.524 95.7405L173.154 95.5835C173.228 95.9036 173.385 96.1452 173.625 96.3083C173.865 96.4714 174.177 96.553 174.562 96.553C174.959 96.553 175.277 96.4714 175.517 96.3083C175.761 96.1452 175.882 95.9436 175.882 95.7036C175.882 95.5004 175.804 95.3327 175.647 95.2004C175.493 95.068 175.253 94.9665 174.927 94.8957L173.717 94.6418C173.037 94.5002 172.534 94.2617 172.207 93.9262C171.881 93.5877 171.72 93.1599 171.723 92.6428C171.72 92.2058 171.838 91.8273 172.078 91.5072C172.321 91.184 172.658 90.9347 173.089 90.7593C173.523 90.5808 174.023 90.4916 174.59 90.4916C175.421 90.4916 176.075 90.6685 176.552 91.0225C177.032 91.3764 177.329 91.855 177.443 92.4582ZM182.066 97.8133C181.358 97.8133 180.75 97.6579 180.242 97.347C179.738 97.0362 179.348 96.6069 179.074 96.059C178.804 95.5081 178.668 94.8741 178.668 94.157C178.668 93.4369 178.807 92.8013 179.084 92.2504C179.361 91.6965 179.752 91.2656 180.256 90.9578C180.764 90.647 181.364 90.4916 182.057 90.4916C182.632 90.4916 183.142 90.5977 183.585 90.8101C184.031 91.0194 184.387 91.3164 184.651 91.7011C184.916 92.0827 185.067 92.529 185.104 93.0399H183.506C183.442 92.6982 183.288 92.4136 183.045 92.1858C182.805 91.955 182.483 91.8396 182.08 91.8396C181.738 91.8396 181.438 91.9319 181.18 92.1166C180.921 92.2981 180.719 92.5597 180.575 92.9014C180.433 93.243 180.362 93.6523 180.362 94.1294C180.362 94.6125 180.433 95.028 180.575 95.3758C180.716 95.7205 180.915 95.9867 181.17 96.1744C181.429 96.3591 181.732 96.4514 182.08 96.4514C182.326 96.4514 182.546 96.4053 182.74 96.3129C182.937 96.2175 183.102 96.0806 183.234 95.9021C183.366 95.7236 183.457 95.5066 183.506 95.2512H185.104C185.064 95.7528 184.916 96.1975 184.66 96.5853C184.405 96.97 184.057 97.2716 183.617 97.4901C183.177 97.7056 182.66 97.8133 182.066 97.8133ZM189.569 97.8133C188.876 97.8133 188.276 97.661 187.768 97.3563C187.261 97.0516 186.867 96.6253 186.587 96.0775C186.31 95.5297 186.171 94.8895 186.171 94.157C186.171 93.4246 186.31 92.7829 186.587 92.232C186.867 91.6811 187.261 91.2533 187.768 90.9486C188.276 90.6439 188.876 90.4916 189.569 90.4916C190.261 90.4916 190.862 90.6439 191.369 90.9486C191.877 91.2533 192.27 91.6811 192.547 92.232C192.827 92.7829 192.967 93.4246 192.967 94.157C192.967 94.8895 192.827 95.5297 192.547 96.0775C192.27 96.6253 191.877 97.0516 191.369 97.3563C190.862 97.661 190.261 97.8133 189.569 97.8133ZM189.578 96.4745C189.954 96.4745 190.268 96.3714 190.52 96.1652C190.772 95.9559 190.96 95.6759 191.083 95.325C191.209 94.9742 191.272 94.5833 191.272 94.1524C191.272 93.7185 191.209 93.3261 191.083 92.9752C190.96 92.6213 190.772 92.3397 190.52 92.1304C190.268 91.9211 189.954 91.8165 189.578 91.8165C189.193 91.8165 188.873 91.9211 188.618 92.1304C188.366 92.3397 188.176 92.6213 188.05 92.9752C187.927 93.3261 187.865 93.7185 187.865 94.1524C187.865 94.5833 187.927 94.9742 188.05 95.325C188.176 95.6759 188.366 95.9559 188.618 96.1652C188.873 96.3714 189.193 96.4745 189.578 96.4745ZM195.645 97.6748L193.642 90.5839H195.345L196.592 95.5697H196.656L197.93 90.5839H199.616L200.89 95.542H200.959L202.187 90.5839H203.895L201.887 97.6748H200.146L198.817 92.8829H198.72L197.39 97.6748H195.645Z" fill="white"/>
<path d="M224.289 89.6748L217.289 96.6748M217.289 89.6748L224.289 96.6748" stroke="white" stroke-width="2" stroke-linecap="round" stroke-linejoin="round"/>
<rect x="246.774" y="75.5601" width="79.7409" height="35.2299" rx="17.6149" stroke="white" stroke-opacity="0.5"/>
<path d="M260.577 88.2203H262.673L265.48 95.0711H265.591L268.398 88.2203H270.493V97.6748H268.85V91.1794H268.762L266.149 97.6471H264.921L262.308 91.1656H262.221V97.6748H260.577V88.2203ZM272.285 97.6748V90.5839H273.956V97.6748H272.285ZM273.125 89.5775C272.86 89.5775 272.632 89.4898 272.442 89.3144C272.251 89.1359 272.155 88.922 272.155 88.6727C272.155 88.4203 272.251 88.2064 272.442 88.031C272.632 87.8525 272.86 87.7632 273.125 87.7632C273.393 87.7632 273.62 87.8525 273.808 88.031C273.999 88.2064 274.094 88.4203 274.094 88.6727C274.094 88.922 273.999 89.1359 273.808 89.3144C273.62 89.4898 273.393 89.5775 273.125 89.5775ZM277.346 88.2203V97.6748H275.674V88.2203H277.346ZM281.104 97.8179C280.655 97.8179 280.25 97.7379 279.89 97.5779C279.533 97.4147 279.25 97.1747 279.041 96.8577C278.835 96.5407 278.732 96.1498 278.732 95.6851C278.732 95.285 278.805 94.9542 278.953 94.6926C279.101 94.431 279.303 94.2217 279.558 94.0647C279.813 93.9078 280.101 93.7893 280.421 93.7093C280.744 93.6262 281.078 93.5661 281.423 93.5292C281.838 93.4861 282.175 93.4477 282.434 93.4138C282.693 93.3769 282.88 93.3215 282.997 93.2476C283.117 93.1707 283.177 93.0522 283.177 92.8921V92.8644C283.177 92.5167 283.074 92.2474 282.868 92.0566C282.662 91.8657 282.365 91.7703 281.977 91.7703C281.568 91.7703 281.243 91.8596 281.003 92.0381C280.766 92.2166 280.606 92.4274 280.523 92.6705L278.962 92.449C279.086 92.0181 279.289 91.658 279.572 91.3687C279.855 91.0763 280.201 90.8578 280.611 90.7132C281.02 90.5654 281.472 90.4916 281.968 90.4916C282.309 90.4916 282.649 90.5316 282.988 90.6116C283.327 90.6916 283.636 90.824 283.916 91.0086C284.196 91.1902 284.421 91.4379 284.59 91.7519C284.762 92.0658 284.848 92.4582 284.848 92.9291V97.6748H283.242V96.7007H283.187C283.085 96.8977 282.942 97.0824 282.757 97.2547C282.576 97.424 282.346 97.5609 282.069 97.6656C281.795 97.7671 281.474 97.8179 281.104 97.8179ZM281.538 96.5899C281.874 96.5899 282.165 96.5238 282.411 96.3914C282.657 96.256 282.846 96.0775 282.979 95.8559C283.114 95.6343 283.182 95.3927 283.182 95.1311V94.2955C283.13 94.3386 283.04 94.3786 282.914 94.4156C282.791 94.4525 282.653 94.4848 282.499 94.5125C282.345 94.5402 282.192 94.5648 282.042 94.5864C281.891 94.6079 281.76 94.6264 281.649 94.6418C281.4 94.6756 281.177 94.731 280.98 94.808C280.783 94.8849 280.627 94.9926 280.514 95.1311C280.4 95.2665 280.343 95.442 280.343 95.6574C280.343 95.9652 280.455 96.1975 280.68 96.3545C280.904 96.5115 281.191 96.5899 281.538 96.5899ZM288.2 93.52V97.6748H286.529V90.5839H288.126V91.7888H288.209C288.372 91.3918 288.632 91.0763 288.989 90.8424C289.349 90.6085 289.794 90.4916 290.324 90.4916C290.813 90.4916 291.239 90.5962 291.602 90.8055C291.969 91.0148 292.252 91.3179 292.452 91.7149C292.655 92.1119 292.755 92.5936 292.752 93.1599V97.6748H291.081V93.4184C291.081 92.9445 290.958 92.5736 290.711 92.3058C290.468 92.0381 290.131 91.9042 289.7 91.9042C289.408 91.9042 289.148 91.9688 288.92 92.0981C288.695 92.2243 288.519 92.4074 288.389 92.6475C288.263 92.8875 288.2 93.1784 288.2 93.52Z" fill="white"/>
<path d="M313.645 89.6748L306.645 96.6748M306.645 89.6748L313.645 96.6748" stroke="white" stroke-width="2" stroke-linecap="round" stroke-linejoin="round"/>
<rect x="31.4653" y="63.1382" width="426.512" height="61.1083" rx="9.5" stroke="white" stroke-opacity="0.2"/>
<path d="M70.7219 40.5493H69.3129C69.2295 40.144 69.0837 39.788 68.8754 39.4811C68.6708 39.1743 68.4208 38.9167 68.1254 38.7084C67.8337 38.4963 67.5098 38.3372 67.1538 38.2311C66.7977 38.1251 66.4265 38.072 66.0401 38.072C65.3356 38.072 64.6973 38.2501 64.1254 38.6061C63.5572 38.9622 63.1045 39.4868 62.7674 40.18C62.4341 40.8732 62.2674 41.7236 62.2674 42.7311C62.2674 43.7387 62.4341 44.5891 62.7674 45.2823C63.1045 45.9755 63.5572 46.5001 64.1254 46.8561C64.6973 47.2122 65.3356 47.3902 66.0401 47.3902C66.4265 47.3902 66.7977 47.3372 67.1538 47.2311C67.5098 47.1251 67.8337 46.9679 68.1254 46.7595C68.4208 46.5474 68.6708 46.288 68.8754 45.9811C69.0837 45.6705 69.2295 45.3145 69.3129 44.913H70.7219C70.6159 45.5076 70.4227 46.0398 70.1424 46.5095C69.8621 46.9792 69.5136 47.3789 69.0969 47.7084C68.6803 48.0342 68.2125 48.2823 67.6935 48.4527C67.1784 48.6232 66.6272 48.7084 66.0401 48.7084C65.0477 48.7084 64.1651 48.466 63.3924 47.9811C62.6197 47.4963 62.0117 46.8069 61.5685 45.913C61.1254 45.019 60.9038 43.9584 60.9038 42.7311C60.9038 41.5039 61.1254 40.4433 61.5685 39.5493C62.0117 38.6554 62.6197 37.966 63.3924 37.4811C64.1651 36.9963 65.0477 36.7539 66.0401 36.7539C66.6272 36.7539 67.1784 36.8391 67.6935 37.0095C68.2125 37.18 68.6803 37.43 69.0969 37.7595C69.5136 38.0853 69.8621 38.483 70.1424 38.9527C70.4227 39.4186 70.6159 39.9508 70.7219 40.5493ZM72.8171 48.5493V39.822H74.158V48.5493H72.8171ZM73.4989 38.3675C73.2376 38.3675 73.0122 38.2785 72.8228 38.1005C72.6372 37.9224 72.5444 37.7084 72.5444 37.4584C72.5444 37.2084 72.6372 36.9944 72.8228 36.8164C73.0122 36.6383 73.2376 36.5493 73.4989 36.5493C73.7603 36.5493 73.9838 36.6383 74.1694 36.8164C74.3588 36.9944 74.4535 37.2084 74.4535 37.4584C74.4535 37.7084 74.3588 37.9224 74.1694 38.1005C73.9838 38.2785 73.7603 38.3675 73.4989 38.3675ZM80.4094 39.822V40.9584H75.8867V39.822H80.4094ZM77.2049 37.7311H78.5458V46.0493C78.5458 46.4281 78.6007 46.7122 78.7106 46.9016C78.8242 47.0872 78.9682 47.2122 79.1424 47.2766C79.3204 47.3372 79.5079 47.3675 79.7049 47.3675C79.8526 47.3675 79.9738 47.3599 80.0685 47.3448C80.1632 47.3258 80.239 47.3107 80.2958 47.2993L80.5685 48.5039C80.4776 48.538 80.3507 48.572 80.1879 48.6061C80.025 48.644 79.8185 48.663 79.5685 48.663C79.1897 48.663 78.8185 48.5815 78.4549 48.4186C78.0951 48.2558 77.7958 48.0076 77.5572 47.6743C77.3223 47.341 77.2049 46.9205 77.2049 46.413V37.7311ZM82.4265 48.5493V39.822H83.7674V48.5493H82.4265ZM83.1083 38.3675C82.8469 38.3675 82.6216 38.2785 82.4322 38.1005C82.2466 37.9224 82.1538 37.7084 82.1538 37.4584C82.1538 37.2084 82.2466 36.9944 82.4322 36.8164C82.6216 36.6383 82.8469 36.5493 83.1083 36.5493C83.3697 36.5493 83.5932 36.6383 83.7788 36.8164C83.9682 36.9944 84.0629 37.2084 84.0629 37.4584C84.0629 37.7084 83.9682 37.9224 83.7788 38.1005C83.5932 38.2785 83.3697 38.3675 83.1083 38.3675ZM89.8825 48.7311C89.0415 48.7311 88.3162 48.5455 87.7063 48.1743C87.1003 47.7993 86.6325 47.2766 86.3029 46.6061C85.9772 45.9319 85.8143 45.1478 85.8143 44.2539C85.8143 43.3599 85.9772 42.572 86.3029 41.8902C86.6325 41.2046 87.0908 40.6705 87.6779 40.288C88.2688 39.9016 88.9582 39.7084 89.7461 39.7084C90.2006 39.7084 90.6495 39.7842 91.0927 39.9357C91.5359 40.0872 91.9393 40.3334 92.3029 40.6743C92.6665 41.0114 92.9563 41.4584 93.1722 42.0152C93.3881 42.572 93.4961 43.2576 93.4961 44.072V44.6402H86.7688V43.4811H92.1325C92.1325 42.9887 92.034 42.5493 91.837 42.163C91.6438 41.7766 91.3673 41.4717 91.0075 41.2482C90.6514 41.0247 90.2309 40.913 89.7461 40.913C89.212 40.913 88.7499 41.0455 88.3597 41.3107C87.9734 41.572 87.676 41.913 87.4677 42.3334C87.2594 42.7539 87.1552 43.2046 87.1552 43.6857V44.4584C87.1552 45.1175 87.2688 45.6762 87.4961 46.1345C87.7272 46.5891 88.0472 46.9357 88.4563 47.1743C88.8654 47.4092 89.3408 47.5266 89.8825 47.5266C90.2347 47.5266 90.5529 47.4773 90.837 47.3789C91.1249 47.2766 91.373 47.1251 91.5813 46.9243C91.7897 46.7198 91.9506 46.466 92.0643 46.163L93.3597 46.5266C93.2234 46.966 92.9942 47.3523 92.6722 47.6857C92.3503 48.0152 91.9525 48.2728 91.479 48.4584C91.0056 48.6402 90.4734 48.7311 89.8825 48.7311ZM101.718 41.7766L100.513 42.1175C100.437 41.9167 100.326 41.7217 100.178 41.5323C100.034 41.3391 99.837 41.18 99.587 41.055C99.337 40.93 99.0169 40.8675 98.6268 40.8675C98.0927 40.8675 97.6476 40.9906 97.2915 41.2368C96.9393 41.4792 96.7631 41.788 96.7631 42.163C96.7631 42.4963 96.8844 42.7595 97.1268 42.9527C97.3692 43.1459 97.748 43.3069 98.2631 43.4357L99.5586 43.7539C100.339 43.9433 100.92 44.233 101.303 44.6232C101.685 45.0095 101.877 45.5076 101.877 46.1175C101.877 46.6175 101.733 47.0645 101.445 47.4584C101.161 47.8523 100.763 48.163 100.252 48.3902C99.7404 48.6175 99.1457 48.7311 98.4677 48.7311C97.5775 48.7311 96.8408 48.538 96.2575 48.1516C95.6741 47.7652 95.3048 47.2008 95.1495 46.4584L96.4222 46.1402C96.5434 46.6099 96.7726 46.9622 97.1097 47.197C97.4506 47.4319 97.8957 47.5493 98.445 47.5493C99.07 47.5493 99.5662 47.4167 99.9336 47.1516C100.305 46.8826 100.49 46.5607 100.49 46.1857C100.49 45.8826 100.384 45.6289 100.172 45.4243C99.9601 45.216 99.6344 45.0607 99.195 44.9584L97.7404 44.6175C96.9412 44.4281 96.354 44.1345 95.979 43.7368C95.6078 43.3353 95.4222 42.8334 95.4222 42.2311C95.4222 41.7387 95.5605 41.3031 95.837 40.9243C96.1173 40.5455 96.498 40.2482 96.979 40.0323C97.4639 39.8164 98.0131 39.7084 98.6268 39.7084C99.4904 39.7084 100.168 39.8978 100.661 40.2766C101.157 40.6554 101.509 41.1554 101.718 41.7766Z" fill="#909090"/>
<path d="M49.0803 41.2461C49.0803 45.5532 44.0634 50.0388 42.3787 51.4241C42.2218 51.5365 42.0307 51.5973 41.8344 51.5973C41.638 51.5973 41.4469 51.5365 41.29 51.4241C39.6053 50.0388 34.5884 45.5532 34.5884 41.2461C34.5884 39.4159 35.3518 37.6606 36.7107 36.3664C38.0696 35.0723 39.9126 34.3452 41.8344 34.3452C43.7561 34.3452 45.5991 35.0723 46.958 36.3664C48.3169 37.6606 49.0803 39.4159 49.0803 41.2461Z" stroke="#909090" stroke-width="1.7" stroke-linecap="round" stroke-linejoin="round"/>
<path d="M41.8342 43.8339C43.3349 43.8339 44.5514 42.6753 44.5514 41.2461C44.5514 39.8168 43.3349 38.6582 41.8342 38.6582C40.3335 38.6582 39.1169 39.8168 39.1169 41.2461C39.1169 42.6753 40.3335 43.8339 41.8342 43.8339Z" stroke="#909090" stroke-width="1.7" stroke-linecap="round" stroke-linejoin="round"/>
<defs>
<filter id="filter0_d_1187_379" x="0" y="0" width="492" height="403" filterUnits="userSpaceOnUse" color-interpolation-filters="sRGB">
<feFlood flood-opacity="0" result="BackgroundImageFix"/>
<feColorMatrix in="SourceAlpha" type="matrix" values="0 0 0 0 0 0 0 0 0 0 0 0 0 0 0 0 0 0 127 0" result="hardAlpha"/>
<feOffset/>
<feGaussianBlur stdDeviation="5"/>
<feComposite in2="hardAlpha" operator="out"/>
<feColorMatrix type="matrix" values="0 0 0 0 1 0 0 0 0 1 0 0 0 0 1 0 0 0 0.2 0"/>
<feBlend mode="normal" in2="BackgroundImageFix" result="effect1_dropShadow_1187_379"/>
<feBlend mode="normal" in="SourceGraphic" in2="effect1_dropShadow_1187_379" result="shape"/>
</filter>
<clipPath id="clip0_1187_379">
<rect width="20" height="13.3333" fill="white" transform="translate(323.974 331.836)"/>
</clipPath>
<clipPath id="clip1_1187_379">
<rect width="20" height="13.3333" fill="white" transform="translate(186.994 331.836)"/>
</clipPath>
<clipPath id="clip2_1187_379">
<rect width="20" height="13.3333" fill="white" transform="translate(54.4253 331.836)"/>
</clipPath>
<clipPath id="clip3_1187_379">
<rect width="20" height="13.3333" fill="white" transform="translate(337.93 209.691)"/>
</clipPath>
<clipPath id="clip4_1187_379">
<rect width="20" height="13.3333" fill="white" transform="translate(188.757 209.691)"/>
</clipPath>
<clipPath id="clip5_1187_379">
<rect width="20" height="13.3333" fill="white" transform="translate(53.9604 209.691)"/>
</clipPath>
</defs>
</svg>
